{"glyphs":{"0":{"ha":778,"x_min":0,"x_max":0,"o":"m 389 -17 b 235 31 326 -17 275 -1 b 142 153 195 63 164 104 b 96 317 119 202 104 256 b 83 492 88 377 83 435 b 96 667 83 548 88 606 b 142 831 104 727 119 781 b 235 952 164 880 195 920 b 389 1000 275 984 326 1000 b 543 952 452 1000 503 984 b 636 831 583 920 614 880 b 682 667 658 781 674 727 b 694 492 690 606 694 548 b 682 317 694 435 690 377 b 636 153 674 256 658 202 b 543 31 614 104 583 63 b 389 -17 503 -1 452 -17 m 389 972 b 281 947 347 972 311 964 b 206 880 251 929 226 907 b 157 787 185 853 169 822 b 129 681 145 752 136 717 b 117 578 123 646 119 611 b 114 492 115 544 114 516 b 117 405 114 467 115 438 b 129 302 119 372 123 338 b 157 197 136 266 145 231 b 206 103 169 162 185 131 b 281 37 226 76 251 54 b 389 11 311 20 347 11 b 497 37 431 11 466 20 b 572 103 527 54 552 76 b 621 197 593 131 609 162 b 649 302 633 231 642 266 b 661 405 655 338 659 372 b 664 492 663 438 664 467 b 661 578 664 516 663 544 b 649 681 659 611 655 646 b 621 787 642 717 633 752 b 572 880 609 822 593 853 b 497 947 552 907 527 929 b 389 972 466 964 431 972 "},"1":{"ha":778,"x_min":0,"x_max":0,"o":"m 403 947 l 217 789 l 199 813 l 403 983 l 433 983 l 433 0 l 403 0 "},"2":{"ha":778,"x_min":0,"x_max":0,"o":"m 88 36 l 431 439 b 554 603 482 499 524 554 b 600 751 585 652 600 701 b 583 844 600 786 594 816 b 537 914 572 871 557 894 b 466 958 517 933 493 948 b 378 974 439 969 409 974 b 236 931 324 974 277 959 b 150 806 195 903 167 861 l 121 815 b 217 952 138 875 170 920 b 378 1000 263 984 317 1000 b 480 982 415 1000 449 994 b 560 931 511 970 538 953 b 612 855 582 909 599 884 b 631 761 624 826 631 794 b 619 675 631 731 627 702 b 583 594 611 648 599 621 b 523 508 566 566 547 538 b 442 408 499 478 472 444 l 119 29 l 639 29 l 639 0 l 88 0 "},"3":{"ha":778,"x_min":0,"x_max":0,"o":"m 646 258 b 629 155 646 222 640 188 b 578 67 618 122 601 93 b 491 6 556 42 527 22 b 364 -17 455 -9 413 -17 b 197 26 301 -17 245 -2 b 88 140 148 55 112 93 l 117 153 b 214 51 137 110 169 76 b 364 11 258 26 308 13 b 472 29 405 10 441 16 b 551 83 504 42 530 60 b 599 163 573 105 589 132 b 615 260 610 193 615 225 b 588 369 615 302 606 339 b 519 445 570 400 547 425 b 428 489 492 465 461 480 b 333 503 394 498 363 503 l 303 503 l 303 531 l 333 531 b 422 544 363 531 392 535 b 501 585 451 553 477 566 b 558 656 524 603 544 627 b 581 760 573 684 581 719 b 564 848 581 792 575 822 b 518 915 553 874 538 897 b 449 958 499 934 476 948 b 364 974 423 969 394 974 b 247 947 323 974 284 965 b 160 872 210 930 181 905 l 135 889 b 230 970 159 923 191 950 b 364 1000 269 990 314 1000 b 462 983 399 1000 432 994 b 540 935 492 972 518 956 b 591 860 561 915 578 889 b 610 760 603 830 610 797 b 598 678 610 732 606 705 b 561 607 590 652 578 628 b 497 551 544 586 523 567 b 403 519 470 536 439 525 l 403 517 b 511 482 444 510 481 499 b 587 422 542 465 567 445 b 631 345 607 399 622 373 b 646 258 641 317 646 288 "},"4":{"ha":778,"x_min":0,"x_max":0,"o":"m 550 0 l 519 0 l 519 256 l 60 256 l 60 293 l 503 983 l 550 983 l 550 283 l 714 283 l 714 256 l 550 256 m 515 950 l 88 283 l 519 283 l 519 950 "},"5":{"ha":778,"x_min":0,"x_max":0,"o":"m 661 299 b 635 162 661 247 653 201 b 567 63 618 122 596 90 b 472 3 539 37 507 17 b 363 -17 436 -10 400 -17 b 202 19 299 -17 245 -5 b 96 114 159 44 124 75 l 121 133 b 219 44 147 95 179 66 b 363 11 258 22 306 11 b 459 29 395 11 427 17 b 545 83 491 41 520 59 b 607 173 571 107 591 137 b 631 299 623 209 631 250 b 611 410 631 338 624 376 b 556 501 598 445 580 475 b 467 560 531 526 502 546 b 346 582 431 575 391 582 b 251 568 313 582 282 577 b 164 532 220 559 191 547 l 171 983 l 619 983 l 619 956 l 201 956 l 193 574 b 276 601 219 587 247 596 b 358 608 306 606 333 608 b 485 585 406 608 448 600 b 580 520 522 569 553 547 b 640 422 606 493 626 460 b 661 299 654 384 661 343 "},"6":{"ha":778,"x_min":0,"x_max":0,"o":"m 97 279 b 116 395 97 315 103 354 b 181 536 128 436 150 483 l 440 983 l 476 983 l 181 483 l 183 482 b 277 553 207 512 239 535 b 400 579 316 570 356 579 b 511 556 440 579 477 572 b 600 494 545 541 575 520 b 659 399 625 467 645 436 b 681 279 673 362 681 322 b 659 161 681 237 673 197 b 599 67 645 125 625 94 b 506 6 573 41 542 20 b 388 -17 469 -9 430 -17 b 270 5 345 -17 306 -9 b 178 66 234 19 204 40 b 119 160 153 92 133 124 b 97 279 104 196 97 236 m 128 279 b 147 172 128 240 134 204 b 201 86 160 139 178 110 b 284 30 225 62 252 43 b 389 10 316 16 351 10 b 494 30 427 10 462 16 b 576 86 526 43 553 62 b 631 172 600 110 618 139 b 650 279 644 204 650 240 b 631 388 650 318 644 354 b 578 474 619 421 601 450 b 498 532 556 499 529 518 b 396 553 467 546 433 553 b 293 532 360 553 325 546 b 208 474 261 518 232 499 b 149 388 183 450 164 421 b 128 279 135 354 128 318 "},"7":{"ha":778,"x_min":0,"x_max":0,"o":"m 228 0 l 194 0 l 611 956 l 106 956 l 106 983 l 638 983 l 638 946 "},"8":{"ha":778,"x_min":0,"x_max":0,"o":"m 679 261 b 657 146 679 219 672 180 b 597 58 642 112 622 82 b 505 3 571 34 541 16 b 389 -17 469 -10 431 -17 b 273 3 347 -17 309 -10 b 181 58 237 16 207 34 b 121 146 156 82 136 112 b 99 261 106 180 99 219 b 111 345 99 290 103 318 b 149 422 119 372 132 398 b 214 484 166 445 188 466 b 306 526 240 502 270 516 l 306 529 b 177 627 247 551 204 584 b 136 760 150 670 136 714 b 156 858 136 796 143 828 b 208 933 169 887 186 912 b 288 983 231 955 257 971 b 389 1000 319 994 353 1000 b 490 983 425 1000 459 994 b 569 933 521 971 547 955 b 622 858 592 912 609 887 b 642 760 635 828 642 796 b 601 626 642 714 628 670 b 472 529 573 583 531 550 l 472 526 b 566 482 508 515 540 500 b 631 419 592 463 614 443 b 667 344 647 396 659 371 b 679 261 675 318 679 290 m 613 760 b 595 847 613 791 607 820 b 547 915 584 873 568 896 b 476 958 527 934 503 948 b 389 974 450 969 420 974 b 301 958 357 974 328 969 b 230 915 273 948 250 934 b 183 847 210 896 194 873 b 165 760 171 820 165 791 b 182 676 165 730 171 702 b 228 606 193 649 209 626 b 299 557 248 585 272 569 b 389 539 327 545 356 539 b 478 557 421 539 451 545 b 549 606 506 569 529 585 b 596 676 569 626 585 649 b 613 760 607 702 613 730 m 649 261 b 628 363 649 298 642 332 b 573 444 615 394 597 421 b 490 497 549 466 522 484 b 389 515 459 509 425 515 b 288 497 353 515 319 509 b 205 444 256 484 228 466 b 149 363 181 421 163 394 b 129 261 136 332 129 298 b 148 163 129 226 135 193 b 201 83 160 132 178 105 b 283 29 223 60 251 42 b 389 10 315 16 350 10 b 495 29 428 10 463 16 b 577 83 527 42 554 60 b 630 163 600 105 617 132 b 649 261 642 193 649 226 "},"9":{"ha":778,"x_min":0,"x_max":0,"o":"m 681 707 b 661 594 681 671 674 633 b 597 456 648 554 627 508 l 336 0 l 300 0 l 597 508 l 594 510 b 501 439 570 480 539 456 b 378 413 462 421 421 413 b 267 434 338 413 301 420 b 178 495 232 448 203 469 b 119 588 153 522 133 553 b 97 707 104 624 97 663 b 119 825 97 750 104 789 b 179 918 133 861 153 892 b 272 978 205 944 236 964 b 390 1000 308 993 348 1000 b 508 978 433 1000 472 993 b 599 919 543 964 574 944 b 659 826 625 893 645 863 b 681 707 673 790 681 750 m 650 707 b 631 814 650 746 644 781 b 576 898 618 846 600 874 b 494 953 553 922 526 940 b 389 974 462 967 427 974 b 284 953 351 974 316 967 b 201 898 252 940 225 922 b 147 814 178 874 160 846 b 128 707 134 781 128 746 b 147 599 128 668 134 632 b 199 515 159 566 177 538 b 280 459 222 491 249 472 b 382 439 311 446 345 439 b 485 459 418 439 452 446 b 570 515 517 472 546 491 b 628 599 595 538 614 566 b 650 707 643 632 650 668 "},"\u0000":{"ha":694,"x_min":0,"x_max":0,"o":""},"\r":{"ha":0,"x_min":0,"x_max":0,"o":""}," ":{"ha":347,"x_min":0,"x_max":0,"o":""},"!":{"ha":383,"x_min":0,"x_max":0,"o":"m 192 63 b 213 53 199 63 206 59 b 224 26 220 46 224 38 b 214 1 224 16 220 8 b 192 -8 207 -5 200 -8 b 169 1 183 -8 176 -5 b 160 26 163 8 160 16 b 169 53 160 38 163 46 b 192 63 176 59 183 63 m 176 271 l 176 983 l 207 983 l 207 271 "},"\"":{"ha":561,"x_min":0,"x_max":0,"o":"m 165 983 l 196 983 l 196 667 l 165 667 m 365 983 l 396 983 l 396 667 l 365 667 "},"#":{"ha":764,"x_min":0,"x_max":0,"o":"m 489 357 l 644 357 l 644 333 l 486 333 l 444 0 l 418 0 l 460 333 l 221 333 l 179 0 l 153 0 l 194 333 l 40 333 l 40 357 l 197 357 l 235 629 l 81 629 l 81 653 l 238 653 l 279 983 l 306 983 l 263 653 l 501 653 l 544 983 l 571 983 l 528 653 l 683 653 l 683 629 l 525 629 m 225 357 l 463 357 l 499 629 l 261 629 "},"$":{"ha":778,"x_min":0,"x_max":0,"o":"m 354 -117 l 354 -18 b 197 17 296 -16 243 -5 b 76 106 150 38 110 68 l 100 126 b 217 41 133 89 172 61 b 354 8 262 21 308 10 l 354 485 b 249 524 316 497 281 510 b 167 576 217 539 190 556 b 113 649 144 597 126 621 b 94 750 101 676 94 710 b 114 848 94 786 101 819 b 168 924 127 877 145 902 b 250 975 191 945 219 962 b 354 1000 281 988 316 996 l 354 1100 l 385 1100 l 385 1001 b 535 976 438 1001 488 993 b 650 893 581 959 619 931 l 626 872 b 525 948 600 905 567 930 b 385 975 483 966 437 975 l 385 506 b 496 465 425 493 462 479 b 585 415 530 451 560 434 b 646 342 611 395 631 371 b 668 240 661 314 668 280 b 647 133 668 200 661 165 b 587 53 632 102 612 75 b 497 3 561 32 531 15 b 385 -18 462 -9 425 -16 l 385 -117 m 385 8 b 482 26 419 9 451 15 b 563 72 513 38 539 53 b 617 144 586 92 604 116 b 638 242 631 173 638 206 b 616 333 638 278 630 308 b 559 398 602 358 583 380 b 478 443 535 416 508 431 b 385 476 447 455 416 466 l 385 8 m 354 972 b 269 951 325 969 296 963 b 196 907 241 940 217 925 b 144 840 175 888 157 866 b 125 749 131 813 125 783 b 144 657 125 713 131 682 b 196 592 157 632 175 610 b 269 547 217 574 241 559 b 354 515 296 535 325 525 l 354 972 "},"%":{"ha":1139,"x_min":0,"x_max":0,"o":"m 508 772 b 491 685 508 741 503 712 b 444 615 479 658 464 635 b 374 569 424 596 401 581 b 290 553 348 558 320 553 b 206 569 261 553 233 558 b 138 615 180 581 157 596 b 91 685 118 635 103 658 b 74 772 79 712 74 741 b 91 858 74 803 79 831 b 138 928 103 885 118 909 b 206 976 157 948 180 964 b 290 993 233 987 261 993 b 374 976 320 993 348 987 b 444 928 401 964 424 948 b 491 858 464 909 479 885 b 508 772 503 831 508 803 m 478 772 b 463 848 478 799 473 824 b 423 910 453 872 440 892 b 363 951 406 927 386 941 b 290 967 341 962 316 967 b 217 951 264 967 240 962 b 158 910 195 941 175 927 b 119 848 142 892 128 872 b 104 772 109 824 104 799 b 119 696 104 744 109 719 b 158 635 128 673 142 652 b 217 594 175 617 195 603 b 290 579 240 584 264 579 b 363 594 316 579 341 584 b 423 635 386 603 406 617 b 463 696 440 652 453 673 b 478 772 473 719 478 744 m 1065 208 b 1048 121 1065 177 1059 148 b 1001 51 1036 94 1021 71 b 931 6 981 32 958 17 b 847 -11 905 -6 877 -11 b 763 6 818 -11 790 -6 b 694 51 737 17 714 32 b 648 121 675 71 659 94 b 631 208 636 148 631 177 b 648 294 631 239 636 268 b 694 365 659 321 675 345 b 763 412 714 384 737 400 b 847 429 790 423 818 429 b 931 412 877 429 905 423 b 1001 365 958 400 981 384 b 1048 294 1021 345 1036 321 b 1065 208 1059 268 1065 239 m 1035 208 b 1020 284 1035 235 1030 260 b 980 346 1010 308 997 328 b 920 388 963 363 943 377 b 847 403 897 398 873 403 b 774 388 821 403 797 398 b 715 346 752 377 732 363 b 676 284 699 328 685 308 b 661 208 666 260 661 235 b 676 132 661 181 666 155 b 715 71 685 109 699 88 b 774 30 732 53 752 40 b 847 15 797 20 821 15 b 920 30 873 15 897 20 b 980 71 943 40 963 53 b 1020 132 997 88 1010 109 b 1035 208 1030 155 1035 181 m 249 -22 l 860 1022 l 882 1007 l 271 -37 "},"&":{"ha":978,"x_min":0,"x_max":0,"o":"m 696 172 b 556 25 654 107 607 58 b 382 -25 504 -8 446 -25 b 273 -6 343 -25 307 -19 b 185 48 239 6 210 24 b 126 134 160 72 140 100 b 104 249 111 168 104 206 b 122 345 104 285 110 317 b 171 423 133 373 150 399 b 247 488 192 447 218 468 b 344 546 277 507 309 526 b 282 621 319 574 299 599 b 242 683 265 643 252 664 b 220 740 231 703 224 722 b 214 797 216 759 214 778 b 231 883 214 829 219 857 b 276 950 242 909 257 931 b 344 993 295 969 317 983 b 429 1008 370 1003 399 1008 b 510 993 458 1008 485 1003 b 576 951 536 983 558 969 b 619 890 594 934 608 913 b 635 814 629 866 635 841 b 617 726 635 781 629 751 b 566 656 605 700 588 677 b 488 596 544 634 518 614 b 390 539 458 577 425 558 l 689 218 l 849 513 l 883 513 l 711 200 l 897 0 l 857 0 m 604 808 b 590 880 604 834 600 858 b 552 935 581 902 568 920 b 495 971 536 951 517 963 b 426 983 473 979 450 983 b 356 969 401 983 378 979 b 298 931 333 960 314 947 b 259 873 282 915 269 896 b 244 799 249 850 244 825 b 278 678 244 754 256 714 b 372 557 301 642 332 601 b 465 610 406 575 436 592 b 538 665 493 627 517 646 b 587 729 559 685 575 706 b 604 808 598 752 604 779 m 364 525 b 277 476 333 510 304 494 b 204 415 250 458 225 438 b 153 340 183 393 166 368 b 135 249 141 313 135 282 b 155 146 135 211 141 176 b 210 68 168 115 187 89 b 290 19 233 47 260 30 b 389 1 321 7 354 1 b 552 54 448 1 503 19 b 675 194 602 89 643 136 l 364 525 "},"'":{"ha":361,"x_min":0,"x_max":0,"o":"m 165 983 l 196 983 l 196 667 l 165 667 "},"(":{"ha":417,"x_min":0,"x_max":0,"o":"m 103 400 b 115 567 103 456 107 511 b 151 729 124 622 135 676 b 207 881 166 782 185 833 b 282 1017 229 930 254 975 l 310 1003 b 235 873 282 965 257 922 b 180 720 214 824 195 773 b 145 558 165 667 153 613 b 133 400 137 503 133 450 b 145 242 133 350 137 297 b 180 80 153 187 165 133 b 235 -73 195 27 214 -24 b 310 -203 257 -122 282 -165 l 282 -217 b 207 -81 254 -175 229 -130 b 151 71 185 -33 166 18 b 115 233 135 124 124 178 b 103 400 107 289 103 344 "},")":{"ha":417,"x_min":0,"x_max":0,"o":"m 311 400 b 299 233 311 344 307 289 b 263 71 290 178 278 124 b 207 -81 248 18 229 -33 b 132 -217 185 -130 160 -175 l 104 -203 b 178 -73 132 -165 157 -122 b 234 80 200 -24 219 27 b 269 242 249 133 261 187 b 281 400 277 297 281 350 b 269 558 281 450 277 503 b 234 720 261 613 249 667 b 178 873 219 773 200 824 b 104 1003 157 922 132 965 l 132 1017 b 207 881 160 975 185 930 b 263 729 229 833 248 782 b 299 567 278 676 290 622 b 311 400 307 511 311 456 "},"*":{"ha":617,"x_min":0,"x_max":0,"o":"m 556 794 l 326 725 l 468 528 l 449 514 l 308 713 l 168 514 l 149 528 l 290 725 l 61 794 l 69 818 l 296 746 l 296 983 l 321 983 l 321 746 l 547 818 "},"+":{"ha":925,"x_min":0,"x_max":0,"o":"m 450 90 l 450 410 l 139 410 l 139 436 l 450 436 l 450 756 l 479 756 l 479 436 l 786 436 l 786 410 l 479 410 l 479 90 "},",":{"ha":333,"x_min":0,"x_max":0,"o":"m 99 -192 l 178 125 l 211 125 l 122 -192 "},"-":{"ha":417,"x_min":0,"x_max":0,"o":"m 83 367 l 333 367 l 333 339 l 83 339 "},".":{"ha":333,"x_min":0,"x_max":0,"o":"m 167 -8 b 144 1 158 -8 151 -5 b 135 28 138 8 135 17 b 144 53 135 38 138 46 b 167 63 151 59 158 63 b 189 53 175 63 182 59 b 199 28 195 46 199 38 b 188 1 199 17 195 8 b 167 -8 181 -5 174 -8 "},"/":{"ha":514,"x_min":0,"x_max":0,"o":"m 32 -11 l 458 1013 l 485 1003 l 58 -21 "},":":{"ha":389,"x_min":0,"x_max":0,"o":"m 194 568 b 172 578 186 568 179 571 b 163 604 166 584 163 593 b 172 629 163 614 166 623 b 194 639 179 636 186 639 b 217 629 203 639 210 636 b 226 604 223 623 226 614 b 216 578 226 593 223 584 b 194 568 209 571 202 568 m 194 -8 b 172 1 186 -8 179 -5 b 163 28 166 8 163 17 b 172 53 163 38 166 46 b 194 63 179 59 186 63 b 217 53 203 63 210 59 b 226 28 223 46 226 38 b 216 1 226 17 223 8 b 194 -8 209 -5 202 -8 "},";":{"ha":389,"x_min":0,"x_max":0,"o":"m 194 568 b 172 578 186 568 179 571 b 163 604 166 584 163 593 b 172 629 163 614 166 623 b 194 639 179 636 186 639 b 217 629 203 639 210 636 b 226 604 223 623 226 614 b 216 578 226 593 223 584 b 194 568 209 571 202 568 m 113 -192 l 192 125 l 225 125 l 136 -192 "},"<":{"ha":925,"x_min":0,"x_max":0,"o":"m 139 438 l 786 749 l 786 721 l 156 421 l 786 121 l 786 93 l 139 404 "},"=":{"ha":925,"x_min":0,"x_max":0,"o":"m 139 554 l 786 554 l 786 528 l 139 528 m 139 317 l 786 317 l 786 290 l 139 290 "},">":{"ha":925,"x_min":0,"x_max":0,"o":"m 769 421 l 139 721 l 139 749 l 786 438 l 786 404 l 139 93 l 139 121 "},"?":{"ha":656,"x_min":0,"x_max":0,"o":"m 335 63 b 356 53 342 63 349 59 b 367 26 363 46 367 38 b 357 1 367 16 363 8 b 335 -8 350 -5 343 -8 b 313 1 326 -8 319 -5 b 303 26 306 8 303 16 b 313 53 303 38 306 46 b 335 63 319 59 326 63 m 317 278 l 317 351 b 320 397 317 366 318 381 b 334 445 322 413 327 429 b 363 494 341 461 351 478 b 413 542 376 510 392 526 l 460 583 b 498 622 474 596 486 609 b 528 662 509 634 520 647 b 549 710 537 676 544 692 b 557 772 554 727 557 748 b 540 861 557 806 551 835 b 492 926 528 887 512 909 b 420 966 471 944 447 957 b 333 979 393 975 364 979 b 178 923 269 979 218 960 b 103 779 138 885 113 838 l 74 785 b 164 951 87 857 117 912 b 336 1008 211 989 269 1008 b 433 993 370 1008 403 1003 b 514 948 464 983 491 968 b 568 874 537 928 555 903 b 588 774 581 845 588 812 b 577 697 588 744 584 718 b 549 638 570 675 561 655 b 510 591 538 621 525 605 b 463 549 495 577 479 563 b 404 495 438 529 419 511 b 369 448 389 479 378 463 b 352 399 361 433 355 416 b 347 339 349 381 347 361 l 347 278 "},"@":{"ha":1111,"x_min":0,"x_max":0,"o":"m 1056 576 b 1038 436 1056 526 1050 480 b 985 324 1025 393 1008 355 b 901 249 963 292 934 267 b 785 222 867 231 828 222 b 698 251 750 222 721 232 b 672 346 675 271 667 302 l 669 346 b 641 303 662 332 653 318 b 600 263 629 288 616 275 b 547 234 584 252 566 242 b 482 222 527 226 505 222 b 410 238 454 222 430 227 b 361 277 391 248 374 261 b 333 333 348 293 339 312 b 324 399 327 355 324 376 b 343 525 324 439 330 481 b 399 644 356 569 375 608 b 486 733 423 681 452 710 b 600 768 520 756 558 768 b 701 734 643 768 676 757 b 744 642 725 711 740 681 l 750 642 l 778 743 l 807 743 l 713 414 b 703 371 709 401 706 387 b 699 331 700 355 699 342 b 724 268 699 301 707 280 b 785 250 740 256 761 250 b 894 278 827 250 864 259 b 969 351 925 296 950 321 b 1013 456 989 382 1003 417 b 1026 576 1022 494 1026 535 b 992 738 1026 635 1015 689 b 898 867 970 788 938 831 b 756 953 858 904 810 932 b 578 983 701 973 642 983 b 384 943 507 983 443 970 b 232 835 325 916 275 880 b 132 678 189 789 156 737 b 96 493 108 619 96 557 b 131 302 96 425 108 362 b 231 145 155 242 188 190 b 386 39 274 100 326 65 b 585 0 446 13 513 0 b 806 52 664 0 738 17 b 976 185 874 87 931 131 l 997 167 b 817 25 947 107 887 60 b 585 -28 746 -10 669 -28 b 372 13 507 -28 436 -14 b 208 125 308 41 254 78 b 103 290 163 172 128 227 b 65 493 78 353 65 421 b 105 696 65 565 78 633 b 214 860 131 759 168 814 b 376 971 260 907 314 944 b 578 1011 438 998 506 1011 b 769 978 647 1011 711 1000 b 921 888 828 957 878 926 b 1020 749 963 849 997 803 b 1056 576 1044 696 1056 638 m 726 600 b 719 653 726 619 724 636 b 696 699 714 671 706 686 b 657 729 686 712 673 722 b 600 740 641 737 622 740 b 496 707 561 740 526 729 b 419 623 465 685 440 657 b 371 512 398 589 382 552 b 354 397 360 472 354 433 b 387 292 354 356 365 321 b 489 250 409 264 443 250 b 592 291 528 250 562 264 b 666 388 621 318 646 351 b 711 503 686 426 701 464 b 726 600 721 543 726 575 "},"A":{"ha":925,"x_min":0,"x_max":0,"o":"m 750 282 l 179 282 l 58 0 l 25 0 l 451 983 l 490 983 l 900 0 l 867 0 m 190 308 l 740 308 l 469 964 "},"B":{"ha":850,"x_min":0,"x_max":0,"o":"m 765 263 b 735 133 765 210 755 166 b 659 53 716 99 690 72 b 556 12 628 33 594 20 b 449 0 519 4 483 0 l 147 0 l 147 983 l 415 983 b 526 972 452 983 489 980 b 624 935 562 965 595 952 b 693 864 652 917 675 894 b 719 751 711 834 719 797 b 703 660 719 716 714 686 b 658 593 692 634 677 612 b 593 548 639 575 617 559 b 519 522 569 536 544 528 l 519 519 b 600 499 544 517 571 510 b 680 453 629 489 655 473 b 741 375 704 432 725 406 b 765 263 757 344 765 306 m 689 747 b 665 847 689 787 681 820 b 603 911 650 874 629 895 b 513 945 577 927 547 938 b 407 956 479 952 444 956 l 178 956 l 178 532 l 414 532 b 513 544 447 532 480 536 b 601 583 546 553 575 566 b 665 649 627 600 648 622 b 689 747 681 677 689 709 m 735 258 b 708 372 735 303 726 341 b 639 449 690 404 667 429 b 547 491 611 468 581 482 b 450 504 514 500 481 504 l 178 504 l 178 28 l 435 28 b 554 41 477 28 517 32 b 649 82 591 50 623 63 b 712 153 676 100 697 124 b 735 258 727 183 735 218 "},"C":{"ha":1006,"x_min":0,"x_max":0,"o":"m 953 121 b 795 9 911 71 859 34 b 601 -28 732 -16 667 -28 b 399 11 527 -28 460 -15 b 240 119 338 37 285 73 b 137 283 196 165 161 219 b 100 492 112 347 100 417 b 137 700 100 567 112 636 b 240 865 161 764 196 819 b 399 972 285 910 338 946 b 601 1011 461 998 528 1011 b 780 980 663 1011 722 1001 b 928 885 838 959 887 927 l 908 863 b 842 916 889 883 867 901 b 765 954 818 931 792 944 b 682 976 737 964 710 972 b 601 983 654 981 627 983 b 409 945 531 983 467 971 b 260 840 351 920 302 885 b 165 684 219 796 187 744 b 131 492 142 624 131 560 b 164 299 131 423 142 359 b 259 143 186 240 218 188 b 408 38 300 99 350 64 b 601 0 466 13 530 0 b 783 35 663 0 723 12 b 931 142 842 59 892 94 l 953 121 l 953 121 "},"D":{"ha":1069,"x_min":0,"x_max":0,"o":"m 969 492 b 928 272 969 406 956 333 b 813 119 900 210 862 159 b 640 29 763 78 706 49 b 426 0 573 10 502 0 l 147 0 l 147 983 l 426 983 b 640 955 502 983 573 974 b 813 866 706 936 763 906 b 928 713 862 826 900 775 b 969 492 956 650 969 577 m 179 28 l 419 28 b 623 55 492 28 559 37 b 788 138 686 73 741 101 b 897 282 834 176 870 224 b 938 492 924 340 938 410 b 897 702 938 573 924 643 b 788 847 870 761 834 809 b 623 929 741 884 686 912 b 419 956 559 947 492 956 l 179 956 "},"E":{"ha":819,"x_min":0,"x_max":0,"o":"m 147 983 l 719 983 l 719 956 l 176 956 l 176 524 l 688 524 l 688 496 l 176 496 l 176 28 l 742 28 l 742 0 l 147 0 "},"F":{"ha":778,"x_min":0,"x_max":0,"o":"m 178 524 l 671 524 l 671 496 l 178 496 l 178 0 l 147 0 l 147 983 l 708 983 l 708 956 l 178 956 "},"G":{"ha":1104,"x_min":0,"x_max":0,"o":"m 971 57 b 824 -1 932 36 883 16 b 618 -28 764 -19 696 -28 b 406 13 540 -28 469 -14 b 242 123 342 39 287 76 b 137 288 196 170 161 225 b 100 494 112 352 100 420 b 138 701 100 569 113 637 b 242 865 163 764 197 819 b 404 972 287 910 341 946 b 613 1011 467 998 537 1011 b 796 981 679 1011 740 1001 b 943 897 851 960 900 932 l 921 875 b 856 922 902 893 881 908 b 778 956 832 935 806 946 b 694 976 751 965 723 972 b 611 983 666 981 638 983 b 414 945 539 983 473 971 b 262 840 355 920 304 885 b 165 685 220 796 187 744 b 131 494 142 625 131 562 b 164 303 131 427 142 363 b 260 145 186 243 218 190 b 415 39 303 100 354 65 b 621 0 475 13 544 0 b 799 21 688 0 747 7 b 942 74 850 35 898 52 l 942 460 l 686 460 l 686 486 l 971 486 l 971 57 l 971 57 "},"H":{"ha":1017,"x_min":0,"x_max":0,"o":"m 839 494 l 178 494 l 178 0 l 147 0 l 147 983 l 178 983 l 178 522 l 839 522 l 839 983 l 869 983 l 869 0 l 839 0 "},"I":{"ha":325,"x_min":0,"x_max":0,"o":"m 147 983 l 178 983 l 178 0 l 147 0 "},"J":{"ha":667,"x_min":0,"x_max":0,"o":"m 525 268 b 462 53 525 177 504 106 b 274 -25 420 1 357 -25 b 125 20 215 -25 166 -10 b 40 129 84 50 56 87 l 67 142 b 149 41 85 100 113 66 b 274 3 185 16 226 3 b 375 23 313 3 347 9 b 443 79 403 36 425 55 b 482 165 461 103 474 132 b 494 272 490 197 494 233 l 494 983 l 525 983 l 525 268 l 525 268 "},"K":{"ha":785,"x_min":0,"x_max":0,"o":"m 674 983 l 718 983 l 218 532 l 743 0 l 700 0 l 179 529 l 178 529 l 178 0 l 147 0 l 147 983 l 178 983 l 178 532 l 179 532 "},"L":{"ha":692,"x_min":0,"x_max":0,"o":"m 147 983 l 178 983 l 178 28 l 667 28 l 667 0 l 147 0 "},"M":{"ha":1258,"x_min":0,"x_max":0,"o":"m 1081 949 l 1075 949 l 640 0 l 615 0 l 182 949 l 178 949 l 178 0 l 147 0 l 147 983 l 201 983 l 629 44 l 1057 983 l 1111 983 l 1111 0 l 1081 0 "},"N":{"ha":1079,"x_min":0,"x_max":0,"o":"m 182 944 l 178 944 l 178 0 l 147 0 l 147 983 l 190 983 l 897 40 l 901 40 l 901 983 l 932 983 l 932 0 l 888 0 "},"O":{"ha":1211,"x_min":0,"x_max":0,"o":"m 1111 492 b 1073 283 1111 416 1098 346 b 967 119 1047 219 1012 165 b 807 11 922 73 869 37 b 606 -28 745 -15 678 -28 b 404 11 533 -28 466 -15 b 244 119 342 37 289 73 b 138 283 199 165 164 219 b 100 492 113 346 100 416 b 138 701 100 568 113 637 b 244 865 164 764 199 819 b 403 972 289 910 342 946 b 606 1011 465 998 532 1011 b 808 972 679 1011 746 998 b 967 865 869 946 922 910 b 1073 701 1012 819 1047 764 b 1111 492 1098 637 1111 568 m 1081 492 b 1046 684 1081 560 1069 624 b 948 840 1023 744 990 796 b 797 945 906 885 856 920 b 606 983 739 971 675 983 b 414 945 536 983 472 971 b 263 840 356 920 305 885 b 165 684 221 796 188 744 b 131 492 142 624 131 560 b 165 299 131 423 142 359 b 261 143 187 240 219 188 b 411 38 303 99 353 64 b 606 0 469 13 534 0 b 800 38 677 0 742 13 b 950 143 858 64 908 99 b 1047 299 992 188 1024 240 b 1081 492 1069 359 1081 423 "},"P":{"ha":794,"x_min":0,"x_max":0,"o":"m 718 739 b 695 628 718 697 710 660 b 633 549 680 597 659 570 b 542 500 607 527 577 511 b 432 483 508 489 471 483 l 178 483 l 178 0 l 147 0 l 147 983 l 414 983 b 521 972 449 983 485 979 b 619 932 557 964 590 950 b 690 857 648 913 672 888 b 718 739 709 825 718 786 m 688 739 b 664 843 688 781 680 815 b 603 910 648 871 628 893 b 519 946 578 926 550 938 b 426 957 488 953 457 957 l 178 957 l 178 510 l 433 510 b 525 522 464 510 494 514 b 607 563 556 531 583 544 b 665 634 631 581 650 605 b 688 739 680 663 688 698 "},"Q":{"ha":1226,"x_min":0,"x_max":0,"o":"m 1111 501 b 1085 341 1111 447 1102 393 b 1011 199 1067 289 1043 241 b 901 90 980 156 943 120 b 764 31 859 61 813 41 l 764 28 l 1164 28 l 1164 0 l 603 0 b 408 35 534 0 469 12 b 248 137 347 59 294 93 b 140 295 202 181 166 234 b 100 501 113 357 100 425 b 138 706 100 575 113 644 b 244 867 164 769 199 822 b 403 973 289 912 342 947 b 606 1011 465 998 532 1011 b 808 972 679 1011 746 998 b 967 865 869 946 922 911 b 1073 704 1012 820 1047 766 b 1111 501 1098 642 1111 575 m 1081 501 b 1046 688 1081 567 1069 629 b 948 841 1023 746 990 797 b 797 945 906 885 856 920 b 606 983 739 971 675 983 b 414 946 536 983 472 971 b 263 843 356 921 305 887 b 165 690 221 800 188 748 b 131 501 142 631 131 568 b 166 317 131 436 142 374 b 265 166 190 259 222 209 b 415 65 307 123 357 89 b 607 28 474 40 538 28 b 803 67 679 28 744 41 b 952 173 861 94 911 129 b 1047 324 993 217 1025 267 b 1081 501 1069 381 1081 440 "},"R":{"ha":825,"x_min":0,"x_max":0,"o":"m 408 496 l 178 496 l 178 0 l 147 0 l 147 983 l 419 983 b 529 974 456 983 492 980 b 628 937 566 967 599 955 b 700 863 658 919 681 894 b 728 740 719 831 728 790 b 701 625 728 694 719 656 b 633 551 684 594 661 570 b 541 510 606 532 575 518 b 442 497 507 501 474 497 l 740 0 l 706 0 m 697 740 b 672 847 697 783 689 818 b 606 913 656 875 634 897 b 512 947 579 929 547 941 b 403 957 476 954 440 957 l 178 957 l 178 522 l 418 522 b 626 579 509 522 578 541 b 697 740 673 617 697 671 "},"S":{"ha":792,"x_min":0,"x_max":0,"o":"m 692 236 b 667 124 692 194 684 157 b 603 41 651 91 630 64 b 508 -10 576 18 544 1 b 393 -28 471 -22 433 -28 b 226 5 332 -28 276 -17 b 100 93 175 27 133 56 l 124 114 b 247 28 159 76 200 47 b 392 0 293 9 342 0 b 494 16 428 0 462 5 b 581 62 527 27 556 42 b 640 135 606 82 625 106 b 661 236 654 165 661 198 b 638 332 661 274 653 306 b 576 399 622 358 601 380 b 491 445 551 417 523 433 b 394 479 459 458 427 469 b 283 520 354 492 316 506 b 195 573 249 534 220 552 b 138 648 171 594 152 619 b 118 754 125 677 118 713 b 142 863 118 795 126 831 b 208 944 159 895 181 922 b 305 994 236 966 268 982 b 421 1011 341 1005 380 1011 b 563 983 471 1011 518 1002 b 674 901 608 964 645 937 l 650 881 b 551 956 624 913 591 938 b 419 983 510 974 467 983 b 322 969 386 983 353 979 b 235 927 290 960 261 946 b 172 856 209 908 188 884 b 149 754 156 827 149 793 b 169 658 149 716 156 684 b 225 590 183 631 202 609 b 303 544 248 572 274 556 b 393 511 333 532 363 521 b 510 469 435 497 474 483 b 605 417 546 454 578 437 b 669 342 632 396 653 372 b 692 236 684 313 692 278 "},"T":{"ha":750,"x_min":0,"x_max":0,"o":"m 390 0 l 360 0 l 360 956 l 25 956 l 25 983 l 725 983 l 725 956 l 390 956 "},"U":{"ha":1017,"x_min":0,"x_max":0,"o":"m 883 372 b 864 216 883 317 877 265 b 800 89 851 167 830 125 b 684 3 770 53 732 24 b 508 -28 636 -17 578 -28 b 333 3 439 -28 380 -17 b 217 89 285 24 246 53 b 153 216 187 125 166 167 b 133 372 140 265 133 317 l 133 983 l 164 983 l 164 378 b 176 253 164 339 168 297 b 224 131 184 209 200 169 b 328 38 249 94 284 63 b 508 0 373 13 433 0 b 685 36 581 0 641 12 b 790 128 730 60 765 91 b 840 251 815 166 832 207 b 853 378 849 295 853 337 l 853 983 l 883 983 l 883 372 l 883 372 "},"V":{"ha":842,"x_min":0,"x_max":0,"o":"m 394 0 l 25 983 l 58 983 l 417 28 l 419 28 l 783 983 l 817 983 l 442 0 "},"W":{"ha":1328,"x_min":0,"x_max":0,"o":"m 947 0 l 663 954 l 660 954 l 381 0 l 333 0 l 39 983 l 71 983 l 354 28 l 358 28 l 638 983 l 685 983 l 969 28 l 974 28 l 1257 983 l 1289 983 l 994 0 "},"X":{"ha":819,"x_min":0,"x_max":0,"o":"m 410 492 l 81 0 l 44 0 l 392 515 l 78 983 l 114 983 l 410 539 l 706 983 l 740 983 l 428 515 l 775 0 l 738 0 "},"Y":{"ha":747,"x_min":0,"x_max":0,"o":"m 389 0 l 358 0 l 358 431 l 21 983 l 57 983 l 375 461 l 692 983 l 726 983 l 389 431 "},"Z":{"ha":825,"x_min":0,"x_max":0,"o":"m 75 38 l 722 956 l 93 956 l 93 983 l 750 983 l 750 943 l 104 28 l 767 28 l 767 0 l 75 0 "},"[":{"ha":417,"x_min":0,"x_max":0,"o":"m 111 1017 l 306 1017 l 306 990 l 142 990 l 142 -190 l 306 -190 l 306 -217 l 111 -217 "},"\\":{"ha":514,"x_min":0,"x_max":0,"o":"m 485 -11 l 458 -21 l 32 1003 l 58 1013 "},"]":{"ha":417,"x_min":0,"x_max":0,"o":"m 275 -190 l 275 990 l 111 990 l 111 1017 l 306 1017 l 306 -217 l 111 -217 l 111 -190 "},"^":{"ha":925,"x_min":0,"x_max":0,"o":"m 479 983 l 790 336 l 763 336 l 463 967 l 163 336 l 135 336 l 446 983 "},"_":{"ha":694,"x_min":0,"x_max":0,"o":"m 0 -131 l 694 -131 l 694 -158 l 0 -158 "},"`":{"ha":333,"x_min":0,"x_max":0,"o":"m 208 783 l 182 783 l 28 983 l 65 983 "},"a":{"ha":711,"x_min":0,"x_max":0,"o":"m 581 144 b 584 67 581 120 582 95 b 592 0 586 40 589 18 l 563 0 b 558 34 561 9 559 21 b 555 76 557 47 556 61 b 552 118 553 90 553 104 b 551 153 552 132 551 144 l 547 153 b 451 23 529 94 497 51 b 306 -19 406 -5 357 -19 b 228 -8 280 -19 254 -16 b 160 25 203 -1 180 10 b 110 82 139 40 123 59 b 92 164 98 105 92 132 b 127 274 92 209 103 246 b 215 338 151 301 180 323 b 328 368 250 353 288 363 b 439 375 369 373 406 375 l 550 375 l 550 426 b 493 583 550 498 531 550 b 344 632 455 616 406 632 b 238 611 306 632 271 625 b 150 556 205 597 176 579 l 133 579 b 234 638 163 605 197 625 b 344 658 272 652 308 658 b 517 602 418 658 475 640 b 581 425 559 565 581 506 l 581 144 m 451 349 b 340 342 416 349 379 347 b 233 317 301 338 266 330 b 153 261 201 304 174 285 b 122 164 133 237 122 205 b 140 90 122 134 128 109 b 184 42 151 70 166 54 b 244 15 202 30 222 21 b 306 7 266 10 286 7 b 424 33 353 7 392 16 b 499 101 455 51 480 73 b 539 191 518 128 531 158 b 550 288 546 224 550 256 l 550 349 "},"b":{"ha":869,"x_min":0,"x_max":0,"o":"m 176 465 b 295 610 204 529 244 577 b 464 658 347 642 403 658 b 594 633 511 658 554 650 b 695 562 633 616 667 592 b 760 454 723 532 745 496 b 783 318 776 413 783 367 b 760 184 783 270 775 225 b 694 77 744 143 722 107 b 592 6 666 47 632 23 b 464 -19 553 -11 510 -19 b 374 -7 433 -19 403 -15 b 293 30 345 1 318 14 b 225 90 268 46 245 66 b 176 172 205 113 188 141 l 172 172 l 172 0 l 142 0 l 142 1050 l 172 1050 l 172 465 l 176 465 m 753 318 b 733 438 753 360 746 400 b 675 538 719 475 700 509 b 584 606 650 566 620 589 b 464 632 548 623 508 632 b 347 607 421 632 382 624 b 254 540 311 590 280 568 b 193 440 228 511 208 478 b 171 319 178 402 171 362 b 193 199 171 277 178 237 b 254 99 208 161 228 128 b 347 32 280 71 311 49 b 464 7 382 15 421 7 b 584 32 508 7 548 15 b 675 99 620 49 650 71 b 733 199 700 128 719 161 b 753 318 746 237 753 276 "},"c":{"ha":667,"x_min":0,"x_max":0,"o":"m 597 553 b 513 611 573 578 545 597 b 411 632 480 625 446 632 b 289 606 366 632 325 623 b 197 538 253 589 222 566 b 138 438 171 509 151 475 b 117 318 124 400 117 360 b 138 199 117 276 124 237 b 197 99 151 161 171 128 b 289 32 222 71 253 49 b 411 7 325 15 366 7 b 515 25 446 7 481 13 b 603 79 548 37 578 55 l 624 60 b 526 -1 596 32 563 12 b 411 -19 488 -13 450 -19 b 281 6 364 -19 321 -11 b 178 75 242 22 208 45 b 110 182 149 105 127 140 b 86 318 94 224 86 269 b 110 454 86 367 94 413 b 178 562 127 496 149 532 b 281 633 208 592 242 616 b 411 658 321 650 364 658 b 527 636 452 658 491 651 b 621 574 564 621 595 600 l 597 553 "},"d":{"ha":869,"x_min":0,"x_max":0,"o":"m 728 1050 l 728 0 l 697 0 l 697 172 l 693 172 b 574 29 665 109 626 62 b 406 -19 523 -3 467 -19 b 277 6 359 -19 316 -11 b 176 77 238 23 204 47 b 110 184 147 107 125 143 b 86 318 94 225 86 270 b 110 453 86 366 94 411 b 176 561 125 494 147 531 b 277 633 204 592 238 616 b 406 658 316 650 359 658 b 574 610 467 658 523 642 b 693 465 626 577 665 529 l 697 465 l 697 1050 m 117 318 b 137 199 117 276 123 237 b 194 99 150 161 169 128 b 285 32 219 71 250 49 b 406 7 321 15 361 7 b 523 32 448 7 487 15 b 615 99 559 49 589 71 b 676 199 641 128 662 161 b 699 319 691 237 699 277 b 676 440 699 362 691 402 b 615 540 662 478 641 511 b 523 607 589 568 559 590 b 406 632 487 624 448 632 b 285 606 361 632 321 623 b 194 538 250 589 219 566 b 137 438 169 509 150 475 b 117 318 123 400 117 360 "},"e":{"ha":772,"x_min":0,"x_max":0,"o":"m 117 326 b 134 211 117 288 122 249 b 187 109 146 173 163 139 b 276 36 210 79 240 55 b 404 8 313 18 355 8 b 538 38 454 8 499 18 b 639 125 576 58 610 87 l 661 106 b 551 13 630 65 593 34 b 404 -19 509 -9 460 -19 b 275 6 357 -19 314 -11 b 174 78 236 23 203 47 b 109 188 146 108 124 145 b 86 326 94 230 86 276 b 110 460 86 375 94 419 b 174 565 125 500 147 536 b 271 634 202 595 234 618 b 390 658 308 650 348 658 b 521 632 440 658 484 650 b 613 563 558 614 589 591 b 668 465 638 534 656 501 b 686 353 680 428 686 391 l 686 326 l 117 326 m 657 353 b 635 467 656 394 649 432 b 581 555 622 501 604 530 b 497 612 557 579 530 598 b 389 632 465 625 429 632 b 265 602 341 632 300 622 b 181 528 231 582 203 558 b 133 437 159 499 144 469 b 118 353 123 405 118 377 l 657 353 "},"f":{"ha":392,"x_min":0,"x_max":0,"o":"m 392 1035 b 364 1040 382 1037 373 1038 b 335 1042 355 1041 345 1042 b 271 1026 310 1042 288 1037 b 228 987 253 1016 239 1003 b 206 932 218 971 210 952 b 199 869 201 912 199 891 l 199 639 l 372 639 l 372 613 l 199 613 l 199 0 l 168 0 l 168 613 l 33 613 l 33 639 l 167 639 l 167 868 b 182 965 167 907 172 939 b 222 1026 192 991 205 1012 b 275 1058 238 1041 256 1052 b 333 1067 294 1064 314 1067 b 397 1058 357 1067 379 1064 l 392 1035 "},"g":{"ha":869,"x_min":0,"x_max":0,"o":"m 693 172 b 644 90 681 141 665 113 b 576 30 624 66 601 46 b 495 -7 551 14 524 1 b 406 -19 466 -15 436 -19 b 277 6 359 -19 316 -11 b 176 77 238 23 204 47 b 110 184 147 107 125 143 b 86 318 94 225 86 270 b 110 453 86 366 94 411 b 176 561 125 494 147 531 b 277 633 204 592 238 616 b 406 658 316 650 359 658 b 574 610 467 658 523 642 b 693 465 626 577 665 529 l 697 465 l 697 639 l 728 639 l 728 36 b 712 -110 728 -15 722 -63 b 659 -232 701 -156 684 -197 b 562 -316 634 -267 602 -295 b 413 -347 522 -337 472 -347 b 251 -316 352 -347 299 -337 b 131 -228 204 -295 164 -266 l 151 -207 b 272 -294 187 -247 227 -276 b 413 -321 316 -312 363 -321 b 551 -290 468 -321 514 -311 b 639 -210 588 -270 618 -243 b 684 -95 660 -176 675 -138 b 697 39 693 -52 697 -7 l 697 172 m 117 318 b 137 199 117 276 123 237 b 194 99 150 161 169 127 b 285 31 219 70 250 47 b 406 6 321 14 361 6 b 523 31 448 6 487 14 b 615 99 559 47 589 70 b 676 199 641 127 662 161 b 699 319 691 237 699 277 b 676 440 699 362 691 402 b 615 540 662 478 641 511 b 523 607 589 568 559 590 b 406 632 487 624 448 632 b 285 606 361 632 321 623 b 194 538 250 589 219 566 b 137 438 169 509 150 475 b 117 318 123 400 117 360 "},"h":{"ha":790,"x_min":0,"x_max":0,"o":"m 175 471 b 215 550 184 500 197 527 b 274 609 232 573 251 593 b 346 646 296 625 320 638 b 426 658 372 654 399 658 b 538 635 471 658 508 650 b 608 572 567 619 591 598 b 646 485 626 546 638 517 b 657 386 653 452 657 419 l 657 0 l 626 0 l 626 383 b 618 467 626 409 624 437 b 587 547 613 496 602 523 b 525 608 572 571 551 591 b 426 632 499 624 466 632 b 327 610 391 632 358 625 b 247 549 296 596 269 575 b 192 451 224 522 206 489 b 172 319 179 412 172 369 l 172 0 l 142 0 l 142 1050 l 172 1050 l 172 471 l 175 471 "},"i":{"ha":314,"x_min":0,"x_max":0,"o":"m 157 879 b 135 889 149 879 141 882 b 125 915 128 895 125 904 b 135 940 125 925 128 934 b 157 950 141 947 149 950 b 179 940 165 950 173 947 b 189 915 186 934 189 925 b 178 889 189 904 185 895 b 157 879 172 882 164 879 m 142 639 l 172 639 l 172 0 l 142 0 "},"j":{"ha":314,"x_min":0,"x_max":0,"o":"m 172 -135 b 166 -221 172 -167 170 -196 b 142 -283 162 -246 154 -267 b 94 -322 131 -300 115 -313 b 17 -335 74 -330 48 -335 b -4 -334 10 -335 3 -334 b -24 -331 -12 -334 -18 -332 l -18 -304 b 17 -308 -6 -307 6 -308 b 86 -293 46 -308 69 -303 b 124 -253 103 -283 115 -270 b 139 -199 132 -237 137 -219 b 142 -137 141 -178 142 -158 l 142 639 l 172 639 l 172 -135 m 157 879 b 135 889 149 879 141 882 b 125 915 128 895 125 904 b 135 940 125 925 128 934 b 157 950 141 947 149 950 b 179 940 165 950 173 947 b 189 915 186 934 189 925 b 178 889 189 904 185 895 b 157 879 172 882 164 879 "},"k":{"ha":618,"x_min":0,"x_max":0,"o":"m 504 639 l 547 639 l 210 343 l 586 0 l 540 0 l 174 338 l 172 338 l 172 0 l 142 0 l 142 1050 l 172 1050 l 172 344 l 174 344 "},"l":{"ha":314,"x_min":0,"x_max":0,"o":"m 142 1050 l 172 1050 l 172 0 l 142 0 "},"m":{"ha":1235,"x_min":0,"x_max":0,"o":"m 631 463 b 725 608 649 525 681 574 b 876 658 769 641 820 658 b 984 635 919 658 955 650 b 1053 572 1013 619 1036 598 b 1090 485 1071 546 1083 517 b 1101 386 1098 452 1101 419 l 1101 0 l 1071 0 l 1071 383 b 1062 467 1071 409 1068 437 b 1031 547 1056 496 1045 523 b 971 608 1016 571 996 591 b 876 632 946 624 914 632 b 783 610 843 632 812 625 b 706 549 753 596 728 575 b 654 451 684 522 667 489 b 635 319 641 412 635 369 l 635 0 l 604 0 l 604 383 b 597 467 604 409 602 437 b 568 547 591 496 582 523 b 510 608 554 571 535 591 b 417 632 486 624 455 632 b 323 610 383 632 352 625 b 247 549 294 596 268 575 b 195 451 225 522 208 489 b 176 319 183 412 176 369 l 176 0 l 146 0 l 146 478 b 145 515 146 488 146 500 b 144 560 145 530 144 545 b 142 604 143 576 143 590 b 139 639 141 618 140 630 l 169 639 b 172 604 170 630 171 618 b 173 559 172 590 172 575 b 174 512 173 543 174 527 b 175 471 175 497 175 483 l 178 471 b 217 550 187 500 200 527 b 273 609 233 573 252 593 b 341 646 294 625 316 638 b 417 658 366 654 391 658 b 503 643 450 658 479 653 b 565 601 528 633 549 619 b 606 540 582 584 595 563 b 628 463 616 516 623 490 l 631 463 "},"n":{"ha":794,"x_min":0,"x_max":0,"o":"m 178 471 b 218 550 187 500 200 527 b 278 609 236 573 256 593 b 350 646 300 625 324 638 b 431 658 376 654 403 658 b 542 635 475 658 512 650 b 613 572 571 619 595 598 b 650 485 630 546 643 517 b 661 386 657 452 661 419 l 661 0 l 631 0 l 631 383 b 622 467 631 409 628 437 b 591 547 617 496 606 523 b 529 608 576 571 555 591 b 431 632 503 624 470 632 b 331 610 395 632 362 625 b 251 549 300 596 273 575 b 197 451 228 522 210 489 b 176 319 183 412 176 369 l 176 0 l 146 0 l 146 478 b 145 515 146 488 146 500 b 144 560 145 530 144 545 b 142 604 143 576 143 590 b 139 639 141 618 140 630 l 169 639 b 172 604 170 630 171 618 b 173 559 172 590 172 575 b 174 512 173 543 174 527 b 175 471 175 497 175 483 l 178 471 l 178 471 "},"o":{"ha":840,"x_min":0,"x_max":0,"o":"m 754 321 b 730 183 754 271 746 225 b 661 76 714 142 691 106 b 555 6 631 46 596 22 b 419 -19 514 -11 469 -19 b 285 6 370 -19 325 -11 b 179 76 244 22 209 46 b 110 183 150 106 127 142 b 86 321 94 225 86 271 b 110 458 86 371 94 416 b 179 564 127 499 150 534 b 285 633 209 594 244 617 b 419 658 325 650 370 658 b 555 633 469 658 514 650 b 661 564 596 617 631 594 b 730 458 691 534 714 499 b 754 321 746 416 754 371 m 724 321 b 703 442 724 363 717 404 b 642 541 689 480 669 513 b 547 608 616 569 584 591 b 419 632 509 624 467 632 b 293 608 372 632 330 624 b 198 541 256 591 224 569 b 138 442 172 513 151 480 b 117 321 124 404 117 363 b 138 199 117 277 124 237 b 198 99 151 161 172 128 b 293 32 224 71 256 49 b 419 7 330 15 372 7 b 547 32 467 7 509 15 b 642 99 584 49 616 71 b 703 199 669 128 689 161 b 724 321 717 237 724 277 "},"p":{"ha":869,"x_min":0,"x_max":0,"o":"m 176 465 b 295 610 204 529 244 577 b 464 658 347 642 403 658 b 594 633 511 658 554 650 b 695 562 633 616 667 592 b 760 454 723 532 745 496 b 783 318 776 413 783 367 b 760 184 783 270 775 225 b 694 77 744 143 722 107 b 592 6 666 47 632 23 b 464 -19 553 -11 510 -19 b 374 -7 433 -19 403 -15 b 293 30 345 1 318 14 b 225 90 268 46 245 66 b 176 172 205 113 188 141 l 172 172 l 172 -333 l 142 -333 l 142 639 l 172 639 l 172 465 l 176 465 m 753 318 b 733 438 753 360 746 400 b 675 538 719 475 700 509 b 584 606 650 566 620 589 b 464 632 548 623 508 632 b 347 607 421 632 382 624 b 254 540 311 590 280 568 b 193 440 228 511 208 478 b 171 319 178 402 171 362 b 193 199 171 277 178 237 b 254 99 208 161 228 128 b 347 32 280 71 311 49 b 464 7 382 15 421 7 b 584 32 508 7 548 15 b 675 99 620 49 650 71 b 733 199 700 128 719 161 b 753 318 746 237 753 276 "},"q":{"ha":869,"x_min":0,"x_max":0,"o":"m 728 639 l 728 -333 l 697 -333 l 697 172 l 693 172 b 644 90 681 141 665 113 b 576 30 624 66 601 46 b 495 -7 551 14 524 1 b 406 -19 466 -15 436 -19 b 277 6 359 -19 316 -11 b 176 77 238 23 204 47 b 110 184 147 107 125 143 b 86 318 94 225 86 270 b 109 454 86 367 94 413 b 174 562 124 496 146 532 b 276 633 203 592 236 616 b 406 658 315 650 358 658 b 574 610 467 658 523 642 b 693 465 626 577 665 529 l 697 465 l 697 639 m 117 318 b 137 199 117 276 123 237 b 194 99 150 161 169 128 b 285 32 219 71 250 49 b 406 7 321 15 361 7 b 523 32 448 7 487 15 b 615 99 559 49 589 71 b 676 199 641 128 662 161 b 699 319 691 237 699 277 b 676 440 699 362 691 402 b 615 540 662 478 641 511 b 523 607 589 568 559 590 b 406 632 487 624 448 632 b 285 606 361 632 321 623 b 194 538 250 589 219 566 b 137 438 169 509 150 475 b 117 318 123 400 117 360 "},"r":{"ha":440,"x_min":0,"x_max":0,"o":"m 178 471 b 267 615 196 538 226 585 b 399 658 307 644 351 658 l 411 658 b 424 657 415 658 419 658 l 424 631 b 413 632 420 631 416 632 l 406 632 b 301 605 365 632 330 623 b 231 534 273 587 249 563 b 190 437 212 505 198 472 b 176 331 181 401 176 366 l 176 0 l 146 0 l 146 478 b 145 515 146 488 146 500 b 144 560 145 530 144 545 b 142 604 143 576 143 590 b 139 639 141 618 140 630 l 169 639 b 172 604 170 630 171 618 b 173 559 172 590 172 575 b 174 512 173 543 174 527 b 175 471 175 497 175 483 l 178 471 l 178 471 "},"s":{"ha":576,"x_min":0,"x_max":0,"o":"m 501 167 b 485 90 501 138 496 112 b 440 32 474 67 459 48 b 374 -4 421 16 399 4 b 293 -17 349 -12 322 -17 b 165 10 246 -17 203 -8 b 69 90 126 28 94 55 l 94 107 b 294 10 141 42 207 10 b 356 19 315 10 335 13 b 413 49 377 26 396 36 b 455 97 430 62 444 78 b 471 164 466 117 471 139 b 451 236 471 194 464 218 b 400 281 437 255 420 269 b 333 308 380 292 357 301 b 264 326 308 315 285 321 b 199 348 241 333 219 340 b 145 378 178 356 160 366 b 109 425 130 391 118 406 b 96 494 100 444 96 467 b 113 567 96 522 101 546 b 157 617 124 587 138 604 b 220 648 175 631 197 641 b 292 658 244 655 268 658 b 488 565 379 658 444 627 l 461 550 b 389 612 440 578 416 598 b 292 632 362 625 330 632 b 236 625 274 632 256 630 b 183 602 217 620 199 613 b 142 560 166 591 153 577 b 126 496 132 542 126 521 b 140 429 126 468 131 446 b 176 389 148 413 161 399 b 233 363 192 379 211 370 b 307 343 256 356 280 350 b 380 320 332 337 356 329 b 442 288 403 311 424 300 b 485 239 460 275 475 258 b 501 167 496 219 501 195 "},"t":{"ha":422,"x_min":0,"x_max":0,"o":"m 389 -1 b 350 -12 378 -6 365 -10 b 307 -17 335 -15 321 -17 b 199 26 257 -17 221 -3 b 167 132 178 54 167 89 l 167 613 l 28 613 l 28 639 l 165 639 l 165 826 l 197 826 l 197 639 l 385 639 l 385 613 l 197 613 l 197 132 b 229 38 197 88 208 57 b 314 10 250 19 279 10 b 385 22 340 10 363 14 l 389 -1 l 389 -1 "},"u":{"ha":794,"x_min":0,"x_max":0,"o":"m 614 168 b 573 88 604 138 590 112 b 514 29 556 65 536 45 b 442 -7 492 13 468 1 b 361 -19 416 -15 389 -19 b 250 4 317 -19 280 -12 b 179 67 220 20 197 41 b 142 154 162 93 149 122 b 131 253 134 187 131 219 l 131 639 l 161 639 l 161 256 b 169 172 161 229 164 201 b 201 92 175 142 185 116 b 262 31 216 68 236 47 b 361 7 287 15 320 7 b 460 28 396 7 429 14 b 541 90 491 43 518 63 b 595 188 564 117 582 150 b 615 319 609 227 615 270 l 615 639 l 646 639 l 646 161 b 647 124 646 151 646 138 b 648 78 647 109 647 94 b 650 35 648 63 649 49 b 653 0 651 21 652 9 l 622 0 b 620 35 621 9 621 21 b 619 80 620 49 619 64 b 617 127 618 96 618 112 b 617 168 617 142 617 156 l 614 168 l 614 168 "},"v":{"ha":603,"x_min":0,"x_max":0,"o":"m 285 0 l 33 639 l 67 639 l 304 31 l 307 31 l 536 639 l 569 639 l 325 0 "},"w":{"ha":969,"x_min":0,"x_max":0,"o":"m 693 0 l 485 606 l 482 606 l 275 0 l 233 0 l 47 639 l 79 639 l 254 31 l 257 31 l 463 639 l 506 639 l 713 31 l 715 31 l 890 639 l 922 639 l 735 0 "},"x":{"ha":628,"x_min":0,"x_max":0,"o":"m 78 0 l 39 0 l 292 338 l 71 639 l 110 639 l 313 358 l 514 639 l 554 639 l 332 338 l 589 0 l 549 0 l 311 317 "},"y":{"ha":594,"x_min":0,"x_max":0,"o":"m 244 -211 b 185 -303 230 -251 210 -282 b 90 -336 161 -325 129 -336 b 61 -333 82 -336 72 -335 b 33 -326 50 -331 41 -329 l 42 -300 b 65 -306 47 -302 55 -304 b 93 -308 74 -307 84 -308 b 144 -297 113 -308 129 -305 b 181 -269 158 -290 170 -280 b 206 -229 191 -257 199 -244 b 225 -185 213 -214 219 -200 l 286 -18 l 33 639 l 67 639 l 301 17 l 528 639 l 561 639 l 244 -211 "},"z":{"ha":608,"x_min":0,"x_max":0,"o":"m 68 29 l 490 613 l 90 613 l 90 639 l 521 639 l 521 608 l 103 26 l 538 26 l 538 0 l 68 0 "},"{":{"ha":417,"x_min":0,"x_max":0,"o":"m 0 413 b 42 419 15 413 29 415 b 76 444 56 424 67 432 b 99 492 86 455 93 472 b 107 572 104 513 107 540 l 107 843 b 149 978 107 908 121 953 b 254 1017 176 1004 212 1017 l 319 1017 l 319 990 l 254 990 b 165 952 213 990 184 978 b 138 843 147 927 138 890 l 138 571 b 111 446 138 513 129 471 b 44 401 94 421 71 406 l 44 399 b 111 354 71 394 94 379 b 138 229 129 329 138 288 l 138 -43 b 165 -152 138 -90 147 -127 b 254 -190 184 -178 213 -190 l 319 -190 l 319 -217 l 254 -217 b 195 -208 233 -217 213 -214 b 149 -178 177 -202 162 -192 b 118 -125 136 -165 125 -147 b 107 -43 111 -103 107 -75 l 107 228 b 99 308 107 260 104 287 b 76 356 93 328 86 345 b 42 381 67 368 56 376 b 0 388 29 385 15 388 l 0 413 "},"|":{"ha":308,"x_min":0,"x_max":0,"o":"m 169 -347 l 139 -347 l 139 1042 l 169 1042 "},"}":{"ha":417,"x_min":0,"x_max":0,"o":"m 417 388 b 374 381 401 388 387 385 b 340 356 361 376 350 368 b 318 308 331 345 324 328 b 310 228 313 287 310 260 l 310 -43 b 299 -125 310 -75 306 -103 b 268 -178 291 -147 281 -165 b 222 -208 255 -192 240 -202 b 163 -217 203 -214 184 -217 l 97 -217 l 97 -190 l 163 -190 b 251 -152 203 -190 233 -178 b 279 -43 270 -127 279 -90 l 279 229 b 306 354 279 288 288 329 b 372 399 323 379 345 394 l 372 401 b 306 446 345 406 323 421 b 279 571 288 471 279 513 l 279 843 b 251 952 279 890 270 927 b 163 990 233 978 203 990 l 97 990 l 97 1017 l 163 1017 b 268 978 205 1017 240 1004 b 310 843 296 953 310 908 l 310 572 b 318 492 310 540 313 513 b 340 444 324 472 331 455 b 374 419 350 432 361 424 b 417 413 387 415 401 413 l 417 388 l 417 388 "},"~":{"ha":925,"x_min":0,"x_max":0,"o":"m 129 367 b 219 469 159 418 189 452 b 313 496 249 487 280 496 b 383 485 338 496 362 492 b 451 447 403 477 426 465 b 550 391 492 419 525 400 b 617 378 575 382 597 378 b 710 413 654 378 685 390 b 778 496 736 437 758 464 l 799 474 b 710 378 771 430 741 398 b 617 349 679 359 648 349 b 540 361 585 349 560 353 b 476 397 521 369 500 381 b 424 431 456 411 438 422 b 384 452 409 440 396 447 b 351 463 372 457 361 461 b 315 467 340 466 328 467 b 221 435 277 467 246 456 b 153 347 196 413 173 384 l 129 367 l 129 367 "}," ":{"ha":347,"x_min":0,"x_max":0,"o":""},"¡":{"ha":383,"x_min":0,"x_max":0,"o":"m 192 613 b 169 622 183 613 176 616 b 160 649 163 629 160 638 b 169 674 160 659 163 667 b 192 683 176 680 183 683 b 214 674 200 683 207 680 b 224 649 220 667 224 659 b 213 622 224 638 220 629 b 192 613 206 616 199 613 m 176 404 l 207 404 l 207 -308 l 176 -308 "},"¢":{"ha":778,"x_min":0,"x_max":0,"o":"m 449 8 b 549 28 483 9 516 16 b 633 81 581 40 609 57 l 654 61 b 559 2 627 34 596 15 b 449 -18 522 -10 486 -17 l 449 -100 l 418 -100 l 418 -18 b 297 13 375 -15 334 -5 b 201 83 260 30 228 54 b 139 188 175 113 154 148 b 117 318 124 227 117 271 b 139 449 117 365 124 409 b 201 553 154 488 175 523 b 297 626 228 584 260 608 b 418 657 333 644 374 654 l 418 750 l 449 750 l 449 657 b 560 633 488 656 525 648 b 651 572 596 619 626 598 l 628 551 b 545 608 604 575 576 594 b 449 631 514 622 482 630 l 449 8 m 418 631 b 306 600 376 628 339 618 b 220 531 272 582 244 559 b 166 433 197 502 178 469 b 147 318 153 396 147 358 b 166 204 147 278 153 240 b 220 108 178 168 197 136 b 306 39 244 79 272 56 b 418 8 339 21 376 11 l 418 631 "},"£":{"ha":778,"x_min":0,"x_max":0,"o":"m 524 500 l 288 500 l 288 28 l 643 28 l 643 0 l 106 0 l 106 28 l 257 28 l 257 500 l 121 500 l 121 526 l 257 526 l 257 715 b 320 930 257 806 278 878 b 508 1008 362 982 425 1008 b 600 992 542 1008 572 1003 b 674 949 628 982 652 967 l 654 926 b 588 966 635 943 613 956 b 508 981 564 976 537 981 b 407 960 469 981 435 974 b 339 904 379 947 356 928 b 300 819 321 880 308 852 b 288 711 292 786 288 750 l 288 526 l 524 526 "},"€":{"ha":778,"x_min":0,"x_max":0,"o":"m 706 938 b 620 972 679 953 650 965 b 517 983 590 980 556 983 b 283 889 426 983 348 952 b 153 617 219 826 175 735 l 628 617 l 618 590 l 149 590 b 144 540 147 576 145 559 b 142 483 142 520 142 501 b 142 438 142 470 142 455 b 146 394 143 421 144 406 l 558 394 l 550 368 l 149 368 b 193 215 157 312 172 261 b 273 99 214 170 241 131 b 381 26 305 67 341 43 b 511 0 422 9 465 0 b 719 64 595 0 665 21 l 735 38 b 503 -28 675 -6 598 -28 b 357 3 449 -28 400 -18 b 243 87 313 23 275 51 b 163 213 211 122 184 164 b 119 368 142 261 128 313 l 29 368 l 40 394 l 117 394 b 113 438 115 406 114 421 b 113 483 113 455 113 470 b 114 538 113 499 113 517 b 118 590 115 558 116 575 l 32 590 l 40 617 l 122 617 b 178 788 134 681 153 739 b 267 912 203 838 233 879 b 383 986 302 945 341 969 b 519 1011 426 1003 471 1011 b 627 999 556 1011 592 1007 b 718 965 662 990 692 979 l 706 938 l 706 938 "},"¥":{"ha":778,"x_min":0,"x_max":0,"o":"m 110 518 l 363 518 l 36 983 l 72 983 l 390 524 l 707 983 l 742 983 l 418 518 l 668 518 l 668 492 l 404 492 l 404 310 l 668 310 l 668 283 l 404 283 l 404 0 l 374 0 l 374 283 l 110 283 l 110 310 l 374 310 l 374 492 l 110 492 "},"Š":{"ha":792,"x_min":0,"x_max":0,"o":"m 692 236 b 667 124 692 194 684 157 b 603 41 651 91 630 64 b 508 -10 576 18 544 1 b 393 -28 471 -22 433 -28 b 226 5 332 -28 276 -17 b 100 93 175 27 133 56 l 124 114 b 247 28 159 76 200 47 b 392 0 293 9 342 0 b 494 16 428 0 462 5 b 581 62 527 27 556 42 b 640 135 606 82 625 106 b 661 236 654 165 661 198 b 638 332 661 274 653 306 b 576 399 622 358 601 380 b 491 445 551 417 523 433 b 394 479 459 458 427 469 b 283 520 354 492 316 506 b 195 573 249 534 220 552 b 138 648 171 594 152 619 b 118 754 125 677 118 713 b 142 863 118 795 126 831 b 208 944 159 895 181 922 b 305 994 236 966 268 982 b 421 1011 341 1005 380 1011 b 563 983 471 1011 518 1002 b 674 901 608 964 645 937 l 650 881 b 551 956 624 913 591 938 b 419 983 510 974 467 983 b 322 969 386 983 353 979 b 235 927 290 960 261 946 b 172 856 209 908 188 884 b 149 754 156 827 149 793 b 169 658 149 716 156 684 b 225 590 183 631 202 609 b 303 544 248 572 274 556 b 393 511 333 532 363 521 b 510 469 435 497 474 483 b 605 417 546 454 578 437 b 669 342 632 396 653 372 b 692 236 684 313 692 278 m 253 1261 l 285 1261 l 415 1078 l 546 1261 l 578 1261 l 435 1061 l 396 1061 "},"§":{"ha":778,"x_min":0,"x_max":0,"o":"m 440 204 b 551 133 488 185 525 161 b 592 21 578 104 592 67 b 572 -68 592 -12 585 -42 b 520 -133 559 -94 542 -116 b 444 -172 498 -150 473 -163 b 350 -186 415 -181 383 -186 b 219 -161 302 -186 258 -178 b 119 -92 181 -144 147 -121 l 143 -68 b 353 -158 195 -128 265 -158 b 433 -147 381 -158 407 -155 b 499 -114 458 -140 480 -129 b 544 -59 518 -99 533 -81 b 561 18 556 -37 561 -12 b 546 84 561 43 556 65 b 505 133 536 103 522 119 b 445 171 488 147 468 160 b 374 203 422 182 399 193 l 322 224 b 241 260 292 236 265 248 b 183 302 217 273 198 287 b 148 356 167 317 156 335 b 136 429 140 376 136 400 b 153 506 136 458 142 483 b 196 563 164 528 178 547 b 255 601 213 578 233 591 b 318 621 277 610 298 617 b 257 652 295 631 275 641 b 212 689 239 663 224 675 b 183 738 199 703 190 719 b 174 807 177 757 174 780 b 192 894 174 839 180 868 b 244 958 205 919 222 941 b 319 997 266 975 291 988 b 413 1011 348 1006 379 1011 b 531 990 456 1011 496 1004 b 618 924 567 976 596 954 l 594 903 b 518 964 577 930 551 950 b 408 985 485 978 448 985 b 334 974 383 985 359 981 b 268 940 309 966 288 955 b 221 883 249 924 233 905 b 203 803 209 860 203 833 b 218 733 203 775 208 752 b 258 685 228 714 242 698 b 316 651 275 672 294 660 b 383 622 338 641 360 631 l 428 604 b 514 565 460 591 489 578 b 577 520 539 551 560 536 b 616 467 594 504 607 486 b 629 399 625 447 629 425 b 613 320 629 369 624 343 b 571 262 603 297 588 278 b 510 224 553 246 533 233 b 440 204 488 214 464 208 m 406 221 b 476 235 430 223 453 228 b 538 269 500 243 520 254 b 582 322 556 283 571 301 b 599 396 593 342 599 367 b 583 462 599 421 594 443 b 542 513 573 481 559 498 b 482 551 525 527 505 540 b 410 582 459 561 435 572 l 353 604 b 288 588 331 601 310 596 b 227 553 265 579 245 568 b 183 500 209 539 194 521 b 167 425 172 479 167 454 b 182 356 167 398 172 375 b 222 307 192 337 206 321 b 279 272 239 293 258 281 b 344 244 300 262 322 253 l 406 221 "},"š":{"ha":576,"x_min":0,"x_max":0,"o":"m 501 167 b 485 90 501 138 496 112 b 440 32 474 67 459 48 b 374 -4 421 16 399 4 b 293 -17 349 -12 322 -17 b 165 10 246 -17 203 -8 b 69 90 126 28 94 55 l 94 107 b 294 10 141 42 207 10 b 356 19 315 10 335 13 b 413 49 377 26 396 36 b 455 97 430 62 444 78 b 471 164 466 117 471 139 b 451 236 471 194 464 218 b 400 281 437 255 420 269 b 333 308 380 292 357 301 b 264 326 308 315 285 321 b 199 348 241 333 219 340 b 145 378 178 356 160 366 b 109 425 130 391 118 406 b 96 494 100 444 96 467 b 113 567 96 522 101 546 b 157 617 124 587 138 604 b 220 648 175 631 197 641 b 292 658 244 655 268 658 b 488 565 379 658 444 627 l 461 550 b 389 612 440 578 416 598 b 292 632 362 625 330 632 b 236 625 274 632 256 630 b 183 602 217 620 199 613 b 142 560 166 591 153 577 b 126 496 132 542 126 521 b 140 429 126 468 131 446 b 176 389 148 413 161 399 b 233 363 192 379 211 370 b 307 343 256 356 280 350 b 380 320 332 337 356 329 b 442 288 403 311 424 300 b 485 239 460 275 475 258 b 501 167 496 219 501 195 m 135 983 l 167 983 l 297 800 l 428 983 l 460 983 l 317 783 l 278 783 "},"©":{"ha":1111,"x_min":0,"x_max":0,"o":"m 28 490 b 69 695 28 563 42 632 b 183 861 97 759 135 814 b 351 973 230 908 286 946 b 557 1014 415 1000 484 1014 b 761 973 629 1014 697 1000 b 928 861 825 946 881 908 b 1042 695 976 814 1014 759 b 1083 490 1069 632 1083 563 b 1042 287 1083 418 1069 350 b 928 121 1014 223 976 168 b 761 10 881 74 825 37 b 557 -31 697 -17 629 -31 b 351 10 484 -31 415 -17 b 183 121 286 37 230 74 b 69 287 135 168 97 223 b 28 490 42 350 28 418 m 58 490 b 98 299 58 422 72 358 b 205 143 124 239 160 188 b 363 38 250 99 303 64 b 557 0 424 13 488 0 b 749 38 625 0 688 13 b 907 143 809 64 862 99 b 1014 299 952 188 988 239 b 1053 490 1040 358 1053 422 b 1014 683 1053 559 1040 623 b 907 839 988 742 952 794 b 749 944 862 883 809 919 b 557 983 688 970 625 983 b 363 944 488 983 424 970 b 205 839 303 919 250 883 b 98 683 160 794 124 742 b 58 490 72 623 58 559 m 747 701 b 671 756 726 725 700 743 b 579 775 641 769 611 775 b 468 752 538 775 501 767 b 383 690 435 737 406 716 b 328 598 359 663 341 633 b 310 488 316 563 310 526 b 328 378 310 449 316 412 b 383 288 341 344 359 313 b 468 226 406 262 435 241 b 579 203 501 210 538 203 b 674 220 612 203 643 209 b 753 269 704 232 731 248 l 774 250 b 683 193 748 224 718 205 b 579 175 649 181 614 175 b 459 198 536 175 496 183 b 364 263 422 213 391 235 b 301 362 337 290 316 323 b 279 488 287 400 279 442 b 301 613 279 533 287 575 b 364 713 316 652 337 685 b 459 778 391 740 422 762 b 579 801 496 794 536 801 b 685 780 616 801 651 794 b 771 722 718 766 747 746 l 747 701 "},"ª":{"ha":486,"x_min":0,"x_max":0,"o":"m 369 854 b 338 945 369 895 359 925 b 246 975 316 965 286 975 b 168 960 218 975 192 970 b 107 921 144 951 124 938 l 92 944 b 156 984 107 960 129 973 b 246 1000 182 995 213 1000 b 356 965 291 1000 328 988 b 397 858 383 941 397 906 l 397 686 b 399 640 397 671 398 656 b 404 599 401 623 402 610 l 376 599 b 372 633 375 609 373 620 b 369 688 370 646 369 664 l 368 688 b 297 613 351 653 328 628 b 204 589 267 597 236 589 b 158 595 189 589 174 591 b 114 615 141 599 127 606 b 81 652 101 625 90 637 b 68 707 72 667 68 686 b 94 778 68 738 77 761 b 162 818 111 796 134 809 b 258 835 190 827 222 833 b 369 839 294 838 331 839 l 369 854 m 349 814 b 251 810 314 814 282 813 b 171 796 221 808 194 803 b 116 763 148 788 129 778 b 96 707 103 749 96 730 b 106 663 96 689 99 675 b 133 635 113 652 122 642 b 171 620 144 628 157 623 b 213 615 185 617 199 615 b 279 628 238 615 260 620 b 328 664 299 637 315 649 b 359 715 342 679 352 696 b 369 776 366 735 369 755 l 369 814 l 349 814 "},"«":{"ha":668,"x_min":0,"x_max":0,"o":"m 344 329 l 514 601 l 536 586 l 379 329 l 538 72 l 515 56 m 114 329 l 283 601 l 306 586 l 149 329 l 307 72 l 285 56 "},"¬":{"ha":925,"x_min":0,"x_max":0,"o":"m 765 528 l 131 528 l 131 554 l 796 554 l 796 186 l 765 186 "},"­":{"ha":417,"x_min":0,"x_max":0,"o":"m 83 367 l 333 367 l 333 339 l 83 339 "},"®":{"ha":833,"x_min":0,"x_max":0,"o":"m 417 668 l 340 668 l 340 515 l 311 515 l 311 864 l 428 864 b 511 840 463 864 491 856 b 542 767 531 823 542 799 b 513 698 542 736 532 713 b 449 672 493 683 472 674 l 556 515 l 519 515 m 513 768 b 486 824 513 796 504 814 b 428 838 469 833 449 838 l 340 838 l 340 692 l 407 692 b 484 708 439 692 465 697 b 513 768 503 718 513 738 m 100 686 b 125 809 100 730 108 771 b 193 909 142 847 164 881 b 294 976 222 937 256 959 b 418 1000 333 992 375 1000 b 541 976 462 1000 503 992 b 641 909 579 959 613 937 b 708 809 669 881 692 847 b 733 686 725 771 733 730 b 708 564 733 643 725 602 b 641 465 692 526 669 493 b 541 398 613 436 579 414 b 418 374 503 382 462 374 b 294 398 375 374 333 382 b 193 465 256 414 222 436 b 125 564 164 493 142 526 b 100 686 108 602 100 643 m 129 686 b 152 576 129 647 137 610 b 215 485 167 541 188 511 b 306 423 241 459 272 438 b 418 400 341 408 378 400 b 528 423 457 400 494 408 b 619 485 563 438 594 459 b 681 576 645 511 666 541 b 704 686 697 610 704 647 b 681 797 704 725 697 762 b 619 888 666 831 645 862 b 528 949 594 913 563 934 b 418 972 494 965 457 972 b 306 949 378 972 341 965 b 215 888 272 934 241 913 b 152 797 188 862 167 831 b 129 686 137 762 129 725 "},"¯":{"ha":333,"x_min":0,"x_max":0,"o":"m 6 890 l 328 890 l 328 863 l 6 863 "},"°":{"ha":556,"x_min":0,"x_max":0,"o":"m 479 793 b 463 715 479 765 474 739 b 420 651 453 690 438 669 b 356 608 402 633 381 618 b 278 592 332 597 306 592 b 199 608 250 592 224 597 b 135 651 175 618 153 633 b 92 715 117 669 103 690 b 76 793 82 739 76 765 b 92 872 76 821 82 847 b 135 935 103 896 117 917 b 199 978 153 953 175 968 b 278 994 224 989 250 994 b 356 978 306 994 332 989 b 420 935 381 968 402 953 b 463 872 438 917 453 896 b 479 793 474 847 479 821 m 451 793 b 438 860 451 817 447 840 b 400 915 428 881 416 900 b 345 953 384 931 366 944 b 278 967 324 962 302 967 b 210 953 254 967 231 962 b 156 915 190 944 171 931 b 118 860 140 900 127 881 b 104 793 109 840 104 817 b 118 726 104 769 109 747 b 156 671 127 705 140 687 b 210 633 171 655 190 643 b 278 619 231 624 254 619 b 345 633 302 619 324 624 b 400 671 366 643 384 655 b 438 726 416 687 428 705 b 451 793 447 747 451 769 "},"±":{"ha":925,"x_min":0,"x_max":0,"o":"m 475 208 l 444 208 l 444 475 l 131 475 l 131 503 l 443 503 l 443 775 l 474 775 l 474 503 l 796 503 l 796 475 l 475 475 m 136 94 l 790 94 l 790 67 l 136 67 "},"²":{"ha":486,"x_min":0,"x_max":0,"o":"m 414 400 l 68 400 l 68 428 l 282 663 b 333 724 303 686 320 706 b 364 773 346 742 356 759 b 379 812 371 787 376 800 b 383 846 382 823 383 835 b 347 941 383 888 371 919 b 251 974 322 963 290 974 b 166 949 219 974 191 966 b 114 869 141 933 124 906 l 88 878 b 150 971 99 921 119 952 b 251 999 181 989 214 999 b 372 955 305 999 345 984 b 413 853 399 926 413 892 b 408 803 413 834 411 818 b 390 758 404 789 398 774 b 353 707 381 743 369 725 b 294 640 338 688 319 666 l 99 425 l 414 425 "},"³":{"ha":486,"x_min":0,"x_max":0,"o":"m 394 554 b 344 428 394 499 378 457 b 222 386 311 400 270 386 b 117 413 181 386 146 395 b 54 483 89 431 68 455 l 79 493 b 142 430 94 463 115 442 b 222 411 170 417 196 411 b 331 450 269 411 306 424 b 368 556 356 476 368 511 b 353 617 368 579 363 599 b 315 660 344 634 331 649 b 260 687 298 672 280 681 b 200 696 241 693 220 696 l 176 696 l 176 721 l 199 721 b 310 761 249 721 286 734 b 347 853 335 788 347 819 b 310 946 347 894 335 925 b 222 976 285 966 256 976 b 153 960 197 976 174 971 b 104 917 131 949 115 934 l 83 932 b 141 982 99 953 118 970 b 222 1000 164 994 191 1000 b 335 960 272 1000 310 987 b 374 853 361 933 374 897 b 339 753 374 811 362 778 b 246 710 316 729 285 714 l 246 707 b 356 659 293 702 330 686 b 394 554 381 632 394 597 "},"Ž":{"ha":825,"x_min":0,"x_max":0,"o":"m 75 38 l 722 956 l 93 956 l 93 983 l 750 983 l 750 943 l 104 28 l 767 28 l 767 0 l 75 0 m 258 1261 l 290 1261 l 421 1078 l 551 1261 l 583 1261 l 440 1061 l 401 1061 "},"µ":{"ha":772,"x_min":0,"x_max":0,"o":"m 161 256 b 169 172 161 229 164 201 b 201 92 175 142 185 116 b 262 31 216 68 236 47 b 361 7 287 15 320 7 b 460 28 396 7 429 14 b 541 90 491 43 518 63 b 595 188 564 117 582 150 b 615 319 609 227 615 270 l 615 639 l 646 639 l 646 161 b 647 124 646 151 646 138 b 648 78 647 109 647 94 b 649 35 648 63 649 49 b 650 0 650 21 650 9 l 617 0 l 617 168 l 614 168 b 573 88 604 138 590 112 b 514 29 556 65 536 45 b 442 -7 492 13 468 1 b 361 -19 416 -15 389 -19 b 233 14 308 -19 266 -8 b 161 100 201 36 177 65 l 161 -317 l 131 -317 l 131 639 l 161 639 "},"¶":{"ha":833,"x_min":0,"x_max":0,"o":"m 649 960 l 433 960 l 433 -175 l 403 -175 l 403 474 b 278 493 356 474 315 480 b 185 547 242 506 211 524 b 126 626 160 569 140 596 b 106 721 113 656 106 688 b 186 917 106 808 132 873 b 414 983 240 961 316 983 l 679 983 l 679 -175 l 649 -175 "},"·":{"ha":333,"x_min":0,"x_max":0,"o":"m 167 318 b 144 328 158 318 151 321 b 135 354 138 334 135 343 b 144 379 135 364 138 373 b 167 389 151 386 158 389 b 189 379 175 389 182 386 b 199 354 195 373 199 364 b 188 328 199 343 195 334 b 167 318 181 321 174 318 "},"ž":{"ha":608,"x_min":0,"x_max":0,"o":"m 68 29 l 490 613 l 90 613 l 90 639 l 521 639 l 521 608 l 103 26 l 538 26 l 538 0 l 68 0 m 147 983 l 179 983 l 310 800 l 440 983 l 472 983 l 329 783 l 290 783 "},"¹":{"ha":486,"x_min":0,"x_max":0,"o":"m 235 953 l 101 864 l 85 886 l 236 983 l 265 983 l 265 400 l 235 400 "},"º":{"ha":486,"x_min":0,"x_max":0,"o":"m 440 796 b 426 713 440 765 435 738 b 385 647 416 688 403 666 b 323 604 368 629 347 614 b 243 589 298 594 272 589 b 163 604 213 589 187 594 b 101 647 138 614 118 629 b 60 713 84 666 70 688 b 46 796 51 738 46 765 b 60 879 46 826 51 854 b 101 944 70 904 84 926 b 163 986 118 962 138 976 b 243 1001 187 996 213 1001 b 323 986 272 1001 298 996 b 385 944 347 976 368 962 b 426 879 403 926 416 904 b 440 796 435 854 440 826 m 74 796 b 85 725 74 771 78 747 b 119 667 93 703 104 683 b 172 627 133 650 151 637 b 243 613 192 617 216 613 b 315 627 270 613 294 617 b 368 667 335 637 353 650 b 401 725 383 683 394 703 b 413 796 409 747 413 771 b 401 866 413 821 409 844 b 368 924 394 888 383 907 b 315 963 353 940 335 953 b 243 976 294 972 270 976 b 172 963 216 976 192 972 b 119 924 151 953 133 940 b 85 866 104 907 93 888 b 74 796 78 844 74 821 "},"»":{"ha":668,"x_min":0,"x_max":0,"o":"m 363 72 l 519 329 l 361 586 l 383 603 l 554 329 l 385 57 m 132 72 l 289 329 l 131 586 l 153 603 l 324 329 l 154 57 "},"Œ":{"ha":1358,"x_min":0,"x_max":0,"o":"m 650 956 b 447 928 578 956 510 947 b 282 845 383 910 328 883 b 172 701 236 808 199 760 b 132 492 145 643 132 573 b 172 281 132 410 145 340 b 282 137 199 222 236 174 b 447 54 328 99 383 72 b 650 28 510 37 578 28 l 739 28 l 739 956 l 650 956 m 643 0 b 429 28 566 0 495 9 b 257 117 363 47 306 77 b 142 271 208 158 169 209 b 100 492 114 333 100 406 b 142 712 100 577 114 650 b 257 865 169 773 208 824 b 429 954 306 905 363 935 b 643 983 495 974 566 983 l 1258 983 l 1258 956 l 768 956 l 768 524 l 1228 524 l 1228 496 l 768 496 l 768 28 l 1281 28 l 1281 0 l 643 0 "},"œ":{"ha":1406,"x_min":0,"x_max":0,"o":"m 736 439 b 844 599 756 506 792 559 b 1024 658 895 638 955 658 b 1154 632 1074 658 1117 650 b 1247 563 1191 614 1222 591 b 1301 465 1271 534 1289 501 b 1319 353 1313 428 1319 391 l 1319 326 l 751 326 b 769 211 751 288 757 249 b 822 109 780 173 798 139 b 910 36 845 79 875 55 b 1038 8 946 18 988 8 b 1171 38 1088 8 1132 18 b 1272 125 1210 58 1244 87 l 1294 106 b 1184 13 1263 65 1226 34 b 1038 -19 1142 -9 1093 -19 b 847 42 963 -19 900 1 b 738 206 794 82 758 137 b 622 42 716 137 678 82 b 419 -19 566 1 498 -19 b 285 6 370 -19 325 -11 b 179 76 244 22 209 46 b 110 183 150 106 127 142 b 86 321 94 225 86 271 b 110 458 86 371 94 416 b 179 564 127 499 150 534 b 285 633 209 594 244 617 b 419 658 325 650 370 658 b 619 599 496 658 563 638 b 736 439 676 559 715 506 m 1290 353 b 1269 467 1289 394 1282 432 b 1214 555 1255 501 1237 530 b 1131 612 1191 579 1163 598 b 1022 632 1098 625 1062 632 b 899 602 974 632 933 622 b 815 528 864 582 837 558 b 768 437 794 499 778 469 b 753 353 758 405 753 377 l 1290 353 m 722 321 b 701 442 722 363 715 404 b 641 541 688 480 667 513 b 546 608 615 569 583 591 b 419 632 509 624 467 632 b 293 608 372 632 330 624 b 198 541 256 591 224 569 b 138 442 172 513 151 480 b 117 321 124 404 117 363 b 138 199 117 277 124 237 b 198 99 151 161 172 128 b 293 32 224 71 256 49 b 419 7 330 15 372 7 b 546 32 467 7 509 15 b 641 99 583 49 615 71 b 701 199 667 128 688 161 b 722 321 715 237 722 277 "},"Ÿ":{"ha":747,"x_min":0,"x_max":0,"o":"m 389 0 l 358 0 l 358 431 l 21 983 l 57 983 l 375 461 l 692 983 l 726 983 l 389 431 m 268 1157 b 246 1167 260 1157 252 1160 b 236 1193 239 1173 236 1182 b 246 1218 236 1203 239 1212 b 268 1228 252 1225 260 1228 b 290 1218 276 1228 284 1225 b 300 1193 297 1212 300 1203 b 290 1167 300 1182 297 1173 b 268 1157 283 1160 275 1157 m 482 1157 b 460 1167 474 1157 466 1160 b 450 1193 453 1173 450 1182 b 460 1218 450 1203 453 1212 b 482 1228 466 1225 474 1228 b 504 1218 490 1228 498 1225 b 514 1193 511 1212 514 1203 b 503 1167 514 1182 510 1173 b 482 1157 497 1160 489 1157 "},"¿":{"ha":656,"x_min":0,"x_max":0,"o":"m 319 613 b 298 622 312 613 305 616 b 288 649 291 629 288 638 b 297 674 288 659 291 667 b 319 683 304 680 311 683 b 342 674 328 683 335 680 b 351 649 348 667 351 659 b 342 622 351 638 348 629 b 319 613 335 616 328 613 m 338 397 l 338 324 b 319 229 338 293 331 262 b 242 133 307 197 281 165 l 194 92 b 156 53 181 79 168 66 b 126 13 145 41 134 28 b 105 -35 117 -1 110 -17 b 97 -97 100 -53 97 -74 b 115 -186 97 -131 103 -160 b 163 -251 126 -212 142 -234 b 234 -291 183 -269 207 -282 b 321 -304 261 -300 290 -304 b 476 -248 385 -304 437 -285 b 551 -104 516 -210 541 -162 l 581 -110 b 490 -276 568 -182 538 -237 b 318 -333 443 -314 386 -333 b 220 -318 283 -333 250 -328 b 140 -273 190 -308 163 -293 b 86 -199 117 -253 99 -228 b 67 -99 73 -170 67 -137 b 77 -22 67 -70 70 -44 b 105 37 84 0 93 20 b 144 84 116 54 130 70 b 192 126 159 98 175 113 b 250 180 216 146 235 164 b 285 227 265 196 276 212 b 302 276 293 242 299 259 b 307 336 305 294 307 314 l 307 397 "},"À":{"ha":925,"x_min":0,"x_max":0,"o":"m 750 282 l 179 282 l 58 0 l 25 0 l 451 983 l 490 983 l 900 0 l 867 0 m 190 308 l 740 308 l 469 964 m 488 1061 l 461 1061 l 307 1261 l 344 1261 "},"Á":{"ha":925,"x_min":0,"x_max":0,"o":"m 750 282 l 179 282 l 58 0 l 25 0 l 451 983 l 490 983 l 900 0 l 867 0 m 190 308 l 740 308 l 469 964 m 451 1061 l 594 1261 l 632 1261 l 478 1061 "},"Â":{"ha":925,"x_min":0,"x_max":0,"o":"m 750 282 l 179 282 l 58 0 l 25 0 l 451 983 l 490 983 l 900 0 l 867 0 m 190 308 l 740 308 l 469 964 m 632 1061 l 600 1061 l 469 1244 l 339 1061 l 307 1061 l 450 1261 l 489 1261 "},"Ã":{"ha":925,"x_min":0,"x_max":0,"o":"m 750 282 l 179 282 l 58 0 l 25 0 l 451 983 l 490 983 l 900 0 l 867 0 m 190 308 l 740 308 l 469 964 m 475 1164 b 506 1146 487 1156 497 1150 b 527 1135 514 1141 521 1138 b 542 1131 533 1133 538 1132 b 557 1131 547 1131 551 1131 b 613 1197 588 1131 606 1153 l 635 1197 b 607 1126 631 1164 622 1140 b 557 1104 592 1111 575 1104 b 517 1111 542 1104 529 1106 b 468 1138 506 1116 489 1125 b 417 1165 444 1152 427 1162 b 386 1171 406 1169 396 1171 b 331 1100 356 1171 338 1147 l 308 1100 b 336 1174 312 1133 321 1158 b 386 1197 351 1189 368 1197 b 426 1190 401 1197 414 1195 b 475 1164 438 1186 455 1177 "},"Ä":{"ha":925,"x_min":0,"x_max":0,"o":"m 750 282 l 179 282 l 58 0 l 25 0 l 451 983 l 490 983 l 900 0 l 867 0 m 190 308 l 740 308 l 469 964 m 363 1157 b 340 1167 354 1157 347 1160 b 331 1193 334 1173 331 1182 b 340 1218 331 1203 334 1212 b 363 1228 347 1225 354 1228 b 385 1218 371 1228 378 1225 b 394 1193 391 1212 394 1203 b 384 1167 394 1182 391 1173 b 363 1157 377 1160 370 1157 m 576 1157 b 554 1167 568 1157 561 1160 b 544 1193 548 1173 544 1182 b 554 1218 544 1203 548 1212 b 576 1228 561 1225 568 1228 b 599 1218 585 1228 592 1225 b 608 1193 605 1212 608 1203 b 598 1167 608 1182 605 1173 b 576 1157 591 1160 584 1157 "},"Å":{"ha":925,"x_min":0,"x_max":0,"o":"m 750 282 l 179 282 l 58 0 l 25 0 l 451 983 l 490 983 l 900 0 l 867 0 m 190 308 l 740 308 l 469 964 m 603 1181 b 592 1128 603 1162 599 1145 b 563 1086 585 1112 576 1098 b 520 1058 551 1074 536 1065 b 469 1049 504 1052 487 1049 b 418 1058 451 1049 434 1052 b 376 1086 402 1065 388 1074 b 347 1128 363 1098 353 1112 b 336 1181 340 1145 336 1162 b 347 1233 336 1199 340 1216 b 376 1274 353 1249 363 1263 b 418 1302 388 1286 402 1295 b 469 1313 434 1309 451 1313 b 520 1302 487 1313 504 1309 b 563 1274 536 1295 551 1286 b 592 1233 576 1263 585 1249 b 603 1181 599 1216 603 1199 m 576 1181 b 545 1257 576 1210 566 1236 b 469 1289 524 1278 499 1289 b 394 1257 440 1289 415 1278 b 363 1181 373 1236 363 1210 b 394 1104 363 1151 373 1125 b 469 1072 415 1083 440 1072 b 545 1104 499 1072 524 1083 b 576 1181 566 1125 576 1151 "},"Æ":{"ha":1344,"x_min":0,"x_max":0,"o":"m 682 286 l 232 286 l 44 0 l 8 0 l 647 983 l 1243 983 l 1243 956 l 713 956 l 713 524 l 1210 524 l 1210 496 l 713 496 l 713 28 l 1267 28 l 1267 0 l 682 0 m 664 956 l 250 314 l 682 314 l 682 956 "},"Ç":{"ha":1006,"x_min":0,"x_max":0,"o":"m 743 -203 b 727 -258 743 -225 738 -243 b 688 -292 716 -272 703 -283 b 637 -309 672 -300 655 -306 b 588 -314 619 -312 602 -314 b 527 -307 570 -314 550 -312 b 463 -286 504 -302 483 -295 l 469 -262 b 530 -282 487 -272 507 -278 b 589 -287 553 -286 572 -287 b 631 -284 603 -287 617 -286 b 672 -272 646 -282 659 -278 b 702 -246 684 -266 694 -257 b 714 -203 710 -235 714 -220 b 704 -167 714 -188 711 -176 b 680 -145 698 -157 690 -150 b 648 -135 670 -140 659 -137 b 614 -132 636 -133 625 -132 b 565 -137 601 -132 584 -134 b 518 -153 545 -141 529 -146 l 504 -140 l 581 -26 b 385 17 509 -24 444 -9 b 234 126 327 44 276 80 b 135 288 192 172 159 225 b 100 492 112 350 100 418 b 137 700 100 567 112 636 b 240 865 161 764 196 819 b 399 972 285 910 338 946 b 601 1011 461 998 528 1011 b 780 980 663 1011 722 1001 b 928 885 838 959 887 927 l 908 863 b 842 916 889 883 867 901 b 765 954 818 931 792 944 b 682 976 737 964 710 972 b 601 983 654 981 627 983 b 409 945 531 983 467 971 b 260 840 351 920 302 885 b 165 684 219 796 187 744 b 131 492 142 624 131 560 b 164 299 131 423 142 359 b 259 143 186 240 218 188 b 408 38 300 99 350 64 b 601 0 466 13 530 0 b 783 35 663 0 723 12 b 931 142 842 59 892 94 l 953 121 b 883 56 932 96 909 74 b 799 10 856 38 828 23 b 706 -17 769 -2 738 -11 b 610 -28 673 -23 641 -27 l 547 -119 b 585 -110 560 -115 573 -112 b 622 -108 597 -109 609 -108 b 665 -113 636 -108 650 -110 b 703 -128 679 -116 692 -122 b 732 -158 715 -135 725 -145 b 743 -203 739 -170 743 -185 "},"È":{"ha":819,"x_min":0,"x_max":0,"o":"m 147 983 l 719 983 l 719 956 l 176 956 l 176 524 l 688 524 l 688 496 l 176 496 l 176 28 l 742 28 l 742 0 l 147 0 m 467 1061 l 440 1061 l 286 1261 l 324 1261 "},"É":{"ha":819,"x_min":0,"x_max":0,"o":"m 147 983 l 719 983 l 719 956 l 176 956 l 176 524 l 688 524 l 688 496 l 176 496 l 176 28 l 742 28 l 742 0 l 147 0 m 399 1061 l 542 1261 l 579 1261 l 425 1061 "},"Ê":{"ha":819,"x_min":0,"x_max":0,"o":"m 147 983 l 719 983 l 719 956 l 176 956 l 176 524 l 688 524 l 688 496 l 176 496 l 176 28 l 742 28 l 742 0 l 147 0 m 600 1061 l 568 1061 l 438 1244 l 307 1061 l 275 1061 l 418 1261 l 457 1261 "},"Ë":{"ha":819,"x_min":0,"x_max":0,"o":"m 147 983 l 719 983 l 719 956 l 176 956 l 176 524 l 688 524 l 688 496 l 176 496 l 176 28 l 742 28 l 742 0 l 147 0 m 331 1157 b 308 1167 322 1157 315 1160 b 299 1193 302 1173 299 1182 b 308 1218 299 1203 302 1212 b 331 1228 315 1225 322 1228 b 353 1218 339 1228 346 1225 b 363 1193 359 1212 363 1203 b 352 1167 363 1182 359 1173 b 331 1157 345 1160 338 1157 m 544 1157 b 522 1167 536 1157 529 1160 b 513 1193 516 1173 513 1182 b 522 1218 513 1203 516 1212 b 544 1228 529 1225 536 1228 b 567 1218 553 1228 560 1225 b 576 1193 573 1212 576 1203 b 566 1167 576 1182 573 1173 b 544 1157 559 1160 552 1157 "},"Ì":{"ha":325,"x_min":0,"x_max":0,"o":"m 147 983 l 178 983 l 178 0 l 147 0 m 179 1061 l 153 1061 l -1 1261 l 36 1261 "},"Í":{"ha":325,"x_min":0,"x_max":0,"o":"m 147 983 l 178 983 l 178 0 l 147 0 m 144 1061 l 288 1261 l 325 1261 l 171 1061 "},"Î":{"ha":325,"x_min":0,"x_max":0,"o":"m 147 983 l 178 983 l 178 0 l 147 0 m 324 1061 l 292 1061 l 161 1244 l 31 1061 l -1 1061 l 142 1261 l 181 1261 "},"Ï":{"ha":325,"x_min":0,"x_max":0,"o":"m 147 983 l 178 983 l 178 0 l 147 0 m 56 1157 b 33 1167 47 1157 40 1160 b 24 1193 27 1173 24 1182 b 33 1218 24 1203 27 1212 b 56 1228 40 1225 47 1228 b 78 1218 64 1228 71 1225 b 88 1193 84 1212 88 1203 b 77 1167 88 1182 84 1173 b 56 1157 70 1160 63 1157 m 269 1157 b 247 1167 261 1157 254 1160 b 238 1193 241 1173 238 1182 b 247 1218 238 1203 241 1212 b 269 1228 254 1225 261 1228 b 292 1218 278 1228 285 1225 b 301 1193 298 1212 301 1203 b 291 1167 301 1182 298 1173 b 269 1157 284 1160 277 1157 "},"Ð":{"ha":1069,"x_min":0,"x_max":0,"o":"m 36 525 l 147 525 l 147 983 l 426 983 b 640 955 502 983 573 974 b 813 866 706 936 763 906 b 928 713 862 826 900 775 b 969 492 956 650 969 577 b 928 272 969 406 956 333 b 813 119 900 210 862 159 b 640 29 763 78 706 49 b 426 0 573 10 502 0 l 147 0 l 147 497 l 36 497 m 551 497 l 179 497 l 179 28 l 419 28 b 623 55 492 28 559 37 b 788 138 686 73 741 101 b 897 282 834 176 870 224 b 938 492 924 340 938 410 b 897 702 938 573 924 643 b 788 847 870 761 834 809 b 623 929 741 884 686 912 b 419 956 559 947 492 956 l 179 956 l 179 525 l 551 525 "},"Ñ":{"ha":1079,"x_min":0,"x_max":0,"o":"m 182 944 l 178 944 l 178 0 l 147 0 l 147 983 l 190 983 l 897 40 l 901 40 l 901 983 l 932 983 l 932 0 l 888 0 m 549 1164 b 579 1146 561 1156 571 1150 b 601 1135 588 1141 595 1138 b 616 1131 607 1133 612 1132 b 631 1131 620 1131 625 1131 b 686 1197 661 1131 680 1153 l 708 1197 b 681 1126 705 1164 695 1140 b 631 1104 666 1111 649 1104 b 591 1111 616 1104 603 1106 b 542 1138 579 1116 563 1125 b 490 1165 518 1152 500 1162 b 460 1171 480 1169 470 1171 b 404 1100 430 1171 412 1147 l 382 1100 b 410 1174 386 1133 395 1158 b 460 1197 425 1189 441 1197 b 500 1190 475 1197 488 1195 b 549 1164 512 1186 528 1177 "},"Ò":{"ha":1211,"x_min":0,"x_max":0,"o":"m 1111 492 b 1073 283 1111 416 1098 346 b 967 119 1047 219 1012 165 b 807 11 922 73 869 37 b 606 -28 745 -15 678 -28 b 404 11 533 -28 466 -15 b 244 119 342 37 289 73 b 138 283 199 165 164 219 b 100 492 113 346 100 416 b 138 701 100 568 113 637 b 244 865 164 764 199 819 b 403 972 289 910 342 946 b 606 1011 465 998 532 1011 b 808 972 679 1011 746 998 b 967 865 869 946 922 910 b 1073 701 1012 819 1047 764 b 1111 492 1098 637 1111 568 m 1081 492 b 1046 684 1081 560 1069 624 b 948 840 1023 744 990 796 b 797 945 906 885 856 920 b 606 983 739 971 675 983 b 414 945 536 983 472 971 b 263 840 356 920 305 885 b 165 684 221 796 188 744 b 131 492 142 624 131 560 b 165 299 131 423 142 359 b 261 143 187 240 219 188 b 411 38 303 99 353 64 b 606 0 469 13 534 0 b 800 38 677 0 742 13 b 950 143 858 64 908 99 b 1047 299 992 188 1024 240 b 1081 492 1069 359 1081 423 m 656 1061 l 629 1061 l 475 1261 l 513 1261 "},"Ó":{"ha":1211,"x_min":0,"x_max":0,"o":"m 1111 492 b 1073 283 1111 416 1098 346 b 967 119 1047 219 1012 165 b 807 11 922 73 869 37 b 606 -28 745 -15 678 -28 b 404 11 533 -28 466 -15 b 244 119 342 37 289 73 b 138 283 199 165 164 219 b 100 492 113 346 100 416 b 138 701 100 568 113 637 b 244 865 164 764 199 819 b 403 972 289 910 342 946 b 606 1011 465 998 532 1011 b 808 972 679 1011 746 998 b 967 865 869 946 922 910 b 1073 701 1012 819 1047 764 b 1111 492 1098 637 1111 568 m 1081 492 b 1046 684 1081 560 1069 624 b 948 840 1023 744 990 796 b 797 945 906 885 856 920 b 606 983 739 971 675 983 b 414 945 536 983 472 971 b 263 840 356 920 305 885 b 165 684 221 796 188 744 b 131 492 142 624 131 560 b 165 299 131 423 142 359 b 261 143 187 240 219 188 b 411 38 303 99 353 64 b 606 0 469 13 534 0 b 800 38 677 0 742 13 b 950 143 858 64 908 99 b 1047 299 992 188 1024 240 b 1081 492 1069 359 1081 423 m 569 1061 l 713 1261 l 750 1261 l 596 1061 "},"Ô":{"ha":1211,"x_min":0,"x_max":0,"o":"m 1111 492 b 1073 283 1111 416 1098 346 b 967 119 1047 219 1012 165 b 807 11 922 73 869 37 b 606 -28 745 -15 678 -28 b 404 11 533 -28 466 -15 b 244 119 342 37 289 73 b 138 283 199 165 164 219 b 100 492 113 346 100 416 b 138 701 100 568 113 637 b 244 865 164 764 199 819 b 403 972 289 910 342 946 b 606 1011 465 998 532 1011 b 808 972 679 1011 746 998 b 967 865 869 946 922 910 b 1073 701 1012 819 1047 764 b 1111 492 1098 637 1111 568 m 1081 492 b 1046 684 1081 560 1069 624 b 948 840 1023 744 990 796 b 797 945 906 885 856 920 b 606 983 739 971 675 983 b 414 945 536 983 472 971 b 263 840 356 920 305 885 b 165 684 221 796 188 744 b 131 492 142 624 131 560 b 165 299 131 423 142 359 b 261 143 187 240 219 188 b 411 38 303 99 353 64 b 606 0 469 13 534 0 b 800 38 677 0 742 13 b 950 143 858 64 908 99 b 1047 299 992 188 1024 240 b 1081 492 1069 359 1081 423 m 771 1061 l 739 1061 l 608 1244 l 478 1061 l 446 1061 l 589 1261 l 628 1261 "},"Õ":{"ha":1211,"x_min":0,"x_max":0,"o":"m 1111 492 b 1073 283 1111 416 1098 346 b 967 119 1047 219 1012 165 b 807 11 922 73 869 37 b 606 -28 745 -15 678 -28 b 404 11 533 -28 466 -15 b 244 119 342 37 289 73 b 138 283 199 165 164 219 b 100 492 113 346 100 416 b 138 701 100 568 113 637 b 244 865 164 764 199 819 b 403 972 289 910 342 946 b 606 1011 465 998 532 1011 b 808 972 679 1011 746 998 b 967 865 869 946 922 910 b 1073 701 1012 819 1047 764 b 1111 492 1098 637 1111 568 m 1081 492 b 1046 684 1081 560 1069 624 b 948 840 1023 744 990 796 b 797 945 906 885 856 920 b 606 983 739 971 675 983 b 414 945 536 983 472 971 b 263 840 356 920 305 885 b 165 684 221 796 188 744 b 131 492 142 624 131 560 b 165 299 131 423 142 359 b 261 143 187 240 219 188 b 411 38 303 99 353 64 b 606 0 469 13 534 0 b 800 38 677 0 742 13 b 950 143 858 64 908 99 b 1047 299 992 188 1024 240 b 1081 492 1069 359 1081 423 m 613 1164 b 643 1146 625 1156 635 1150 b 665 1135 651 1141 659 1138 b 680 1131 671 1133 676 1132 b 694 1131 684 1131 689 1131 b 750 1197 725 1131 744 1153 l 772 1197 b 744 1126 769 1164 759 1140 b 694 1104 730 1111 713 1104 b 655 1111 680 1104 666 1106 b 606 1138 643 1116 627 1125 b 554 1165 581 1152 564 1162 b 524 1171 544 1169 534 1171 b 468 1100 494 1171 475 1147 l 446 1100 b 474 1174 450 1133 459 1158 b 524 1197 488 1189 505 1197 b 564 1190 538 1197 552 1195 b 613 1164 576 1186 592 1177 "},"Ö":{"ha":1211,"x_min":0,"x_max":0,"o":"m 1111 492 b 1073 283 1111 416 1098 346 b 967 119 1047 219 1012 165 b 807 11 922 73 869 37 b 606 -28 745 -15 678 -28 b 404 11 533 -28 466 -15 b 244 119 342 37 289 73 b 138 283 199 165 164 219 b 100 492 113 346 100 416 b 138 701 100 568 113 637 b 244 865 164 764 199 819 b 403 972 289 910 342 946 b 606 1011 465 998 532 1011 b 808 972 679 1011 746 998 b 967 865 869 946 922 910 b 1073 701 1012 819 1047 764 b 1111 492 1098 637 1111 568 m 1081 492 b 1046 684 1081 560 1069 624 b 948 840 1023 744 990 796 b 797 945 906 885 856 920 b 606 983 739 971 675 983 b 414 945 536 983 472 971 b 263 840 356 920 305 885 b 165 684 221 796 188 744 b 131 492 142 624 131 560 b 165 299 131 423 142 359 b 261 143 187 240 219 188 b 411 38 303 99 353 64 b 606 0 469 13 534 0 b 800 38 677 0 742 13 b 950 143 858 64 908 99 b 1047 299 992 188 1024 240 b 1081 492 1069 359 1081 423 m 501 1157 b 479 1167 493 1157 486 1160 b 469 1193 473 1173 469 1182 b 479 1218 469 1203 473 1212 b 501 1228 486 1225 493 1228 b 524 1218 510 1228 517 1225 b 533 1193 530 1212 533 1203 b 523 1167 533 1182 530 1173 b 501 1157 516 1160 509 1157 m 715 1157 b 693 1167 707 1157 700 1160 b 683 1193 687 1173 683 1182 b 693 1218 683 1203 687 1212 b 715 1228 700 1225 707 1228 b 738 1218 724 1228 731 1225 b 747 1193 744 1212 747 1203 b 737 1167 747 1182 744 1173 b 715 1157 730 1160 723 1157 "},"×":{"ha":925,"x_min":0,"x_max":0,"o":"m 713 160 l 464 408 l 215 160 l 196 178 l 446 428 l 196 678 l 214 696 l 464 446 l 714 696 l 732 678 l 482 428 l 732 178 "},"Ø":{"ha":1211,"x_min":0,"x_max":0,"o":"m 889 878 b 754 955 850 910 805 936 b 588 983 703 974 648 983 b 396 945 518 983 454 971 b 245 840 338 920 287 885 b 147 684 203 796 170 744 b 113 492 124 624 113 560 b 149 296 113 422 125 357 b 251 136 173 235 207 181 l 889 878 m 931 883 b 1050 715 981 837 1021 781 b 1093 492 1079 648 1093 574 b 1055 283 1093 416 1080 346 b 949 119 1029 219 994 165 b 789 11 904 73 851 37 b 588 -28 727 -15 660 -28 b 403 4 522 -28 460 -17 b 251 94 347 25 296 56 l 157 -15 l 138 4 l 232 113 b 122 277 185 158 148 213 b 82 492 95 341 82 413 b 120 701 82 568 95 637 b 226 865 146 764 181 819 b 385 972 271 910 324 946 b 588 1011 447 998 514 1011 b 762 983 650 1011 708 1002 b 910 901 816 964 865 937 l 1003 1010 l 1024 992 l 931 883 m 271 117 b 411 31 312 81 358 52 b 588 0 464 10 523 0 b 782 38 659 0 724 13 b 932 143 840 64 890 99 b 1028 299 974 188 1006 240 b 1063 492 1051 359 1063 423 b 1023 696 1063 565 1049 633 b 910 860 997 759 959 813 l 271 117 "},"Ù":{"ha":1017,"x_min":0,"x_max":0,"o":"m 883 372 b 864 216 883 317 877 265 b 800 89 851 167 830 125 b 684 3 770 53 732 24 b 508 -28 636 -17 578 -28 b 333 3 439 -28 380 -17 b 217 89 285 24 246 53 b 153 216 187 125 166 167 b 133 372 140 265 133 317 l 133 983 l 164 983 l 164 378 b 176 253 164 339 168 297 b 224 131 184 209 200 169 b 328 38 249 94 284 63 b 508 0 373 13 433 0 b 685 36 581 0 641 12 b 790 128 730 60 765 91 b 840 251 815 166 832 207 b 853 378 849 295 853 337 l 853 983 l 883 983 l 883 372 m 557 1061 l 531 1061 l 376 1261 l 414 1261 "},"Ú":{"ha":1017,"x_min":0,"x_max":0,"o":"m 883 372 b 864 216 883 317 877 265 b 800 89 851 167 830 125 b 684 3 770 53 732 24 b 508 -28 636 -17 578 -28 b 333 3 439 -28 380 -17 b 217 89 285 24 246 53 b 153 216 187 125 166 167 b 133 372 140 265 133 317 l 133 983 l 164 983 l 164 378 b 176 253 164 339 168 297 b 224 131 184 209 200 169 b 328 38 249 94 284 63 b 508 0 373 13 433 0 b 685 36 581 0 641 12 b 790 128 730 60 765 91 b 840 251 815 166 832 207 b 853 378 849 295 853 337 l 853 983 l 883 983 l 883 372 m 449 1061 l 592 1261 l 629 1261 l 475 1061 "},"Û":{"ha":1017,"x_min":0,"x_max":0,"o":"m 883 372 b 864 216 883 317 877 265 b 800 89 851 167 830 125 b 684 3 770 53 732 24 b 508 -28 636 -17 578 -28 b 333 3 439 -28 380 -17 b 217 89 285 24 246 53 b 153 216 187 125 166 167 b 133 372 140 265 133 317 l 133 983 l 164 983 l 164 378 b 176 253 164 339 168 297 b 224 131 184 209 200 169 b 328 38 249 94 284 63 b 508 0 373 13 433 0 b 685 36 581 0 641 12 b 790 128 730 60 765 91 b 840 251 815 166 832 207 b 853 378 849 295 853 337 l 853 983 l 883 983 l 883 372 m 671 1061 l 639 1061 l 508 1244 l 378 1061 l 346 1061 l 489 1261 l 528 1261 "},"Ü":{"ha":1017,"x_min":0,"x_max":0,"o":"m 883 372 b 864 216 883 317 877 265 b 800 89 851 167 830 125 b 684 3 770 53 732 24 b 508 -28 636 -17 578 -28 b 333 3 439 -28 380 -17 b 217 89 285 24 246 53 b 153 216 187 125 166 167 b 133 372 140 265 133 317 l 133 983 l 164 983 l 164 378 b 176 253 164 339 168 297 b 224 131 184 209 200 169 b 328 38 249 94 284 63 b 508 0 373 13 433 0 b 685 36 581 0 641 12 b 790 128 730 60 765 91 b 840 251 815 166 832 207 b 853 378 849 295 853 337 l 853 983 l 883 983 l 883 372 m 401 1157 b 379 1167 393 1157 386 1160 b 369 1193 373 1173 369 1182 b 379 1218 369 1203 373 1212 b 401 1228 386 1225 393 1228 b 424 1218 410 1228 417 1225 b 433 1193 430 1212 433 1203 b 423 1167 433 1182 430 1173 b 401 1157 416 1160 409 1157 m 615 1157 b 593 1167 607 1157 600 1160 b 583 1193 587 1173 583 1182 b 593 1218 583 1203 587 1212 b 615 1228 600 1225 607 1228 b 638 1218 624 1228 631 1225 b 647 1193 644 1212 647 1203 b 637 1167 647 1182 644 1173 b 615 1157 630 1160 623 1157 "},"Ý":{"ha":747,"x_min":0,"x_max":0,"o":"m 389 0 l 358 0 l 358 431 l 21 983 l 57 983 l 375 461 l 692 983 l 726 983 l 389 431 m 351 1061 l 494 1261 l 532 1261 l 378 1061 "},"Þ":{"ha":794,"x_min":0,"x_max":0,"o":"m 718 519 b 695 409 718 478 710 441 b 633 329 680 377 659 350 b 542 281 607 308 577 292 b 432 264 508 269 471 264 l 178 264 l 178 0 l 147 0 l 147 983 l 178 983 l 178 764 l 414 764 b 521 752 449 764 485 760 b 619 713 557 744 590 731 b 690 638 648 694 672 669 b 718 519 709 606 718 567 m 688 519 b 664 624 688 561 680 596 b 603 690 648 651 628 674 b 519 726 578 707 550 719 b 426 738 488 734 457 738 l 178 738 l 178 290 l 433 290 b 525 303 464 290 494 294 b 607 343 556 311 583 325 b 665 415 631 362 650 385 b 688 519 680 444 688 479 "},"ß":{"ha":818,"x_min":0,"x_max":0,"o":"m 732 289 b 710 165 732 244 725 202 b 649 70 696 128 675 97 b 551 8 622 44 589 23 b 424 -14 513 -6 471 -14 b 391 -13 413 -14 403 -14 b 357 -10 379 -13 368 -12 l 357 19 b 394 15 371 18 383 16 b 422 14 404 14 414 14 b 538 33 465 14 503 20 b 626 90 572 46 601 65 b 682 177 650 114 669 143 b 701 290 695 211 701 249 b 678 419 701 340 694 383 b 616 509 663 456 642 485 b 524 561 590 533 559 550 b 411 578 488 572 451 578 l 389 578 l 389 607 l 411 607 b 501 622 443 607 472 612 b 574 664 529 631 553 645 b 622 733 594 682 610 706 b 640 828 634 761 640 793 b 624 917 640 861 635 891 b 577 983 613 943 597 965 b 506 1024 557 1001 534 1015 b 418 1039 479 1034 450 1039 b 301 1014 372 1039 333 1031 b 226 947 270 997 245 975 b 185 852 207 919 193 888 b 172 743 176 816 172 780 l 172 0 l 142 0 l 142 747 b 159 874 142 793 147 835 b 211 976 171 914 188 947 b 297 1042 234 1004 263 1026 b 417 1067 331 1059 371 1067 b 519 1050 454 1067 488 1061 b 599 1002 550 1039 577 1023 b 652 926 622 981 640 956 b 671 826 665 897 671 863 b 656 737 671 793 666 763 b 616 669 647 710 633 688 b 556 622 599 650 579 634 b 482 596 532 610 508 601 l 482 593 b 578 565 515 588 547 579 b 658 508 608 551 635 532 b 712 418 680 484 698 454 b 732 289 725 382 732 339 "},"à":{"ha":711,"x_min":0,"x_max":0,"o":"m 581 144 b 584 67 581 120 582 95 b 592 0 586 40 589 18 l 563 0 b 558 34 561 9 559 21 b 555 76 557 47 556 61 b 552 118 553 90 553 104 b 551 153 552 132 551 144 l 547 153 b 451 23 529 94 497 51 b 306 -19 406 -5 357 -19 b 228 -8 280 -19 254 -16 b 160 25 203 -1 180 10 b 110 82 139 40 123 59 b 92 164 98 105 92 132 b 127 274 92 209 103 246 b 215 338 151 301 180 323 b 328 368 250 353 288 363 b 439 375 369 373 406 375 l 550 375 l 550 426 b 493 583 550 498 531 550 b 344 632 455 616 406 632 b 238 611 306 632 271 625 b 150 556 205 597 176 579 l 133 579 b 234 638 163 605 197 625 b 344 658 272 652 308 658 b 517 602 418 658 475 640 b 581 425 559 565 581 506 l 581 144 m 451 349 b 340 342 416 349 379 347 b 233 317 301 338 266 330 b 153 261 201 304 174 285 b 122 164 133 237 122 205 b 140 90 122 134 128 109 b 184 42 151 70 166 54 b 244 15 202 30 222 21 b 306 7 266 10 286 7 b 424 33 353 7 392 16 b 499 101 455 51 480 73 b 539 191 518 128 531 158 b 550 288 546 224 550 256 l 550 349 m 408 783 l 382 783 l 228 983 l 265 983 "},"á":{"ha":711,"x_min":0,"x_max":0,"o":"m 581 144 b 584 67 581 120 582 95 b 592 0 586 40 589 18 l 563 0 b 558 34 561 9 559 21 b 555 76 557 47 556 61 b 552 118 553 90 553 104 b 551 153 552 132 551 144 l 547 153 b 451 23 529 94 497 51 b 306 -19 406 -5 357 -19 b 228 -8 280 -19 254 -16 b 160 25 203 -1 180 10 b 110 82 139 40 123 59 b 92 164 98 105 92 132 b 127 274 92 209 103 246 b 215 338 151 301 180 323 b 328 368 250 353 288 363 b 439 375 369 373 406 375 l 550 375 l 550 426 b 493 583 550 498 531 550 b 344 632 455 616 406 632 b 238 611 306 632 271 625 b 150 556 205 597 176 579 l 133 579 b 234 638 163 605 197 625 b 344 658 272 652 308 658 b 517 602 418 658 475 640 b 581 425 559 565 581 506 l 581 144 m 451 349 b 340 342 416 349 379 347 b 233 317 301 338 266 330 b 153 261 201 304 174 285 b 122 164 133 237 122 205 b 140 90 122 134 128 109 b 184 42 151 70 166 54 b 244 15 202 30 222 21 b 306 7 266 10 286 7 b 424 33 353 7 392 16 b 499 101 455 51 480 73 b 539 191 518 128 531 158 b 550 288 546 224 550 256 l 550 349 m 324 783 l 467 983 l 504 983 l 350 783 "},"â":{"ha":711,"x_min":0,"x_max":0,"o":"m 581 144 b 584 67 581 120 582 95 b 592 0 586 40 589 18 l 563 0 b 558 34 561 9 559 21 b 555 76 557 47 556 61 b 552 118 553 90 553 104 b 551 153 552 132 551 144 l 547 153 b 451 23 529 94 497 51 b 306 -19 406 -5 357 -19 b 228 -8 280 -19 254 -16 b 160 25 203 -1 180 10 b 110 82 139 40 123 59 b 92 164 98 105 92 132 b 127 274 92 209 103 246 b 215 338 151 301 180 323 b 328 368 250 353 288 363 b 439 375 369 373 406 375 l 550 375 l 550 426 b 493 583 550 498 531 550 b 344 632 455 616 406 632 b 238 611 306 632 271 625 b 150 556 205 597 176 579 l 133 579 b 234 638 163 605 197 625 b 344 658 272 652 308 658 b 517 602 418 658 475 640 b 581 425 559 565 581 506 l 581 144 m 451 349 b 340 342 416 349 379 347 b 233 317 301 338 266 330 b 153 261 201 304 174 285 b 122 164 133 237 122 205 b 140 90 122 134 128 109 b 184 42 151 70 166 54 b 244 15 202 30 222 21 b 306 7 266 10 286 7 b 424 33 353 7 392 16 b 499 101 455 51 480 73 b 539 191 518 128 531 158 b 550 288 546 224 550 256 l 550 349 m 507 783 l 475 783 l 344 967 l 214 783 l 182 783 l 325 983 l 364 983 "},"ã":{"ha":711,"x_min":0,"x_max":0,"o":"m 581 144 b 584 67 581 120 582 95 b 592 0 586 40 589 18 l 563 0 b 558 34 561 9 559 21 b 555 76 557 47 556 61 b 552 118 553 90 553 104 b 551 153 552 132 551 144 l 547 153 b 451 23 529 94 497 51 b 306 -19 406 -5 357 -19 b 228 -8 280 -19 254 -16 b 160 25 203 -1 180 10 b 110 82 139 40 123 59 b 92 164 98 105 92 132 b 127 274 92 209 103 246 b 215 338 151 301 180 323 b 328 368 250 353 288 363 b 439 375 369 373 406 375 l 550 375 l 550 426 b 493 583 550 498 531 550 b 344 632 455 616 406 632 b 238 611 306 632 271 625 b 150 556 205 597 176 579 l 133 579 b 234 638 163 605 197 625 b 344 658 272 652 308 658 b 517 602 418 658 475 640 b 581 425 559 565 581 506 l 581 144 m 451 349 b 340 342 416 349 379 347 b 233 317 301 338 266 330 b 153 261 201 304 174 285 b 122 164 133 237 122 205 b 140 90 122 134 128 109 b 184 42 151 70 166 54 b 244 15 202 30 222 21 b 306 7 266 10 286 7 b 424 33 353 7 392 16 b 499 101 455 51 480 73 b 539 191 518 128 531 158 b 550 288 546 224 550 256 l 550 349 m 351 886 b 382 868 363 879 374 873 b 403 858 390 863 397 860 b 419 853 409 855 415 854 b 433 853 423 853 428 853 b 489 919 464 853 482 875 l 511 919 b 483 848 507 886 498 862 b 433 826 469 834 452 826 b 394 833 419 826 405 829 b 344 860 382 838 366 847 b 293 888 320 875 303 884 b 263 893 283 891 273 893 b 207 822 233 893 214 869 l 185 822 b 213 896 188 856 198 880 b 263 919 227 912 244 919 b 303 913 277 919 291 917 b 351 886 315 908 331 899 "},"ä":{"ha":711,"x_min":0,"x_max":0,"o":"m 581 144 b 584 67 581 120 582 95 b 592 0 586 40 589 18 l 563 0 b 558 34 561 9 559 21 b 555 76 557 47 556 61 b 552 118 553 90 553 104 b 551 153 552 132 551 144 l 547 153 b 451 23 529 94 497 51 b 306 -19 406 -5 357 -19 b 228 -8 280 -19 254 -16 b 160 25 203 -1 180 10 b 110 82 139 40 123 59 b 92 164 98 105 92 132 b 127 274 92 209 103 246 b 215 338 151 301 180 323 b 328 368 250 353 288 363 b 439 375 369 373 406 375 l 550 375 l 550 426 b 493 583 550 498 531 550 b 344 632 455 616 406 632 b 238 611 306 632 271 625 b 150 556 205 597 176 579 l 133 579 b 234 638 163 605 197 625 b 344 658 272 652 308 658 b 517 602 418 658 475 640 b 581 425 559 565 581 506 l 581 144 m 451 349 b 340 342 416 349 379 347 b 233 317 301 338 266 330 b 153 261 201 304 174 285 b 122 164 133 237 122 205 b 140 90 122 134 128 109 b 184 42 151 70 166 54 b 244 15 202 30 222 21 b 306 7 266 10 286 7 b 424 33 353 7 392 16 b 499 101 455 51 480 73 b 539 191 518 128 531 158 b 550 288 546 224 550 256 l 550 349 m 242 879 b 219 889 233 879 226 882 b 210 915 213 895 210 904 b 219 940 210 925 213 934 b 242 950 226 947 233 950 b 264 940 250 950 257 947 b 274 915 270 934 274 925 b 263 889 274 904 270 895 b 242 879 256 882 249 879 m 456 879 b 433 889 447 879 440 882 b 424 915 427 895 424 904 b 433 940 424 925 427 934 b 456 950 440 947 447 950 b 478 940 464 950 471 947 b 488 915 484 934 488 925 b 477 889 488 904 484 895 b 456 879 470 882 463 879 "},"å":{"ha":711,"x_min":0,"x_max":0,"o":"m 581 144 b 584 67 581 120 582 95 b 592 0 586 40 589 18 l 563 0 b 558 34 561 9 559 21 b 555 76 557 47 556 61 b 552 118 553 90 553 104 b 551 153 552 132 551 144 l 547 153 b 451 23 529 94 497 51 b 306 -19 406 -5 357 -19 b 228 -8 280 -19 254 -16 b 160 25 203 -1 180 10 b 110 82 139 40 123 59 b 92 164 98 105 92 132 b 127 274 92 209 103 246 b 215 338 151 301 180 323 b 328 368 250 353 288 363 b 439 375 369 373 406 375 l 550 375 l 550 426 b 493 583 550 498 531 550 b 344 632 455 616 406 632 b 238 611 306 632 271 625 b 150 556 205 597 176 579 l 133 579 b 234 638 163 605 197 625 b 344 658 272 652 308 658 b 517 602 418 658 475 640 b 581 425 559 565 581 506 l 581 144 m 451 349 b 340 342 416 349 379 347 b 233 317 301 338 266 330 b 153 261 201 304 174 285 b 122 164 133 237 122 205 b 140 90 122 134 128 109 b 184 42 151 70 166 54 b 244 15 202 30 222 21 b 306 7 266 10 286 7 b 424 33 353 7 392 16 b 499 101 455 51 480 73 b 539 191 518 128 531 158 b 550 288 546 224 550 256 l 550 349 m 482 903 b 472 851 482 884 478 867 b 442 808 465 834 455 820 b 399 781 430 796 416 787 b 349 771 383 774 366 771 b 297 781 330 771 313 774 b 255 808 281 787 267 796 b 226 851 242 820 233 834 b 215 903 219 867 215 884 b 226 955 215 921 219 939 b 255 997 233 971 242 985 b 297 1024 267 1008 281 1017 b 349 1035 313 1031 330 1035 b 399 1024 366 1035 383 1031 b 442 997 416 1017 430 1008 b 472 955 455 985 465 971 b 482 903 478 939 482 921 m 456 903 b 424 979 456 932 445 958 b 349 1011 403 1000 378 1011 b 273 979 319 1011 294 1000 b 242 903 252 958 242 932 b 273 826 242 873 252 848 b 349 794 294 805 319 794 b 424 826 378 794 403 805 b 456 903 445 848 456 873 "},"æ":{"ha":1221,"x_min":0,"x_max":0,"o":"m 1106 354 b 1084 467 1104 396 1097 434 b 1033 555 1072 501 1054 530 b 953 612 1011 579 984 598 b 851 632 922 625 888 632 b 734 601 805 632 766 622 b 655 526 702 580 676 555 b 610 435 634 497 619 466 b 596 354 600 403 596 376 l 1106 354 m 592 469 b 694 606 614 526 648 572 b 853 658 741 641 794 658 b 976 632 900 658 941 650 b 1065 563 1012 614 1041 591 b 1117 465 1088 534 1106 501 b 1135 353 1129 428 1135 391 l 1135 326 l 594 326 b 610 215 594 289 600 252 b 658 113 620 177 636 143 b 743 38 681 82 709 57 b 867 10 777 19 819 10 b 992 39 912 10 954 19 b 1090 125 1031 58 1063 87 l 1111 107 b 1006 14 1081 66 1046 35 b 865 -18 965 -7 918 -18 b 689 40 798 -18 739 1 b 583 199 639 79 604 132 b 559 116 580 170 572 142 b 507 47 547 90 529 66 b 424 -1 485 27 457 11 b 311 -19 391 -13 354 -19 b 232 -10 284 -19 258 -16 b 162 21 206 -3 183 7 b 111 75 141 35 124 53 b 92 156 98 97 92 124 b 126 258 92 198 103 232 b 215 319 150 284 179 304 b 331 347 250 333 289 343 b 449 354 372 352 412 354 l 565 354 l 565 419 b 510 578 565 489 547 542 b 351 632 473 614 420 632 b 242 611 313 632 276 625 b 151 556 209 597 178 579 l 135 579 b 238 638 164 605 199 625 b 351 658 276 652 314 658 b 453 644 390 658 424 653 b 526 603 483 634 507 621 b 572 543 546 586 561 566 b 592 469 582 520 589 495 m 461 326 b 341 320 421 326 381 324 b 233 296 301 316 265 308 b 154 244 201 284 175 267 b 124 156 134 222 124 193 b 142 83 124 126 130 102 b 188 38 154 64 169 49 b 248 14 206 26 226 19 b 311 7 270 9 291 7 b 433 30 360 7 401 15 b 511 90 466 45 492 65 b 553 172 531 114 544 142 b 565 265 561 203 565 234 l 565 326 "},"ç":{"ha":667,"x_min":0,"x_max":0,"o":"m 554 -203 b 538 -258 554 -225 549 -243 b 499 -292 528 -272 514 -283 b 448 -309 483 -300 466 -306 b 399 -314 430 -312 413 -314 b 338 -307 381 -314 361 -312 b 274 -286 316 -302 294 -295 l 281 -262 b 341 -282 298 -272 318 -278 b 400 -287 364 -286 383 -287 b 442 -284 414 -287 428 -286 b 483 -272 457 -282 470 -278 b 513 -246 495 -266 505 -257 b 525 -203 521 -235 525 -220 b 515 -167 525 -188 522 -176 b 491 -145 509 -157 501 -150 b 459 -135 481 -140 471 -137 b 425 -132 447 -133 436 -132 b 376 -137 412 -132 396 -134 b 329 -153 356 -141 340 -146 l 315 -140 l 397 -19 b 272 9 352 -18 310 -8 b 174 79 234 26 201 50 b 109 185 146 109 124 144 b 86 318 94 225 86 270 b 110 454 86 367 94 413 b 178 562 127 496 149 532 b 281 633 208 592 242 616 b 411 658 321 650 364 658 b 527 636 452 658 491 651 b 621 574 564 621 595 600 l 597 553 b 513 611 573 578 545 597 b 411 632 480 625 446 632 b 289 606 366 632 325 623 b 197 538 253 589 222 566 b 138 438 171 509 151 475 b 117 318 124 400 117 360 b 138 199 117 276 124 237 b 197 99 151 161 171 128 b 289 32 222 71 253 49 b 411 7 325 15 366 7 b 515 25 446 7 481 13 b 603 79 548 37 578 55 l 624 60 b 531 1 597 33 566 13 b 426 -19 497 -11 462 -18 l 358 -119 b 396 -110 371 -115 384 -112 b 433 -108 408 -109 420 -108 b 476 -113 447 -108 461 -110 b 515 -128 490 -116 503 -122 b 543 -158 526 -135 536 -145 b 554 -203 550 -170 554 -185 "},"è":{"ha":772,"x_min":0,"x_max":0,"o":"m 117 326 b 134 211 117 288 122 249 b 187 109 146 173 163 139 b 276 36 210 79 240 55 b 404 8 313 18 355 8 b 538 38 454 8 499 18 b 639 125 576 58 610 87 l 661 106 b 551 13 630 65 593 34 b 404 -19 509 -9 460 -19 b 275 6 357 -19 314 -11 b 174 78 236 23 203 47 b 109 188 146 108 124 145 b 86 326 94 230 86 276 b 110 460 86 375 94 419 b 174 565 125 500 147 536 b 271 634 202 595 234 618 b 390 658 308 650 348 658 b 521 632 440 658 484 650 b 613 563 558 614 589 591 b 668 465 638 534 656 501 b 686 353 680 428 686 391 l 686 326 l 117 326 m 657 353 b 635 467 656 394 649 432 b 581 555 622 501 604 530 b 497 612 557 579 530 598 b 389 632 465 625 429 632 b 265 602 341 632 300 622 b 181 528 231 582 203 558 b 133 437 159 499 144 469 b 118 353 123 405 118 377 l 657 353 m 438 783 l 411 783 l 257 983 l 294 983 "},"é":{"ha":772,"x_min":0,"x_max":0,"o":"m 117 326 b 134 211 117 288 122 249 b 187 109 146 173 163 139 b 276 36 210 79 240 55 b 404 8 313 18 355 8 b 538 38 454 8 499 18 b 639 125 576 58 610 87 l 661 106 b 551 13 630 65 593 34 b 404 -19 509 -9 460 -19 b 275 6 357 -19 314 -11 b 174 78 236 23 203 47 b 109 188 146 108 124 145 b 86 326 94 230 86 276 b 110 460 86 375 94 419 b 174 565 125 500 147 536 b 271 634 202 595 234 618 b 390 658 308 650 348 658 b 521 632 440 658 484 650 b 613 563 558 614 589 591 b 668 465 638 534 656 501 b 686 353 680 428 686 391 l 686 326 l 117 326 m 657 353 b 635 467 656 394 649 432 b 581 555 622 501 604 530 b 497 612 557 579 530 598 b 389 632 465 625 429 632 b 265 602 341 632 300 622 b 181 528 231 582 203 558 b 133 437 159 499 144 469 b 118 353 123 405 118 377 l 657 353 m 357 783 l 500 983 l 538 983 l 383 783 "},"ê":{"ha":772,"x_min":0,"x_max":0,"o":"m 117 326 b 134 211 117 288 122 249 b 187 109 146 173 163 139 b 276 36 210 79 240 55 b 404 8 313 18 355 8 b 538 38 454 8 499 18 b 639 125 576 58 610 87 l 661 106 b 551 13 630 65 593 34 b 404 -19 509 -9 460 -19 b 275 6 357 -19 314 -11 b 174 78 236 23 203 47 b 109 188 146 108 124 145 b 86 326 94 230 86 276 b 110 460 86 375 94 419 b 174 565 125 500 147 536 b 271 634 202 595 234 618 b 390 658 308 650 348 658 b 521 632 440 658 484 650 b 613 563 558 614 589 591 b 668 465 638 534 656 501 b 686 353 680 428 686 391 l 686 326 l 117 326 m 657 353 b 635 467 656 394 649 432 b 581 555 622 501 604 530 b 497 612 557 579 530 598 b 389 632 465 625 429 632 b 265 602 341 632 300 622 b 181 528 231 582 203 558 b 133 437 159 499 144 469 b 118 353 123 405 118 377 l 657 353 m 560 783 l 528 783 l 397 967 l 267 783 l 235 783 l 378 983 l 417 983 "},"ë":{"ha":772,"x_min":0,"x_max":0,"o":"m 117 326 b 134 211 117 288 122 249 b 187 109 146 173 163 139 b 276 36 210 79 240 55 b 404 8 313 18 355 8 b 538 38 454 8 499 18 b 639 125 576 58 610 87 l 661 106 b 551 13 630 65 593 34 b 404 -19 509 -9 460 -19 b 275 6 357 -19 314 -11 b 174 78 236 23 203 47 b 109 188 146 108 124 145 b 86 326 94 230 86 276 b 110 460 86 375 94 419 b 174 565 125 500 147 536 b 271 634 202 595 234 618 b 390 658 308 650 348 658 b 521 632 440 658 484 650 b 613 563 558 614 589 591 b 668 465 638 534 656 501 b 686 353 680 428 686 391 l 686 326 l 117 326 m 657 353 b 635 467 656 394 649 432 b 581 555 622 501 604 530 b 497 612 557 579 530 598 b 389 632 465 625 429 632 b 265 602 341 632 300 622 b 181 528 231 582 203 558 b 133 437 159 499 144 469 b 118 353 123 405 118 377 l 657 353 m 286 879 b 264 889 278 879 270 882 b 254 915 257 895 254 904 b 264 940 254 925 257 934 b 286 950 270 947 278 950 b 308 940 294 950 302 947 b 318 915 315 934 318 925 b 308 889 318 904 315 895 b 286 879 301 882 294 879 m 500 879 b 478 889 492 879 484 882 b 468 915 471 895 468 904 b 478 940 468 925 471 934 b 500 950 484 947 492 950 b 522 940 508 950 516 947 b 532 915 529 934 532 925 b 522 889 532 904 528 895 b 500 879 515 882 507 879 "},"ì":{"ha":314,"x_min":0,"x_max":0,"o":"m 142 639 l 172 639 l 172 0 l 142 0 m 174 783 l 147 783 l -7 983 l 31 983 "},"í":{"ha":314,"x_min":0,"x_max":0,"o":"m 142 639 l 172 639 l 172 0 l 142 0 m 140 783 l 283 983 l 321 983 l 167 783 "},"î":{"ha":314,"x_min":0,"x_max":0,"o":"m 142 639 l 172 639 l 172 0 l 142 0 m 321 783 l 289 783 l 158 967 l 28 783 l -4 783 l 139 983 l 178 983 "},"ï":{"ha":314,"x_min":0,"x_max":0,"o":"m 142 639 l 172 639 l 172 0 l 142 0 m 51 879 b 29 889 43 879 36 882 b 19 915 23 895 19 904 b 29 940 19 925 23 934 b 51 950 36 947 43 950 b 74 940 60 950 67 947 b 83 915 80 934 83 925 b 73 889 83 904 80 895 b 51 879 66 882 59 879 m 265 879 b 243 889 257 879 250 882 b 233 915 237 895 233 904 b 243 940 233 925 237 934 b 265 950 250 947 257 950 b 288 940 274 950 281 947 b 297 915 294 934 297 925 b 287 889 297 904 294 895 b 265 879 280 882 273 879 "},"ð":{"ha":840,"x_min":0,"x_max":0,"o":"m 678 554 b 628 656 664 588 647 621 b 567 755 609 690 589 723 b 502 843 546 787 524 816 b 440 911 480 870 460 893 l 285 826 l 268 846 l 421 932 b 347 997 394 957 369 979 b 286 1043 325 1016 305 1031 l 310 1060 b 378 1008 333 1045 356 1028 b 446 946 401 989 424 968 l 592 1028 l 614 1010 l 468 928 b 518 872 482 914 499 895 b 579 792 538 849 558 822 b 642 694 600 762 622 729 b 699 581 663 658 682 620 b 739 457 715 541 729 500 b 754 328 749 414 754 371 b 730 188 754 277 746 230 b 661 78 714 145 691 108 b 555 6 631 47 596 23 b 419 -19 514 -11 469 -19 b 285 6 370 -19 325 -11 b 179 76 244 22 209 46 b 110 183 150 106 127 142 b 86 321 94 225 86 271 b 110 458 86 371 94 416 b 179 564 127 499 150 534 b 285 633 209 594 244 617 b 419 658 325 650 370 658 b 556 633 468 658 513 650 b 669 551 598 616 636 588 l 678 554 m 724 321 b 703 442 724 363 717 404 b 642 541 689 480 669 513 b 547 608 616 569 584 591 b 419 632 509 624 467 632 b 293 608 372 632 330 624 b 198 541 256 591 224 569 b 138 442 172 513 151 480 b 117 321 124 404 117 363 b 138 199 117 277 124 237 b 198 99 151 161 172 128 b 293 32 224 71 256 49 b 419 7 330 15 372 7 b 547 32 467 7 509 15 b 642 99 584 49 616 71 b 703 199 669 128 689 161 b 724 321 717 237 724 277 "},"ñ":{"ha":794,"x_min":0,"x_max":0,"o":"m 178 471 b 218 550 187 500 200 527 b 278 609 236 573 256 593 b 350 646 300 625 324 638 b 431 658 376 654 403 658 b 542 635 475 658 512 650 b 613 572 571 619 595 598 b 650 485 630 546 643 517 b 661 386 657 452 661 419 l 661 0 l 631 0 l 631 383 b 622 467 631 409 628 437 b 591 547 617 496 606 523 b 529 608 576 571 555 591 b 431 632 503 624 470 632 b 331 610 395 632 362 625 b 251 549 300 596 273 575 b 197 451 228 522 210 489 b 176 319 183 412 176 369 l 176 0 l 146 0 l 146 478 b 145 515 146 488 146 500 b 144 560 145 530 144 545 b 142 604 143 576 143 590 b 139 639 141 618 140 630 l 169 639 b 172 604 170 630 171 618 b 173 559 172 590 172 575 b 174 512 173 543 174 527 b 175 471 175 497 175 483 l 178 471 m 407 886 b 438 868 419 879 429 873 b 459 858 446 863 453 860 b 474 853 465 855 470 854 b 489 853 478 853 483 853 b 544 919 519 853 538 875 l 567 919 b 539 848 563 886 554 862 b 489 826 524 834 507 826 b 449 833 474 826 461 829 b 400 860 438 838 421 847 b 349 888 376 875 359 884 b 318 893 338 891 328 893 b 263 822 288 893 270 869 l 240 822 b 268 896 244 856 253 880 b 318 919 283 912 300 919 b 358 913 333 919 346 917 b 407 886 370 908 387 899 "},"ò":{"ha":840,"x_min":0,"x_max":0,"o":"m 754 321 b 730 183 754 271 746 225 b 661 76 714 142 691 106 b 555 6 631 46 596 22 b 419 -19 514 -11 469 -19 b 285 6 370 -19 325 -11 b 179 76 244 22 209 46 b 110 183 150 106 127 142 b 86 321 94 225 86 271 b 110 458 86 371 94 416 b 179 564 127 499 150 534 b 285 633 209 594 244 617 b 419 658 325 650 370 658 b 555 633 469 658 514 650 b 661 564 596 617 631 594 b 730 458 691 534 714 499 b 754 321 746 416 754 371 m 724 321 b 703 442 724 363 717 404 b 642 541 689 480 669 513 b 547 608 616 569 584 591 b 419 632 509 624 467 632 b 293 608 372 632 330 624 b 198 541 256 591 224 569 b 138 442 172 513 151 480 b 117 321 124 404 117 363 b 138 199 117 277 124 237 b 198 99 151 161 172 128 b 293 32 224 71 256 49 b 419 7 330 15 372 7 b 547 32 467 7 509 15 b 642 99 584 49 616 71 b 703 199 669 128 689 161 b 724 321 717 237 724 277 m 475 783 l 449 783 l 294 983 l 332 983 "},"ó":{"ha":840,"x_min":0,"x_max":0,"o":"m 754 321 b 730 183 754 271 746 225 b 661 76 714 142 691 106 b 555 6 631 46 596 22 b 419 -19 514 -11 469 -19 b 285 6 370 -19 325 -11 b 179 76 244 22 209 46 b 110 183 150 106 127 142 b 86 321 94 225 86 271 b 110 458 86 371 94 416 b 179 564 127 499 150 534 b 285 633 209 594 244 617 b 419 658 325 650 370 658 b 555 633 469 658 514 650 b 661 564 596 617 631 594 b 730 458 691 534 714 499 b 754 321 746 416 754 371 m 724 321 b 703 442 724 363 717 404 b 642 541 689 480 669 513 b 547 608 616 569 584 591 b 419 632 509 624 467 632 b 293 608 372 632 330 624 b 198 541 256 591 224 569 b 138 442 172 513 151 480 b 117 321 124 404 117 363 b 138 199 117 277 124 237 b 198 99 151 161 172 128 b 293 32 224 71 256 49 b 419 7 330 15 372 7 b 547 32 467 7 509 15 b 642 99 584 49 616 71 b 703 199 669 128 689 161 b 724 321 717 237 724 277 m 371 783 l 514 983 l 551 983 l 397 783 "},"ô":{"ha":840,"x_min":0,"x_max":0,"o":"m 754 321 b 730 183 754 271 746 225 b 661 76 714 142 691 106 b 555 6 631 46 596 22 b 419 -19 514 -11 469 -19 b 285 6 370 -19 325 -11 b 179 76 244 22 209 46 b 110 183 150 106 127 142 b 86 321 94 225 86 271 b 110 458 86 371 94 416 b 179 564 127 499 150 534 b 285 633 209 594 244 617 b 419 658 325 650 370 658 b 555 633 469 658 514 650 b 661 564 596 617 631 594 b 730 458 691 534 714 499 b 754 321 746 416 754 371 m 724 321 b 703 442 724 363 717 404 b 642 541 689 480 669 513 b 547 608 616 569 584 591 b 419 632 509 624 467 632 b 293 608 372 632 330 624 b 198 541 256 591 224 569 b 138 442 172 513 151 480 b 117 321 124 404 117 363 b 138 199 117 277 124 237 b 198 99 151 161 172 128 b 293 32 224 71 256 49 b 419 7 330 15 372 7 b 547 32 467 7 509 15 b 642 99 584 49 616 71 b 703 199 669 128 689 161 b 724 321 717 237 724 277 m 585 783 l 553 783 l 422 967 l 292 783 l 260 783 l 403 983 l 442 983 "},"õ":{"ha":840,"x_min":0,"x_max":0,"o":"m 754 321 b 730 183 754 271 746 225 b 661 76 714 142 691 106 b 555 6 631 46 596 22 b 419 -19 514 -11 469 -19 b 285 6 370 -19 325 -11 b 179 76 244 22 209 46 b 110 183 150 106 127 142 b 86 321 94 225 86 271 b 110 458 86 371 94 416 b 179 564 127 499 150 534 b 285 633 209 594 244 617 b 419 658 325 650 370 658 b 555 633 469 658 514 650 b 661 564 596 617 631 594 b 730 458 691 534 714 499 b 754 321 746 416 754 371 m 724 321 b 703 442 724 363 717 404 b 642 541 689 480 669 513 b 547 608 616 569 584 591 b 419 632 509 624 467 632 b 293 608 372 632 330 624 b 198 541 256 591 224 569 b 138 442 172 513 151 480 b 117 321 124 404 117 363 b 138 199 117 277 124 237 b 198 99 151 161 172 128 b 293 32 224 71 256 49 b 419 7 330 15 372 7 b 547 32 467 7 509 15 b 642 99 584 49 616 71 b 703 199 669 128 689 161 b 724 321 717 237 724 277 m 426 886 b 457 868 438 879 449 873 b 478 858 465 863 472 860 b 494 853 484 855 490 854 b 508 853 498 853 503 853 b 564 919 539 853 557 875 l 586 919 b 558 848 582 886 573 862 b 508 826 544 834 527 826 b 469 833 494 826 480 829 b 419 860 457 838 441 847 b 368 888 395 875 378 884 b 338 893 358 891 348 893 b 282 822 308 893 289 869 l 260 822 b 288 896 263 856 273 880 b 338 919 302 912 319 919 b 378 913 352 919 366 917 b 426 886 390 908 406 899 "},"ö":{"ha":840,"x_min":0,"x_max":0,"o":"m 754 321 b 730 183 754 271 746 225 b 661 76 714 142 691 106 b 555 6 631 46 596 22 b 419 -19 514 -11 469 -19 b 285 6 370 -19 325 -11 b 179 76 244 22 209 46 b 110 183 150 106 127 142 b 86 321 94 225 86 271 b 110 458 86 371 94 416 b 179 564 127 499 150 534 b 285 633 209 594 244 617 b 419 658 325 650 370 658 b 555 633 469 658 514 650 b 661 564 596 617 631 594 b 730 458 691 534 714 499 b 754 321 746 416 754 371 m 724 321 b 703 442 724 363 717 404 b 642 541 689 480 669 513 b 547 608 616 569 584 591 b 419 632 509 624 467 632 b 293 608 372 632 330 624 b 198 541 256 591 224 569 b 138 442 172 513 151 480 b 117 321 124 404 117 363 b 138 199 117 277 124 237 b 198 99 151 161 172 128 b 293 32 224 71 256 49 b 419 7 330 15 372 7 b 547 32 467 7 509 15 b 642 99 584 49 616 71 b 703 199 669 128 689 161 b 724 321 717 237 724 277 m 315 879 b 293 889 307 879 300 882 b 283 915 287 895 283 904 b 293 940 283 925 287 934 b 315 950 300 947 307 950 b 338 940 324 950 331 947 b 347 915 344 934 347 925 b 337 889 347 904 344 895 b 315 879 330 882 323 879 m 529 879 b 507 889 521 879 513 882 b 497 915 500 895 497 904 b 507 940 497 925 500 934 b 529 950 513 947 521 950 b 551 940 538 950 545 947 b 561 915 558 934 561 925 b 551 889 561 904 558 895 b 529 879 544 882 537 879 "},"÷":{"ha":925,"x_min":0,"x_max":0,"o":"m 513 653 b 497 615 513 638 507 625 b 463 600 487 605 475 600 b 428 615 450 600 438 605 b 414 653 419 625 414 638 b 428 690 414 668 419 680 b 463 706 438 700 450 706 b 497 690 475 706 487 700 b 513 653 507 680 513 668 m 131 435 l 796 435 l 796 407 l 131 407 m 513 189 b 497 151 513 174 507 162 b 463 136 487 141 475 136 b 428 151 450 136 438 141 b 414 189 419 162 414 174 b 428 227 414 205 419 217 b 463 242 437 237 449 242 b 497 226 475 242 487 237 b 513 189 507 216 513 204 "},"ø":{"ha":840,"x_min":0,"x_max":0,"o":"m 665 558 b 731 456 693 530 715 495 b 754 321 746 416 754 371 b 730 183 754 271 746 225 b 661 76 714 142 691 106 b 555 6 631 46 596 22 b 419 -19 514 -11 469 -19 b 287 6 371 -19 327 -11 b 182 75 247 22 212 45 l 90 -17 l 71 1 l 164 94 b 107 195 140 123 121 157 b 86 321 93 234 86 275 b 110 458 86 371 94 416 b 179 564 127 499 150 534 b 285 633 209 594 244 617 b 419 658 325 650 370 658 b 545 638 465 658 507 651 b 647 578 584 624 618 604 l 729 660 l 749 640 l 665 558 m 203 96 b 295 31 228 68 259 46 b 419 7 332 15 373 7 b 547 32 467 7 509 15 b 642 99 584 49 616 71 b 703 199 669 128 689 161 b 724 321 717 237 724 277 b 703 439 724 363 717 402 b 644 538 690 476 670 509 l 203 96 m 626 557 b 536 612 600 580 570 598 b 419 632 502 625 463 632 b 293 608 372 632 330 624 b 198 541 256 591 224 569 b 138 442 172 513 151 480 b 117 321 124 404 117 363 b 134 210 117 282 122 245 b 185 115 146 175 163 143 l 626 557 "},"ù":{"ha":794,"x_min":0,"x_max":0,"o":"m 614 168 b 573 88 604 138 590 112 b 514 29 556 65 536 45 b 442 -7 492 13 468 1 b 361 -19 416 -15 389 -19 b 250 4 317 -19 280 -12 b 179 67 220 20 197 41 b 142 154 162 93 149 122 b 131 253 134 187 131 219 l 131 639 l 161 639 l 161 256 b 169 172 161 229 164 201 b 201 92 175 142 185 116 b 262 31 216 68 236 47 b 361 7 287 15 320 7 b 460 28 396 7 429 14 b 541 90 491 43 518 63 b 595 188 564 117 582 150 b 615 319 609 227 615 270 l 615 639 l 646 639 l 646 161 b 647 124 646 151 646 138 b 648 78 647 109 647 94 b 650 35 648 63 649 49 b 653 0 651 21 652 9 l 622 0 b 620 35 621 9 621 21 b 619 80 620 49 619 64 b 617 127 618 96 618 112 b 617 168 617 142 617 156 l 614 168 m 424 783 l 397 783 l 243 983 l 281 983 "},"ú":{"ha":794,"x_min":0,"x_max":0,"o":"m 614 168 b 573 88 604 138 590 112 b 514 29 556 65 536 45 b 442 -7 492 13 468 1 b 361 -19 416 -15 389 -19 b 250 4 317 -19 280 -12 b 179 67 220 20 197 41 b 142 154 162 93 149 122 b 131 253 134 187 131 219 l 131 639 l 161 639 l 161 256 b 169 172 161 229 164 201 b 201 92 175 142 185 116 b 262 31 216 68 236 47 b 361 7 287 15 320 7 b 460 28 396 7 429 14 b 541 90 491 43 518 63 b 595 188 564 117 582 150 b 615 319 609 227 615 270 l 615 639 l 646 639 l 646 161 b 647 124 646 151 646 138 b 648 78 647 109 647 94 b 650 35 648 63 649 49 b 653 0 651 21 652 9 l 622 0 b 620 35 621 9 621 21 b 619 80 620 49 619 64 b 617 127 618 96 618 112 b 617 168 617 142 617 156 l 614 168 m 338 783 l 481 983 l 518 983 l 364 783 "},"û":{"ha":794,"x_min":0,"x_max":0,"o":"m 614 168 b 573 88 604 138 590 112 b 514 29 556 65 536 45 b 442 -7 492 13 468 1 b 361 -19 416 -15 389 -19 b 250 4 317 -19 280 -12 b 179 67 220 20 197 41 b 142 154 162 93 149 122 b 131 253 134 187 131 219 l 131 639 l 161 639 l 161 256 b 169 172 161 229 164 201 b 201 92 175 142 185 116 b 262 31 216 68 236 47 b 361 7 287 15 320 7 b 460 28 396 7 429 14 b 541 90 491 43 518 63 b 595 188 564 117 582 150 b 615 319 609 227 615 270 l 615 639 l 646 639 l 646 161 b 647 124 646 151 646 138 b 648 78 647 109 647 94 b 650 35 648 63 649 49 b 653 0 651 21 652 9 l 622 0 b 620 35 621 9 621 21 b 619 80 620 49 619 64 b 617 127 618 96 618 112 b 617 168 617 142 617 156 l 614 168 m 549 783 l 517 783 l 386 967 l 256 783 l 224 783 l 367 983 l 406 983 "},"ü":{"ha":794,"x_min":0,"x_max":0,"o":"m 614 168 b 573 88 604 138 590 112 b 514 29 556 65 536 45 b 442 -7 492 13 468 1 b 361 -19 416 -15 389 -19 b 250 4 317 -19 280 -12 b 179 67 220 20 197 41 b 142 154 162 93 149 122 b 131 253 134 187 131 219 l 131 639 l 161 639 l 161 256 b 169 172 161 229 164 201 b 201 92 175 142 185 116 b 262 31 216 68 236 47 b 361 7 287 15 320 7 b 460 28 396 7 429 14 b 541 90 491 43 518 63 b 595 188 564 117 582 150 b 615 319 609 227 615 270 l 615 639 l 646 639 l 646 161 b 647 124 646 151 646 138 b 648 78 647 109 647 94 b 650 35 648 63 649 49 b 653 0 651 21 652 9 l 622 0 b 620 35 621 9 621 21 b 619 80 620 49 619 64 b 617 127 618 96 618 112 b 617 168 617 142 617 156 l 614 168 m 279 879 b 257 889 271 879 263 882 b 247 915 250 895 247 904 b 257 940 247 925 250 934 b 279 950 263 947 271 950 b 301 940 288 950 295 947 b 311 915 308 934 311 925 b 301 889 311 904 308 895 b 279 879 294 882 287 879 m 493 879 b 471 889 485 879 477 882 b 461 915 464 895 461 904 b 471 940 461 925 464 934 b 493 950 477 947 485 950 b 515 940 501 950 509 947 b 525 915 522 934 525 925 b 515 889 525 904 522 895 b 493 879 508 882 500 879 "},"ý":{"ha":594,"x_min":0,"x_max":0,"o":"m 244 -211 b 185 -303 230 -251 210 -282 b 90 -336 161 -325 129 -336 b 61 -333 82 -336 72 -335 b 33 -326 50 -331 41 -329 l 42 -300 b 65 -306 47 -302 55 -304 b 93 -308 74 -307 84 -308 b 144 -297 113 -308 129 -305 b 181 -269 158 -290 170 -280 b 206 -229 191 -257 199 -244 b 225 -185 213 -214 219 -200 l 286 -18 l 33 639 l 67 639 l 301 17 l 528 639 l 561 639 l 244 -211 m 269 783 l 413 983 l 450 983 l 296 783 "},"þ":{"ha":869,"x_min":0,"x_max":0,"o":"m 176 465 b 295 610 204 529 244 577 b 464 658 347 642 403 658 b 594 633 511 658 554 650 b 695 562 633 616 667 592 b 760 454 723 532 745 496 b 783 318 776 413 783 367 b 760 184 783 270 775 225 b 694 77 744 143 722 107 b 592 6 666 47 632 23 b 464 -19 553 -11 510 -19 b 374 -7 433 -19 403 -15 b 293 30 345 1 318 14 b 225 90 268 46 245 66 b 176 172 205 113 188 141 l 172 172 l 172 -333 l 142 -333 l 142 1050 l 172 1050 l 172 465 l 176 465 m 753 318 b 733 438 753 360 746 400 b 675 538 719 475 700 509 b 584 606 650 566 620 589 b 464 632 548 623 508 632 b 347 607 421 632 382 624 b 254 540 311 590 280 568 b 193 440 228 511 208 478 b 171 319 178 402 171 362 b 193 199 171 277 178 237 b 254 99 208 161 228 128 b 347 32 280 71 311 49 b 464 7 382 15 421 7 b 584 32 508 7 548 15 b 675 99 620 49 650 71 b 733 199 700 128 719 161 b 753 318 746 237 753 276 "},"ÿ":{"ha":594,"x_min":0,"x_max":0,"o":"m 244 -211 b 185 -303 230 -251 210 -282 b 90 -336 161 -325 129 -336 b 61 -333 82 -336 72 -335 b 33 -326 50 -331 41 -329 l 42 -300 b 65 -306 47 -302 55 -304 b 93 -308 74 -307 84 -308 b 144 -297 113 -308 129 -305 b 181 -269 158 -290 170 -280 b 206 -229 191 -257 199 -244 b 225 -185 213 -214 219 -200 l 286 -18 l 33 639 l 67 639 l 301 17 l 528 639 l 561 639 l 244 -211 m 194 879 b 172 889 186 879 179 882 b 163 915 166 895 163 904 b 172 940 163 925 166 934 b 194 950 179 947 186 950 b 217 940 203 950 210 947 b 226 915 223 934 226 925 b 216 889 226 904 223 895 b 194 879 209 882 202 879 m 408 879 b 386 889 400 879 393 882 b 376 915 380 895 376 904 b 386 940 376 925 380 934 b 408 950 393 947 400 950 b 431 940 417 950 424 947 b 440 915 437 934 440 925 b 430 889 440 904 437 895 b 408 879 423 882 416 879 "},"¤":{"ha":778,"x_min":0,"x_max":0,"o":"m 603 164 b 508 108 576 140 544 121 b 390 88 472 94 433 88 b 272 108 347 88 307 94 b 178 165 236 121 205 140 l 53 42 l 33 63 l 157 186 b 101 282 133 213 114 245 b 81 404 87 319 81 360 b 99 520 81 446 87 484 b 153 614 112 556 130 587 l 33 732 l 54 753 l 172 635 b 268 697 199 662 231 682 b 390 718 305 711 346 718 b 512 697 435 718 475 711 b 607 636 548 682 580 662 l 724 753 l 744 732 l 628 615 b 683 522 652 588 670 557 b 701 404 695 486 701 447 b 681 281 701 360 694 319 b 622 183 667 244 647 211 l 744 63 l 725 42 l 603 164 m 674 404 b 654 517 674 444 667 481 b 598 608 641 552 622 582 b 508 670 573 634 544 655 b 390 693 473 685 434 693 b 272 670 347 693 307 685 b 183 608 237 655 207 634 b 128 517 159 582 141 552 b 108 404 115 481 108 444 b 128 290 108 363 115 325 b 183 197 141 255 159 224 b 272 134 207 170 237 149 b 390 111 307 119 347 111 b 508 134 434 111 473 119 b 598 197 544 149 573 170 b 654 290 622 224 641 255 b 674 404 667 325 674 363 "},"¦":{"ha":308,"x_min":0,"x_max":0,"o":"m 143 938 l 167 938 l 167 478 l 143 478 m 143 217 l 167 217 l 167 -243 l 143 -243 "},"¨":{"ha":333,"x_min":0,"x_max":0,"o":"m 60 879 b 38 889 51 879 44 882 b 28 915 31 895 28 904 b 38 940 28 925 31 934 b 60 950 44 947 51 950 b 82 940 68 950 75 947 b 92 915 88 934 92 925 b 81 889 92 904 88 895 b 60 879 74 882 67 879 m 274 879 b 251 889 265 879 258 882 b 242 915 245 895 242 904 b 251 940 242 925 245 934 b 274 950 258 947 265 950 b 296 940 282 950 289 947 b 306 915 302 934 306 925 b 295 889 306 904 302 895 b 274 879 288 882 281 879 "},"´":{"ha":333,"x_min":0,"x_max":0,"o":"m 125 783 l 268 983 l 306 983 l 151 783 "},"¸":{"ha":333,"x_min":0,"x_max":0,"o":"m 304 -203 b 288 -258 304 -225 299 -243 b 249 -292 278 -272 264 -283 b 198 -309 233 -300 216 -306 b 149 -314 180 -312 163 -314 b 88 -307 131 -314 111 -312 b 24 -286 66 -302 44 -295 l 31 -262 b 91 -282 48 -272 68 -278 b 150 -287 114 -286 133 -287 b 192 -284 164 -287 178 -286 b 233 -272 207 -282 220 -278 b 263 -246 245 -266 255 -257 b 275 -203 271 -235 275 -220 b 265 -167 275 -188 272 -176 b 241 -145 259 -157 251 -150 b 209 -135 231 -140 221 -137 b 175 -132 197 -133 186 -132 b 126 -137 162 -132 146 -134 b 79 -153 106 -141 90 -146 l 65 -140 l 161 0 l 190 0 l 108 -119 b 146 -110 121 -115 134 -112 b 183 -108 158 -109 170 -108 b 226 -113 197 -108 211 -110 b 265 -128 240 -116 253 -122 b 293 -158 276 -135 286 -145 b 304 -203 300 -170 304 -185 "},"¼":{"ha":1111,"x_min":0,"x_max":0,"o":"m 632 179 l 889 590 l 932 590 l 932 174 l 1025 174 l 1025 149 l 932 149 l 932 0 l 904 0 l 904 149 l 632 149 m 904 558 l 900 558 l 660 174 l 904 174 m 217 -22 l 828 1022 l 850 1007 l 239 -37 m 235 953 l 101 864 l 85 886 l 236 983 l 265 983 l 265 400 l 235 400 "},"½":{"ha":1111,"x_min":0,"x_max":0,"o":"m 217 -22 l 828 1022 l 850 1007 l 239 -37 m 1010 0 l 664 0 l 664 28 l 878 263 b 929 324 899 286 916 306 b 960 373 942 342 952 359 b 975 412 967 387 972 400 b 979 446 978 423 979 435 b 942 541 979 488 967 519 b 847 574 918 563 886 574 b 762 549 815 574 786 566 b 710 469 737 533 720 506 l 683 478 b 746 571 694 521 715 552 b 847 599 776 589 810 599 b 968 555 901 599 941 584 b 1008 453 995 526 1008 492 b 1003 403 1008 434 1007 418 b 985 358 1000 389 994 374 b 949 307 977 343 965 325 b 890 240 934 288 914 266 l 694 25 l 1010 25 m 235 953 l 101 864 l 85 886 l 236 983 l 265 983 l 265 400 l 235 400 "},"¾":{"ha":1111,"x_min":0,"x_max":0,"o":"m 632 179 l 889 590 l 932 590 l 932 174 l 1025 174 l 1025 149 l 932 149 l 932 0 l 904 0 l 904 149 l 632 149 m 904 558 l 900 558 l 660 174 l 904 174 m 217 -22 l 828 1022 l 850 1007 l 239 -37 m 394 554 b 344 428 394 499 378 457 b 222 386 311 400 270 386 b 117 413 181 386 146 395 b 54 483 89 431 68 455 l 79 493 b 142 430 94 463 115 442 b 222 411 170 417 196 411 b 331 450 269 411 306 424 b 368 556 356 476 368 511 b 353 617 368 579 363 599 b 315 660 344 634 331 649 b 260 687 298 672 280 681 b 200 696 241 693 220 696 l 176 696 l 176 721 l 199 721 b 310 761 249 721 286 734 b 347 853 335 788 347 819 b 310 946 347 894 335 925 b 222 976 285 966 256 976 b 153 960 197 976 174 971 b 104 917 131 949 115 934 l 83 932 b 141 982 99 953 118 970 b 222 1000 164 994 191 1000 b 335 960 272 1000 310 987 b 374 853 361 933 374 897 b 339 753 374 811 362 778 b 246 710 316 729 285 714 l 246 707 b 356 659 293 702 330 686 b 394 554 381 632 394 597 "},"Ā":{"ha":925,"x_min":0,"x_max":0,"o":"m 750 282 l 179 282 l 58 0 l 25 0 l 451 983 l 490 983 l 900 0 l 867 0 m 190 308 l 740 308 l 469 964 m 308 1168 l 631 1168 l 631 1140 l 308 1140 "},"ā":{"ha":711,"x_min":0,"x_max":0,"o":"m 581 144 b 584 67 581 120 582 95 b 592 0 586 40 589 18 l 563 0 b 558 34 561 9 559 21 b 555 76 557 47 556 61 b 552 118 553 90 553 104 b 551 153 552 132 551 144 l 547 153 b 451 23 529 94 497 51 b 306 -19 406 -5 357 -19 b 228 -8 280 -19 254 -16 b 160 25 203 -1 180 10 b 110 82 139 40 123 59 b 92 164 98 105 92 132 b 127 274 92 209 103 246 b 215 338 151 301 180 323 b 328 368 250 353 288 363 b 439 375 369 373 406 375 l 550 375 l 550 426 b 493 583 550 498 531 550 b 344 632 455 616 406 632 b 238 611 306 632 271 625 b 150 556 205 597 176 579 l 133 579 b 234 638 163 605 197 625 b 344 658 272 652 308 658 b 517 602 418 658 475 640 b 581 425 559 565 581 506 l 581 144 m 451 349 b 340 342 416 349 379 347 b 233 317 301 338 266 330 b 153 261 201 304 174 285 b 122 164 133 237 122 205 b 140 90 122 134 128 109 b 184 42 151 70 166 54 b 244 15 202 30 222 21 b 306 7 266 10 286 7 b 424 33 353 7 392 16 b 499 101 455 51 480 73 b 539 191 518 128 531 158 b 550 288 546 224 550 256 l 550 349 m 203 890 l 525 890 l 525 863 l 203 863 "},"Ă":{"ha":925,"x_min":0,"x_max":0,"o":"m 750 282 l 179 282 l 58 0 l 25 0 l 451 983 l 490 983 l 900 0 l 867 0 m 190 308 l 740 308 l 469 964 m 644 1247 b 584 1117 635 1191 615 1147 b 468 1072 553 1087 514 1072 b 353 1117 423 1072 384 1087 b 296 1247 322 1147 303 1191 l 322 1247 b 375 1138 331 1199 349 1163 b 468 1100 401 1113 432 1100 b 567 1135 510 1100 543 1112 b 619 1247 591 1158 608 1195 l 644 1247 "},"ă":{"ha":711,"x_min":0,"x_max":0,"o":"m 581 144 b 584 67 581 120 582 95 b 592 0 586 40 589 18 l 563 0 b 558 34 561 9 559 21 b 555 76 557 47 556 61 b 552 118 553 90 553 104 b 551 153 552 132 551 144 l 547 153 b 451 23 529 94 497 51 b 306 -19 406 -5 357 -19 b 228 -8 280 -19 254 -16 b 160 25 203 -1 180 10 b 110 82 139 40 123 59 b 92 164 98 105 92 132 b 127 274 92 209 103 246 b 215 338 151 301 180 323 b 328 368 250 353 288 363 b 439 375 369 373 406 375 l 550 375 l 550 426 b 493 583 550 498 531 550 b 344 632 455 616 406 632 b 238 611 306 632 271 625 b 150 556 205 597 176 579 l 133 579 b 234 638 163 605 197 625 b 344 658 272 652 308 658 b 517 602 418 658 475 640 b 581 425 559 565 581 506 l 581 144 m 451 349 b 340 342 416 349 379 347 b 233 317 301 338 266 330 b 153 261 201 304 174 285 b 122 164 133 237 122 205 b 140 90 122 134 128 109 b 184 42 151 70 166 54 b 244 15 202 30 222 21 b 306 7 266 10 286 7 b 424 33 353 7 392 16 b 499 101 455 51 480 73 b 539 191 518 128 531 158 b 550 288 546 224 550 256 l 550 349 m 539 969 b 478 840 530 913 509 870 b 363 794 447 809 409 794 b 248 840 317 794 279 809 b 190 969 217 870 198 913 l 217 969 b 269 860 226 921 244 885 b 363 822 295 835 326 822 b 461 857 404 822 437 834 b 514 969 485 880 503 918 l 539 969 "},"Ą":{"ha":925,"x_min":0,"x_max":0,"o":"m 971 -267 b 919 -298 956 -280 939 -290 b 857 -310 899 -306 878 -310 b 774 -281 825 -310 797 -300 b 740 -199 752 -261 740 -234 b 779 -97 740 -162 753 -128 b 868 0 805 -65 835 -32 l 867 0 l 750 282 l 179 282 l 58 0 l 25 0 l 451 983 l 490 983 l 900 0 b 803 -106 857 -43 825 -78 b 771 -196 782 -134 771 -164 b 796 -261 771 -224 779 -245 b 861 -285 813 -277 834 -285 b 915 -274 880 -285 897 -281 b 957 -244 932 -266 946 -256 l 971 -267 m 190 308 l 740 308 l 469 964 "},"ą":{"ha":711,"x_min":0,"x_max":0,"o":"m 664 -267 b 612 -298 649 -280 632 -290 b 550 -310 592 -306 571 -310 b 467 -281 518 -310 490 -300 b 433 -199 445 -261 433 -234 b 472 -97 433 -162 446 -128 b 561 0 498 -65 528 -32 l 563 0 b 558 34 561 9 559 21 b 555 76 557 47 556 61 b 552 118 553 90 553 104 b 551 153 552 132 551 144 l 547 153 b 451 23 529 94 497 51 b 306 -19 406 -5 357 -19 b 228 -8 280 -19 254 -16 b 160 25 203 -1 180 10 b 110 82 139 40 123 59 b 92 164 98 105 92 132 b 127 274 92 209 103 246 b 215 338 151 301 180 323 b 328 368 250 353 288 363 b 439 375 369 373 406 375 l 550 375 l 550 426 b 493 583 550 498 531 550 b 344 632 455 616 406 632 b 238 611 306 632 271 625 b 150 556 205 597 176 579 l 133 579 b 234 638 163 605 197 625 b 344 658 272 652 308 658 b 517 602 418 658 475 640 b 581 425 559 565 581 506 l 581 144 b 584 67 581 120 582 95 b 592 0 586 40 589 18 l 593 0 b 497 -106 550 -43 518 -78 b 464 -196 475 -134 464 -164 b 489 -261 464 -224 472 -245 b 554 -285 506 -277 527 -285 b 608 -274 573 -285 591 -281 b 650 -244 625 -266 639 -256 l 664 -267 m 451 349 b 340 342 416 349 379 347 b 233 317 301 338 266 330 b 153 261 201 304 174 285 b 122 164 133 237 122 205 b 140 90 122 134 128 109 b 184 42 151 70 166 54 b 244 15 202 30 222 21 b 306 7 266 10 286 7 b 424 33 353 7 392 16 b 499 101 455 51 480 73 b 539 191 518 128 531 158 b 550 288 546 224 550 256 l 550 349 "},"Ć":{"ha":1006,"x_min":0,"x_max":0,"o":"m 953 121 b 795 9 911 71 859 34 b 601 -28 732 -16 667 -28 b 399 11 527 -28 460 -15 b 240 119 338 37 285 73 b 137 283 196 165 161 219 b 100 492 112 347 100 417 b 137 700 100 567 112 636 b 240 865 161 764 196 819 b 399 972 285 910 338 946 b 601 1011 461 998 528 1011 b 780 980 663 1011 722 1001 b 928 885 838 959 887 927 l 908 863 b 842 916 889 883 867 901 b 765 954 818 931 792 944 b 682 976 737 964 710 972 b 601 983 654 981 627 983 b 409 945 531 983 467 971 b 260 840 351 920 302 885 b 165 684 219 796 187 744 b 131 492 142 624 131 560 b 164 299 131 423 142 359 b 259 143 186 240 218 188 b 408 38 300 99 350 64 b 601 0 466 13 530 0 b 783 35 663 0 723 12 b 931 142 842 59 892 94 l 953 121 m 544 1061 l 688 1261 l 725 1261 l 571 1061 "},"ć":{"ha":667,"x_min":0,"x_max":0,"o":"m 597 553 b 513 611 573 578 545 597 b 411 632 480 625 446 632 b 289 606 366 632 325 623 b 197 538 253 589 222 566 b 138 438 171 509 151 475 b 117 318 124 400 117 360 b 138 199 117 276 124 237 b 197 99 151 161 171 128 b 289 32 222 71 253 49 b 411 7 325 15 366 7 b 515 25 446 7 481 13 b 603 79 548 37 578 55 l 624 60 b 526 -1 596 32 563 12 b 411 -19 488 -13 450 -19 b 281 6 364 -19 321 -11 b 178 75 242 22 208 45 b 110 182 149 105 127 140 b 86 318 94 224 86 269 b 110 454 86 367 94 413 b 178 562 127 496 149 532 b 281 633 208 592 242 616 b 411 658 321 650 364 658 b 527 636 452 658 491 651 b 621 574 564 621 595 600 l 597 553 m 369 783 l 513 983 l 550 983 l 396 783 "},"Ĉ":{"ha":1006,"x_min":0,"x_max":0,"o":"m 953 121 b 795 9 911 71 859 34 b 601 -28 732 -16 667 -28 b 399 11 527 -28 460 -15 b 240 119 338 37 285 73 b 137 283 196 165 161 219 b 100 492 112 347 100 417 b 137 700 100 567 112 636 b 240 865 161 764 196 819 b 399 972 285 910 338 946 b 601 1011 461 998 528 1011 b 780 980 663 1011 722 1001 b 928 885 838 959 887 927 l 908 863 b 842 916 889 883 867 901 b 765 954 818 931 792 944 b 682 976 737 964 710 972 b 601 983 654 981 627 983 b 409 945 531 983 467 971 b 260 840 351 920 302 885 b 165 684 219 796 187 744 b 131 492 142 624 131 560 b 164 299 131 423 142 359 b 259 143 186 240 218 188 b 408 38 300 99 350 64 b 601 0 466 13 530 0 b 783 35 663 0 723 12 b 931 142 842 59 892 94 l 953 121 m 764 1061 l 732 1061 l 601 1244 l 471 1061 l 439 1061 l 582 1261 l 621 1261 "},"ĉ":{"ha":667,"x_min":0,"x_max":0,"o":"m 597 553 b 513 611 573 578 545 597 b 411 632 480 625 446 632 b 289 606 366 632 325 623 b 197 538 253 589 222 566 b 138 438 171 509 151 475 b 117 318 124 400 117 360 b 138 199 117 276 124 237 b 197 99 151 161 171 128 b 289 32 222 71 253 49 b 411 7 325 15 366 7 b 515 25 446 7 481 13 b 603 79 548 37 578 55 l 624 60 b 526 -1 596 32 563 12 b 411 -19 488 -13 450 -19 b 281 6 364 -19 321 -11 b 178 75 242 22 208 45 b 110 182 149 105 127 140 b 86 318 94 224 86 269 b 110 454 86 367 94 413 b 178 562 127 496 149 532 b 281 633 208 592 242 616 b 411 658 321 650 364 658 b 527 636 452 658 491 651 b 621 574 564 621 595 600 l 597 553 m 574 783 l 542 783 l 411 967 l 281 783 l 249 783 l 392 983 l 431 983 "},"Ċ":{"ha":1006,"x_min":0,"x_max":0,"o":"m 953 121 b 795 9 911 71 859 34 b 601 -28 732 -16 667 -28 b 399 11 527 -28 460 -15 b 240 119 338 37 285 73 b 137 283 196 165 161 219 b 100 492 112 347 100 417 b 137 700 100 567 112 636 b 240 865 161 764 196 819 b 399 972 285 910 338 946 b 601 1011 461 998 528 1011 b 780 980 663 1011 722 1001 b 928 885 838 959 887 927 l 908 863 b 842 916 889 883 867 901 b 765 954 818 931 792 944 b 682 976 737 964 710 972 b 601 983 654 981 627 983 b 409 945 531 983 467 971 b 260 840 351 920 302 885 b 165 684 219 796 187 744 b 131 492 142 624 131 560 b 164 299 131 423 142 359 b 259 143 186 240 218 188 b 408 38 300 99 350 64 b 601 0 466 13 530 0 b 783 35 663 0 723 12 b 931 142 842 59 892 94 l 953 121 m 600 1157 b 578 1167 592 1157 584 1160 b 568 1193 571 1173 568 1182 b 578 1218 568 1203 571 1212 b 600 1228 584 1225 592 1228 b 622 1218 608 1228 616 1225 b 632 1193 629 1212 632 1203 b 622 1167 632 1182 628 1173 b 600 1157 615 1160 607 1157 "},"ċ":{"ha":667,"x_min":0,"x_max":0,"o":"m 597 553 b 513 611 573 578 545 597 b 411 632 480 625 446 632 b 289 606 366 632 325 623 b 197 538 253 589 222 566 b 138 438 171 509 151 475 b 117 318 124 400 117 360 b 138 199 117 276 124 237 b 197 99 151 161 171 128 b 289 32 222 71 253 49 b 411 7 325 15 366 7 b 515 25 446 7 481 13 b 603 79 548 37 578 55 l 624 60 b 526 -1 596 32 563 12 b 411 -19 488 -13 450 -19 b 281 6 364 -19 321 -11 b 178 75 242 22 208 45 b 110 182 149 105 127 140 b 86 318 94 224 86 269 b 110 454 86 367 94 413 b 178 562 127 496 149 532 b 281 633 208 592 242 616 b 411 658 321 650 364 658 b 527 636 452 658 491 651 b 621 574 564 621 595 600 l 597 553 m 407 879 b 385 889 399 879 391 882 b 375 915 378 895 375 904 b 385 940 375 925 378 934 b 407 950 391 947 399 950 b 429 940 415 950 423 947 b 439 915 436 934 439 925 b 428 889 439 904 435 895 b 407 879 422 882 414 879 "},"Č":{"ha":1006,"x_min":0,"x_max":0,"o":"m 953 121 b 795 9 911 71 859 34 b 601 -28 732 -16 667 -28 b 399 11 527 -28 460 -15 b 240 119 338 37 285 73 b 137 283 196 165 161 219 b 100 492 112 347 100 417 b 137 700 100 567 112 636 b 240 865 161 764 196 819 b 399 972 285 910 338 946 b 601 1011 461 998 528 1011 b 780 980 663 1011 722 1001 b 928 885 838 959 887 927 l 908 863 b 842 916 889 883 867 901 b 765 954 818 931 792 944 b 682 976 737 964 710 972 b 601 983 654 981 627 983 b 409 945 531 983 467 971 b 260 840 351 920 302 885 b 165 684 219 796 187 744 b 131 492 142 624 131 560 b 164 299 131 423 142 359 b 259 143 186 240 218 188 b 408 38 300 99 350 64 b 601 0 466 13 530 0 b 783 35 663 0 723 12 b 931 142 842 59 892 94 l 953 121 m 439 1261 l 471 1261 l 601 1078 l 732 1261 l 764 1261 l 621 1061 l 582 1061 "},"č":{"ha":667,"x_min":0,"x_max":0,"o":"m 597 553 b 513 611 573 578 545 597 b 411 632 480 625 446 632 b 289 606 366 632 325 623 b 197 538 253 589 222 566 b 138 438 171 509 151 475 b 117 318 124 400 117 360 b 138 199 117 276 124 237 b 197 99 151 161 171 128 b 289 32 222 71 253 49 b 411 7 325 15 366 7 b 515 25 446 7 481 13 b 603 79 548 37 578 55 l 624 60 b 526 -1 596 32 563 12 b 411 -19 488 -13 450 -19 b 281 6 364 -19 321 -11 b 178 75 242 22 208 45 b 110 182 149 105 127 140 b 86 318 94 224 86 269 b 110 454 86 367 94 413 b 178 562 127 496 149 532 b 281 633 208 592 242 616 b 411 658 321 650 364 658 b 527 636 452 658 491 651 b 621 574 564 621 595 600 l 597 553 m 243 983 l 275 983 l 406 800 l 536 983 l 568 983 l 425 783 l 386 783 "},"Ď":{"ha":1069,"x_min":0,"x_max":0,"o":"m 969 492 b 928 272 969 406 956 333 b 813 119 900 210 862 159 b 640 29 763 78 706 49 b 426 0 573 10 502 0 l 147 0 l 147 983 l 426 983 b 640 955 502 983 573 974 b 813 866 706 936 763 906 b 928 713 862 826 900 775 b 969 492 956 650 969 577 m 179 28 l 419 28 b 623 55 492 28 559 37 b 788 138 686 73 741 101 b 897 282 834 176 870 224 b 938 492 924 340 938 410 b 897 702 938 573 924 643 b 788 847 870 761 834 809 b 623 929 741 884 686 912 b 419 956 559 947 492 956 l 179 956 m 331 1261 l 363 1261 l 493 1078 l 624 1261 l 656 1261 l 513 1061 l 474 1061 "},"ď":{"ha":869,"x_min":0,"x_max":0,"o":"m 728 1050 l 728 0 l 697 0 l 697 172 l 693 172 b 574 29 665 109 626 62 b 406 -19 523 -3 467 -19 b 277 6 359 -19 316 -11 b 176 77 238 23 204 47 b 110 184 147 107 125 143 b 86 318 94 225 86 270 b 110 453 86 366 94 411 b 176 561 125 494 147 531 b 277 633 204 592 238 616 b 406 658 316 650 359 658 b 574 610 467 658 523 642 b 693 465 626 577 665 529 l 697 465 l 697 1050 m 117 318 b 137 199 117 276 123 237 b 194 99 150 161 169 128 b 285 32 219 71 250 49 b 406 7 321 15 361 7 b 523 32 448 7 487 15 b 615 99 559 49 589 71 b 676 199 641 128 662 161 b 699 319 691 237 699 277 b 676 440 699 362 691 402 b 615 540 662 478 641 511 b 523 607 589 568 559 590 b 406 632 487 624 448 632 b 285 606 361 632 321 623 b 194 538 250 589 219 566 b 137 438 169 509 150 475 b 117 318 123 400 117 360 m 814 726 l 885 983 l 918 983 l 838 726 "},"Đ":{"ha":1069,"x_min":0,"x_max":0,"o":"m 36 525 l 147 525 l 147 983 l 426 983 b 640 955 502 983 573 974 b 813 866 706 936 763 906 b 928 713 862 826 900 775 b 969 492 956 650 969 577 b 928 272 969 406 956 333 b 813 119 900 210 862 159 b 640 29 763 78 706 49 b 426 0 573 10 502 0 l 147 0 l 147 497 l 36 497 m 551 497 l 179 497 l 179 28 l 419 28 b 623 55 492 28 559 37 b 788 138 686 73 741 101 b 897 282 834 176 870 224 b 938 492 924 340 938 410 b 897 702 938 573 924 643 b 788 847 870 761 834 809 b 623 929 741 884 686 912 b 419 956 559 947 492 956 l 179 956 l 179 525 l 551 525 "},"đ":{"ha":869,"x_min":0,"x_max":0,"o":"m 728 0 l 697 0 l 697 172 l 693 172 b 574 29 665 109 626 62 b 406 -19 523 -3 467 -19 b 277 6 359 -19 316 -11 b 176 77 238 23 204 47 b 110 184 147 107 125 143 b 86 318 94 225 86 270 b 110 453 86 366 94 411 b 176 561 125 494 147 531 b 277 633 204 592 238 616 b 406 658 316 650 359 658 b 574 610 467 658 523 642 b 693 465 626 577 665 529 l 697 465 l 697 792 l 401 792 l 401 817 l 697 817 l 697 1050 l 728 1050 l 728 817 l 825 817 l 825 792 l 728 792 m 117 318 b 137 199 117 276 123 237 b 194 99 150 161 169 128 b 285 32 219 71 250 49 b 406 7 321 15 361 7 b 523 32 448 7 487 15 b 615 99 559 49 589 71 b 676 199 641 128 662 161 b 699 319 691 237 699 277 b 676 440 699 362 691 402 b 615 540 662 478 641 511 b 523 607 589 568 559 590 b 406 632 487 624 448 632 b 285 606 361 632 321 623 b 194 538 250 589 219 566 b 137 438 169 509 150 475 b 117 318 123 400 117 360 "},"Ē":{"ha":819,"x_min":0,"x_max":0,"o":"m 147 983 l 719 983 l 719 956 l 176 956 l 176 524 l 688 524 l 688 496 l 176 496 l 176 28 l 742 28 l 742 0 l 147 0 m 276 1168 l 599 1168 l 599 1140 l 276 1140 "},"ē":{"ha":772,"x_min":0,"x_max":0,"o":"m 117 326 b 134 211 117 288 122 249 b 187 109 146 173 163 139 b 276 36 210 79 240 55 b 404 8 313 18 355 8 b 538 38 454 8 499 18 b 639 125 576 58 610 87 l 661 106 b 551 13 630 65 593 34 b 404 -19 509 -9 460 -19 b 275 6 357 -19 314 -11 b 174 78 236 23 203 47 b 109 188 146 108 124 145 b 86 326 94 230 86 276 b 110 460 86 375 94 419 b 174 565 125 500 147 536 b 271 634 202 595 234 618 b 390 658 308 650 348 658 b 521 632 440 658 484 650 b 613 563 558 614 589 591 b 668 465 638 534 656 501 b 686 353 680 428 686 391 l 686 326 l 117 326 m 657 353 b 635 467 656 394 649 432 b 581 555 622 501 604 530 b 497 612 557 579 530 598 b 389 632 465 625 429 632 b 265 602 341 632 300 622 b 181 528 231 582 203 558 b 133 437 159 499 144 469 b 118 353 123 405 118 377 l 657 353 m 236 890 l 558 890 l 558 863 l 236 863 "},"Ĕ":{"ha":819,"x_min":0,"x_max":0,"o":"m 147 983 l 719 983 l 719 956 l 176 956 l 176 524 l 688 524 l 688 496 l 176 496 l 176 28 l 742 28 l 742 0 l 147 0 m 613 1247 b 552 1117 603 1191 583 1147 b 436 1072 521 1087 482 1072 b 322 1117 391 1072 353 1087 b 264 1247 291 1147 271 1191 l 290 1247 b 343 1138 300 1199 317 1163 b 436 1100 369 1113 400 1100 b 535 1135 478 1100 511 1112 b 588 1247 559 1158 576 1195 l 613 1247 "},"ĕ":{"ha":772,"x_min":0,"x_max":0,"o":"m 117 326 b 134 211 117 288 122 249 b 187 109 146 173 163 139 b 276 36 210 79 240 55 b 404 8 313 18 355 8 b 538 38 454 8 499 18 b 639 125 576 58 610 87 l 661 106 b 551 13 630 65 593 34 b 404 -19 509 -9 460 -19 b 275 6 357 -19 314 -11 b 174 78 236 23 203 47 b 109 188 146 108 124 145 b 86 326 94 230 86 276 b 110 460 86 375 94 419 b 174 565 125 500 147 536 b 271 634 202 595 234 618 b 390 658 308 650 348 658 b 521 632 440 658 484 650 b 613 563 558 614 589 591 b 668 465 638 534 656 501 b 686 353 680 428 686 391 l 686 326 l 117 326 m 657 353 b 635 467 656 394 649 432 b 581 555 622 501 604 530 b 497 612 557 579 530 598 b 389 632 465 625 429 632 b 265 602 341 632 300 622 b 181 528 231 582 203 558 b 133 437 159 499 144 469 b 118 353 123 405 118 377 l 657 353 m 575 969 b 515 840 566 913 546 870 b 399 794 484 809 445 794 b 284 840 353 794 315 809 b 226 969 253 870 234 913 l 253 969 b 306 860 262 921 280 885 b 399 822 331 835 363 822 b 497 857 440 822 473 834 b 550 969 521 880 539 918 l 575 969 "},"Ė":{"ha":819,"x_min":0,"x_max":0,"o":"m 147 983 l 719 983 l 719 956 l 176 956 l 176 524 l 688 524 l 688 496 l 176 496 l 176 28 l 742 28 l 742 0 l 147 0 m 438 1157 b 415 1167 429 1157 422 1160 b 406 1193 409 1173 406 1182 b 415 1218 406 1203 409 1212 b 438 1228 422 1225 429 1228 b 460 1218 446 1228 453 1225 b 469 1193 466 1212 469 1203 b 459 1167 469 1182 466 1173 b 438 1157 452 1160 445 1157 "},"ė":{"ha":772,"x_min":0,"x_max":0,"o":"m 117 326 b 134 211 117 288 122 249 b 187 109 146 173 163 139 b 276 36 210 79 240 55 b 404 8 313 18 355 8 b 538 38 454 8 499 18 b 639 125 576 58 610 87 l 661 106 b 551 13 630 65 593 34 b 404 -19 509 -9 460 -19 b 275 6 357 -19 314 -11 b 174 78 236 23 203 47 b 109 188 146 108 124 145 b 86 326 94 230 86 276 b 110 460 86 375 94 419 b 174 565 125 500 147 536 b 271 634 202 595 234 618 b 390 658 308 650 348 658 b 521 632 440 658 484 650 b 613 563 558 614 589 591 b 668 465 638 534 656 501 b 686 353 680 428 686 391 l 686 326 l 117 326 m 657 353 b 635 467 656 394 649 432 b 581 555 622 501 604 530 b 497 612 557 579 530 598 b 389 632 465 625 429 632 b 265 602 341 632 300 622 b 181 528 231 582 203 558 b 133 437 159 499 144 469 b 118 353 123 405 118 377 l 657 353 m 397 879 b 375 889 389 879 381 882 b 365 915 369 895 365 904 b 375 940 365 925 369 934 b 397 950 381 947 389 950 b 419 940 406 950 413 947 b 429 915 426 934 429 925 b 419 889 429 904 426 895 b 397 879 412 882 405 879 "},"Ę":{"ha":819,"x_min":0,"x_max":0,"o":"m 793 -267 b 741 -298 778 -280 761 -290 b 679 -310 721 -306 700 -310 b 597 -281 647 -310 619 -300 b 563 -199 574 -261 563 -234 b 601 -97 563 -162 575 -128 b 690 0 627 -65 657 -32 l 147 0 l 147 983 l 719 983 l 719 956 l 176 956 l 176 524 l 688 524 l 688 496 l 176 496 l 176 28 l 742 28 l 742 0 l 722 0 b 626 -106 680 -43 647 -78 b 593 -196 604 -134 593 -164 b 618 -261 593 -224 601 -245 b 683 -285 635 -277 656 -285 b 737 -274 702 -285 720 -281 b 779 -244 754 -266 768 -256 l 793 -267 "},"ę":{"ha":772,"x_min":0,"x_max":0,"o":"m 558 -267 b 506 -298 544 -280 526 -290 b 444 -310 486 -306 466 -310 b 362 -281 412 -310 384 -300 b 328 -199 339 -261 328 -234 b 360 -106 328 -166 338 -135 b 436 -18 381 -76 406 -47 b 421 -19 431 -18 426 -18 b 404 -19 415 -19 410 -19 b 275 6 357 -19 314 -11 b 174 78 236 23 203 47 b 109 188 146 108 124 145 b 86 326 94 230 86 276 b 110 460 86 375 94 419 b 174 565 125 500 147 536 b 271 634 202 595 234 618 b 390 658 308 650 348 658 b 521 632 440 658 484 650 b 613 563 558 614 589 591 b 668 465 638 534 656 501 b 686 353 680 428 686 391 l 686 326 l 117 326 b 134 211 117 288 122 249 b 187 109 146 173 163 139 b 276 36 210 79 240 55 b 404 8 313 18 355 8 b 538 38 454 8 499 18 b 639 125 576 58 610 87 l 661 106 b 475 -12 611 42 549 2 b 388 -110 437 -50 408 -83 b 358 -196 368 -138 358 -166 b 383 -261 358 -224 367 -245 b 449 -285 400 -277 422 -285 b 502 -274 467 -285 485 -281 b 544 -244 519 -266 533 -256 l 558 -267 m 657 353 b 635 467 656 394 649 432 b 581 555 622 501 604 530 b 497 612 557 579 530 598 b 389 632 465 625 429 632 b 265 602 341 632 300 622 b 181 528 231 582 203 558 b 133 437 159 499 144 469 b 118 353 123 405 118 377 l 657 353 "},"Ě":{"ha":819,"x_min":0,"x_max":0,"o":"m 147 983 l 719 983 l 719 956 l 176 956 l 176 524 l 688 524 l 688 496 l 176 496 l 176 28 l 742 28 l 742 0 l 147 0 m 275 1261 l 307 1261 l 438 1078 l 568 1261 l 600 1261 l 457 1061 l 418 1061 "},"ě":{"ha":772,"x_min":0,"x_max":0,"o":"m 117 326 b 134 211 117 288 122 249 b 187 109 146 173 163 139 b 276 36 210 79 240 55 b 404 8 313 18 355 8 b 538 38 454 8 499 18 b 639 125 576 58 610 87 l 661 106 b 551 13 630 65 593 34 b 404 -19 509 -9 460 -19 b 275 6 357 -19 314 -11 b 174 78 236 23 203 47 b 109 188 146 108 124 145 b 86 326 94 230 86 276 b 110 460 86 375 94 419 b 174 565 125 500 147 536 b 271 634 202 595 234 618 b 390 658 308 650 348 658 b 521 632 440 658 484 650 b 613 563 558 614 589 591 b 668 465 638 534 656 501 b 686 353 680 428 686 391 l 686 326 l 117 326 m 657 353 b 635 467 656 394 649 432 b 581 555 622 501 604 530 b 497 612 557 579 530 598 b 389 632 465 625 429 632 b 265 602 341 632 300 622 b 181 528 231 582 203 558 b 133 437 159 499 144 469 b 118 353 123 405 118 377 l 657 353 m 233 983 l 265 983 l 396 800 l 526 983 l 558 983 l 415 783 l 376 783 "},"Ĝ":{"ha":1104,"x_min":0,"x_max":0,"o":"m 971 57 b 824 -1 932 36 883 16 b 618 -28 764 -19 696 -28 b 406 13 540 -28 469 -14 b 242 123 342 39 287 76 b 137 288 196 170 161 225 b 100 494 112 352 100 420 b 138 701 100 569 113 637 b 242 865 163 764 197 819 b 404 972 287 910 341 946 b 613 1011 467 998 537 1011 b 796 981 679 1011 740 1001 b 943 897 851 960 900 932 l 921 875 b 856 922 902 893 881 908 b 778 956 832 935 806 946 b 694 976 751 965 723 972 b 611 983 666 981 638 983 b 414 945 539 983 473 971 b 262 840 355 920 304 885 b 165 685 220 796 187 744 b 131 494 142 625 131 562 b 164 303 131 427 142 363 b 260 145 186 243 218 190 b 415 39 303 100 354 65 b 621 0 475 13 544 0 b 799 21 688 0 747 7 b 942 74 850 35 898 52 l 942 460 l 686 460 l 686 486 l 971 486 l 971 57 m 767 1061 l 735 1061 l 604 1244 l 474 1061 l 442 1061 l 585 1261 l 624 1261 "},"ĝ":{"ha":869,"x_min":0,"x_max":0,"o":"m 693 172 b 644 90 681 141 665 113 b 576 30 624 66 601 46 b 495 -7 551 14 524 1 b 406 -19 466 -15 436 -19 b 277 6 359 -19 316 -11 b 176 77 238 23 204 47 b 110 184 147 107 125 143 b 86 318 94 225 86 270 b 110 453 86 366 94 411 b 176 561 125 494 147 531 b 277 633 204 592 238 616 b 406 658 316 650 359 658 b 574 610 467 658 523 642 b 693 465 626 577 665 529 l 697 465 l 697 639 l 728 639 l 728 36 b 712 -110 728 -15 722 -63 b 659 -232 701 -156 684 -197 b 562 -316 634 -267 602 -295 b 413 -347 522 -337 472 -347 b 251 -316 352 -347 299 -337 b 131 -228 204 -295 164 -266 l 151 -207 b 272 -294 187 -247 227 -276 b 413 -321 316 -312 363 -321 b 551 -290 468 -321 514 -311 b 639 -210 588 -270 618 -243 b 684 -95 660 -176 675 -138 b 697 39 693 -52 697 -7 l 697 172 m 117 318 b 137 199 117 276 123 237 b 194 99 150 161 169 127 b 285 31 219 70 250 47 b 406 6 321 14 361 6 b 523 31 448 6 487 14 b 615 99 559 47 589 70 b 676 199 641 127 662 161 b 699 319 691 237 699 277 b 676 440 699 362 691 402 b 615 540 662 478 641 511 b 523 607 589 568 559 590 b 406 632 487 624 448 632 b 285 606 361 632 321 623 b 194 538 250 589 219 566 b 137 438 169 509 150 475 b 117 318 123 400 117 360 m 589 783 l 557 783 l 426 967 l 296 783 l 264 783 l 407 983 l 446 983 "},"Ğ":{"ha":1104,"x_min":0,"x_max":0,"o":"m 971 57 b 824 -1 932 36 883 16 b 618 -28 764 -19 696 -28 b 406 13 540 -28 469 -14 b 242 123 342 39 287 76 b 137 288 196 170 161 225 b 100 494 112 352 100 420 b 138 701 100 569 113 637 b 242 865 163 764 197 819 b 404 972 287 910 341 946 b 613 1011 467 998 537 1011 b 796 981 679 1011 740 1001 b 943 897 851 960 900 932 l 921 875 b 856 922 902 893 881 908 b 778 956 832 935 806 946 b 694 976 751 965 723 972 b 611 983 666 981 638 983 b 414 945 539 983 473 971 b 262 840 355 920 304 885 b 165 685 220 796 187 744 b 131 494 142 625 131 562 b 164 303 131 427 142 363 b 260 145 186 243 218 190 b 415 39 303 100 354 65 b 621 0 475 13 544 0 b 799 21 688 0 747 7 b 942 74 850 35 898 52 l 942 460 l 686 460 l 686 486 l 971 486 l 971 57 m 782 1247 b 722 1117 773 1191 753 1147 b 606 1072 691 1087 652 1072 b 491 1117 560 1072 522 1087 b 433 1247 460 1147 441 1191 l 460 1247 b 513 1138 469 1199 487 1163 b 606 1100 538 1113 569 1100 b 704 1135 647 1100 680 1112 b 757 1247 728 1158 746 1195 l 782 1247 "},"ğ":{"ha":869,"x_min":0,"x_max":0,"o":"m 693 172 b 644 90 681 141 665 113 b 576 30 624 66 601 46 b 495 -7 551 14 524 1 b 406 -19 466 -15 436 -19 b 277 6 359 -19 316 -11 b 176 77 238 23 204 47 b 110 184 147 107 125 143 b 86 318 94 225 86 270 b 110 453 86 366 94 411 b 176 561 125 494 147 531 b 277 633 204 592 238 616 b 406 658 316 650 359 658 b 574 610 467 658 523 642 b 693 465 626 577 665 529 l 697 465 l 697 639 l 728 639 l 728 36 b 712 -110 728 -15 722 -63 b 659 -232 701 -156 684 -197 b 562 -316 634 -267 602 -295 b 413 -347 522 -337 472 -347 b 251 -316 352 -347 299 -337 b 131 -228 204 -295 164 -266 l 151 -207 b 272 -294 187 -247 227 -276 b 413 -321 316 -312 363 -321 b 551 -290 468 -321 514 -311 b 639 -210 588 -270 618 -243 b 684 -95 660 -176 675 -138 b 697 39 693 -52 697 -7 l 697 172 m 117 318 b 137 199 117 276 123 237 b 194 99 150 161 169 127 b 285 31 219 70 250 47 b 406 6 321 14 361 6 b 523 31 448 6 487 14 b 615 99 559 47 589 70 b 676 199 641 127 662 161 b 699 319 691 237 699 277 b 676 440 699 362 691 402 b 615 540 662 478 641 511 b 523 607 589 568 559 590 b 406 632 487 624 448 632 b 285 606 361 632 321 623 b 194 538 250 589 219 566 b 137 438 169 509 150 475 b 117 318 123 400 117 360 m 599 969 b 538 840 589 913 569 870 b 422 794 507 809 469 794 b 308 840 377 794 339 809 b 250 969 277 870 257 913 l 276 969 b 329 860 286 921 303 885 b 422 822 355 835 386 822 b 521 857 464 822 497 834 b 574 969 545 880 563 918 l 599 969 "},"Ġ":{"ha":1104,"x_min":0,"x_max":0,"o":"m 971 57 b 824 -1 932 36 883 16 b 618 -28 764 -19 696 -28 b 406 13 540 -28 469 -14 b 242 123 342 39 287 76 b 137 288 196 170 161 225 b 100 494 112 352 100 420 b 138 701 100 569 113 637 b 242 865 163 764 197 819 b 404 972 287 910 341 946 b 613 1011 467 998 537 1011 b 796 981 679 1011 740 1001 b 943 897 851 960 900 932 l 921 875 b 856 922 902 893 881 908 b 778 956 832 935 806 946 b 694 976 751 965 723 972 b 611 983 666 981 638 983 b 414 945 539 983 473 971 b 262 840 355 920 304 885 b 165 685 220 796 187 744 b 131 494 142 625 131 562 b 164 303 131 427 142 363 b 260 145 186 243 218 190 b 415 39 303 100 354 65 b 621 0 475 13 544 0 b 799 21 688 0 747 7 b 942 74 850 35 898 52 l 942 460 l 686 460 l 686 486 l 971 486 l 971 57 m 603 1157 b 581 1167 594 1157 587 1160 b 571 1193 574 1173 571 1182 b 581 1218 571 1203 574 1212 b 603 1228 587 1225 594 1228 b 625 1218 611 1228 619 1225 b 635 1193 631 1212 635 1203 b 624 1167 635 1182 631 1173 b 603 1157 617 1160 610 1157 "},"ġ":{"ha":869,"x_min":0,"x_max":0,"o":"m 693 172 b 644 90 681 141 665 113 b 576 30 624 66 601 46 b 495 -7 551 14 524 1 b 406 -19 466 -15 436 -19 b 277 6 359 -19 316 -11 b 176 77 238 23 204 47 b 110 184 147 107 125 143 b 86 318 94 225 86 270 b 110 453 86 366 94 411 b 176 561 125 494 147 531 b 277 633 204 592 238 616 b 406 658 316 650 359 658 b 574 610 467 658 523 642 b 693 465 626 577 665 529 l 697 465 l 697 639 l 728 639 l 728 36 b 712 -110 728 -15 722 -63 b 659 -232 701 -156 684 -197 b 562 -316 634 -267 602 -295 b 413 -347 522 -337 472 -347 b 251 -316 352 -347 299 -337 b 131 -228 204 -295 164 -266 l 151 -207 b 272 -294 187 -247 227 -276 b 413 -321 316 -312 363 -321 b 551 -290 468 -321 514 -311 b 639 -210 588 -270 618 -243 b 684 -95 660 -176 675 -138 b 697 39 693 -52 697 -7 l 697 172 m 117 318 b 137 199 117 276 123 237 b 194 99 150 161 169 127 b 285 31 219 70 250 47 b 406 6 321 14 361 6 b 523 31 448 6 487 14 b 615 99 559 47 589 70 b 676 199 641 127 662 161 b 699 319 691 237 699 277 b 676 440 699 362 691 402 b 615 540 662 478 641 511 b 523 607 589 568 559 590 b 406 632 487 624 448 632 b 285 606 361 632 321 623 b 194 538 250 589 219 566 b 137 438 169 509 150 475 b 117 318 123 400 117 360 m 422 879 b 400 889 414 879 406 882 b 390 915 394 895 390 904 b 400 940 390 925 394 934 b 422 950 406 947 414 950 b 444 940 431 950 438 947 b 454 915 451 934 454 925 b 444 889 454 904 451 895 b 422 879 437 882 430 879 "},"Ģ":{"ha":1104,"x_min":0,"x_max":0,"o":"m 971 57 b 824 -1 932 36 883 16 b 618 -28 764 -19 696 -28 b 406 13 540 -28 469 -14 b 242 123 342 39 287 76 b 137 288 196 170 161 225 b 100 494 112 352 100 420 b 138 701 100 569 113 637 b 242 865 163 764 197 819 b 404 972 287 910 341 946 b 613 1011 467 998 537 1011 b 796 981 679 1011 740 1001 b 943 897 851 960 900 932 l 921 875 b 856 922 902 893 881 908 b 778 956 832 935 806 946 b 694 976 751 965 723 972 b 611 983 666 981 638 983 b 414 945 539 983 473 971 b 262 840 355 920 304 885 b 165 685 220 796 187 744 b 131 494 142 625 131 562 b 164 303 131 427 142 363 b 260 145 186 243 218 190 b 415 39 303 100 354 65 b 621 0 475 13 544 0 b 799 21 688 0 747 7 b 942 74 850 35 898 52 l 942 460 l 686 460 l 686 486 l 971 486 l 971 57 m 536 -319 l 607 -62 l 640 -62 l 560 -319 "},"ģ":{"ha":869,"x_min":0,"x_max":0,"o":"m 693 172 b 644 90 681 141 665 113 b 576 30 624 66 601 46 b 495 -7 551 14 524 1 b 406 -19 466 -15 436 -19 b 277 6 359 -19 316 -11 b 176 77 238 23 204 47 b 110 184 147 107 125 143 b 86 318 94 225 86 270 b 110 453 86 366 94 411 b 176 561 125 494 147 531 b 277 633 204 592 238 616 b 406 658 316 650 359 658 b 574 610 467 658 523 642 b 693 465 626 577 665 529 l 697 465 l 697 639 l 728 639 l 728 36 b 712 -110 728 -15 722 -63 b 659 -232 701 -156 684 -197 b 562 -316 634 -267 602 -295 b 413 -347 522 -337 472 -347 b 251 -316 352 -347 299 -337 b 131 -228 204 -295 164 -266 l 151 -207 b 272 -294 187 -247 227 -276 b 413 -321 316 -312 363 -321 b 551 -290 468 -321 514 -311 b 639 -210 588 -270 618 -243 b 684 -95 660 -176 675 -138 b 697 39 693 -52 697 -7 l 697 172 m 117 318 b 137 199 117 276 123 237 b 194 99 150 161 169 127 b 285 31 219 70 250 47 b 406 6 321 14 361 6 b 523 31 448 6 487 14 b 615 99 559 47 589 70 b 676 199 641 127 662 161 b 699 319 691 237 699 277 b 676 440 699 362 691 402 b 615 540 662 478 641 511 b 523 607 589 568 559 590 b 406 632 487 624 448 632 b 285 606 361 632 321 623 b 194 538 250 589 219 566 b 137 438 169 509 150 475 b 117 318 123 400 117 360 m 489 1040 l 418 783 l 385 783 l 465 1040 "},"Ĥ":{"ha":1017,"x_min":0,"x_max":0,"o":"m 839 494 l 178 494 l 178 0 l 147 0 l 147 983 l 178 983 l 178 522 l 839 522 l 839 983 l 869 983 l 869 0 l 839 0 m 672 1061 l 640 1061 l 510 1244 l 379 1061 l 347 1061 l 490 1261 l 529 1261 "},"ĥ":{"ha":790,"x_min":0,"x_max":0,"o":"m 175 471 b 215 550 184 500 197 527 b 274 609 232 573 251 593 b 346 646 296 625 320 638 b 426 658 372 654 399 658 b 538 635 471 658 508 650 b 608 572 567 619 591 598 b 646 485 626 546 638 517 b 657 386 653 452 657 419 l 657 0 l 626 0 l 626 383 b 618 467 626 409 624 437 b 587 547 613 496 602 523 b 525 608 572 571 551 591 b 426 632 499 624 466 632 b 327 610 391 632 358 625 b 247 549 296 596 269 575 b 192 451 224 522 206 489 b 172 319 179 412 172 369 l 172 0 l 142 0 l 142 1050 l 172 1050 l 172 471 l 175 471 m 557 1106 l 525 1106 l 394 1289 l 264 1106 l 232 1106 l 375 1306 l 414 1306 "},"Ħ":{"ha":1017,"x_min":0,"x_max":0,"o":"m 839 494 l 178 494 l 178 0 l 147 0 l 147 983 l 178 983 l 178 719 l 839 719 l 839 983 l 869 983 l 869 0 l 839 0 m 839 694 l 178 694 l 178 522 l 839 522 "},"ħ":{"ha":790,"x_min":0,"x_max":0,"o":"m 175 471 b 215 550 184 500 197 527 b 274 609 232 573 251 593 b 346 646 296 625 320 638 b 426 658 372 654 399 658 b 538 635 471 658 508 650 b 608 572 567 619 591 598 b 646 485 626 546 638 517 b 657 386 653 452 657 419 l 657 0 l 626 0 l 626 383 b 618 467 626 409 624 437 b 587 547 613 496 602 523 b 525 608 572 571 551 591 b 426 632 499 624 466 632 b 327 610 391 632 358 625 b 247 549 296 596 269 575 b 192 451 224 522 206 489 b 172 319 179 412 172 369 l 172 0 l 142 0 l 142 792 l 42 792 l 42 817 l 142 817 l 142 1050 l 172 1050 l 172 817 l 465 817 l 465 792 l 172 792 l 172 471 l 175 471 "},"Ĩ":{"ha":325,"x_min":0,"x_max":0,"o":"m 147 983 l 178 983 l 178 0 l 147 0 m 168 1164 b 199 1146 180 1156 190 1150 b 220 1135 207 1141 214 1138 b 235 1131 226 1133 231 1132 b 250 1131 240 1131 244 1131 b 306 1197 281 1131 299 1153 l 328 1197 b 300 1126 324 1164 315 1140 b 250 1104 285 1111 269 1104 b 210 1111 235 1104 222 1106 b 161 1138 199 1116 182 1125 b 110 1165 137 1152 120 1162 b 79 1171 100 1169 89 1171 b 24 1100 50 1171 31 1147 l 1 1100 b 29 1174 5 1133 14 1158 b 79 1197 44 1189 61 1197 b 119 1190 94 1197 107 1195 b 168 1164 131 1186 148 1177 "},"ĩ":{"ha":314,"x_min":0,"x_max":0,"o":"m 142 639 l 172 639 l 172 0 l 142 0 m 163 886 b 193 868 175 879 185 873 b 215 858 201 863 209 860 b 230 853 221 855 226 854 b 244 853 234 853 239 853 b 300 919 275 853 294 875 l 322 919 b 294 848 319 886 309 862 b 244 826 280 834 263 826 b 205 833 230 826 216 829 b 156 860 193 838 177 847 b 104 888 131 875 114 884 b 74 893 94 891 84 893 b 18 822 44 893 25 869 l -4 822 b 24 896 0 856 9 880 b 74 919 38 912 55 919 b 114 913 88 919 102 917 b 163 886 126 908 142 899 "},"Ī":{"ha":325,"x_min":0,"x_max":0,"o":"m 147 983 l 178 983 l 178 0 l 147 0 m 3 1168 l 325 1168 l 325 1140 l 3 1140 "},"ī":{"ha":314,"x_min":0,"x_max":0,"o":"m 142 639 l 172 639 l 172 0 l 142 0 m -3 890 l 319 890 l 319 863 l -3 863 "},"Į":{"ha":325,"x_min":0,"x_max":0,"o":"m 249 -267 b 197 -298 234 -280 216 -290 b 135 -310 177 -306 156 -310 b 52 -281 102 -310 75 -300 b 18 -199 29 -261 18 -234 b 57 -97 18 -162 31 -128 b 146 0 83 -65 113 -32 l 147 0 l 147 983 l 178 983 l 178 0 b 81 -106 135 -43 103 -78 b 49 -196 59 -134 49 -164 b 74 -261 49 -224 57 -245 b 139 -285 90 -277 112 -285 b 192 -274 157 -285 175 -281 b 235 -244 209 -266 224 -256 l 249 -267 "},"į":{"ha":314,"x_min":0,"x_max":0,"o":"m 142 639 l 172 639 l 172 0 l 142 0 m 244 -267 b 192 -298 230 -280 212 -290 b 131 -310 172 -306 152 -310 b 48 -281 98 -310 71 -300 b 14 -199 25 -261 14 -234 b 53 -97 14 -162 27 -128 b 142 0 79 -65 108 -32 l 174 0 b 77 -106 131 -43 99 -78 b 44 -196 55 -134 44 -164 b 69 -261 44 -224 53 -245 b 135 -285 86 -277 108 -285 b 188 -274 153 -285 171 -281 b 231 -244 205 -266 219 -256 l 244 -267 m 157 879 b 135 889 149 879 141 882 b 125 915 128 895 125 904 b 135 940 125 925 128 934 b 157 950 141 947 149 950 b 179 940 165 950 173 947 b 189 915 186 934 189 925 b 178 889 189 904 185 895 b 157 879 172 882 164 879 "},"İ":{"ha":325,"x_min":0,"x_max":0,"o":"m 147 983 l 178 983 l 178 0 l 147 0 m 163 1157 b 140 1167 154 1157 147 1160 b 131 1193 134 1173 131 1182 b 140 1218 131 1203 134 1212 b 163 1228 147 1225 154 1228 b 185 1218 171 1228 178 1225 b 194 1193 191 1212 194 1203 b 184 1167 194 1182 191 1173 b 163 1157 177 1160 170 1157 "},"ı":{"ha":314,"x_min":0,"x_max":0,"o":"m 142 639 l 172 639 l 172 0 l 142 0 "},"Ĳ":{"ha":982,"x_min":0,"x_max":0,"o":"m 147 983 l 178 983 l 178 0 l 147 0 m 840 268 b 777 53 840 177 819 106 b 589 -25 735 1 672 -25 b 440 20 531 -25 481 -10 b 356 129 400 50 371 87 l 382 142 b 464 41 400 100 428 66 b 589 3 500 16 542 3 b 690 23 629 3 663 9 b 758 79 718 36 741 55 b 797 165 776 103 789 132 b 810 272 806 197 810 233 l 810 983 l 840 983 l 840 268 "},"ĳ":{"ha":632,"x_min":0,"x_max":0,"o":"m 157 879 b 135 889 149 879 141 882 b 125 915 128 895 125 904 b 135 940 125 925 128 934 b 157 950 141 947 149 950 b 179 940 165 950 173 947 b 189 915 186 934 189 925 b 178 889 189 904 185 895 b 157 879 172 882 164 879 m 142 639 l 172 639 l 172 0 l 142 0 m 490 -135 b 484 -221 490 -167 488 -196 b 460 -283 480 -246 472 -267 b 413 -322 449 -300 433 -313 b 335 -335 392 -330 366 -335 b 314 -334 328 -335 321 -334 b 294 -331 306 -334 300 -332 l 300 -304 b 335 -308 312 -307 324 -308 b 404 -293 364 -308 388 -303 b 442 -253 421 -283 433 -270 b 457 -199 450 -237 455 -219 b 460 -137 459 -178 460 -158 l 460 639 l 490 639 l 490 -135 m 475 879 b 453 889 467 879 459 882 b 443 915 446 895 443 904 b 453 940 443 925 446 934 b 475 950 459 947 467 950 b 497 940 483 950 491 947 b 507 915 504 934 507 925 b 497 889 507 904 503 895 b 475 879 490 882 482 879 "},"Ĵ":{"ha":667,"x_min":0,"x_max":0,"o":"m 525 268 b 462 53 525 177 504 106 b 274 -25 420 1 357 -25 b 125 20 215 -25 166 -10 b 40 129 84 50 56 87 l 67 142 b 149 41 85 100 113 66 b 274 3 185 16 226 3 b 375 23 313 3 347 9 b 443 79 403 36 425 55 b 482 165 461 103 474 132 b 494 272 490 197 494 233 l 494 983 l 525 983 l 525 268 m 669 1061 l 638 1061 l 507 1244 l 376 1061 l 344 1061 l 488 1261 l 526 1261 "},"ĵ":{"ha":314,"x_min":0,"x_max":0,"o":"m 172 -135 b 166 -221 172 -167 170 -196 b 142 -283 162 -246 154 -267 b 94 -322 131 -300 115 -313 b 17 -335 74 -330 48 -335 b -4 -334 10 -335 3 -334 b -24 -331 -12 -334 -18 -332 l -18 -304 b 17 -308 -6 -307 6 -308 b 86 -293 46 -308 69 -303 b 124 -253 103 -283 115 -270 b 139 -199 132 -237 137 -219 b 142 -137 141 -178 142 -158 l 142 639 l 172 639 l 172 -135 m 317 783 l 285 783 l 154 967 l 24 783 l -8 783 l 135 983 l 174 983 "},"Ķ":{"ha":785,"x_min":0,"x_max":0,"o":"m 674 983 l 718 983 l 218 532 l 743 0 l 700 0 l 179 529 l 178 529 l 178 0 l 147 0 l 147 983 l 178 983 l 178 532 l 179 532 m 344 -319 l 415 -62 l 449 -62 l 368 -319 "},"ķ":{"ha":618,"x_min":0,"x_max":0,"o":"m 504 639 l 547 639 l 210 343 l 586 0 l 540 0 l 174 338 l 172 338 l 172 0 l 142 0 l 142 1050 l 172 1050 l 172 344 l 174 344 m 265 -319 l 336 -62 l 369 -62 l 289 -319 "},"Ĺ":{"ha":692,"x_min":0,"x_max":0,"o":"m 147 983 l 178 983 l 178 28 l 667 28 l 667 0 l 147 0 m 147 1061 l 290 1261 l 328 1261 l 174 1061 "},"ĺ":{"ha":314,"x_min":0,"x_max":0,"o":"m 142 1050 l 172 1050 l 172 0 l 142 0 m 142 1100 l 285 1300 l 322 1300 l 168 1100 "},"Ļ":{"ha":692,"x_min":0,"x_max":0,"o":"m 147 983 l 178 983 l 178 28 l 667 28 l 667 0 l 147 0 m 324 -319 l 394 -62 l 428 -62 l 347 -319 "},"ļ":{"ha":314,"x_min":0,"x_max":0,"o":"m 142 1050 l 172 1050 l 172 0 l 142 0 m 90 -321 l 161 -64 l 194 -64 l 114 -321 "},"Ľ":{"ha":692,"x_min":0,"x_max":0,"o":"m 147 983 l 178 983 l 178 28 l 667 28 l 667 0 l 147 0 m 290 726 l 361 983 l 394 983 l 314 726 "},"ľ":{"ha":314,"x_min":0,"x_max":0,"o":"m 142 1050 l 172 1050 l 172 0 l 142 0 m 249 726 l 319 983 l 353 983 l 272 726 "},"Ŀ":{"ha":692,"x_min":0,"x_max":0,"o":"m 147 983 l 178 983 l 178 28 l 667 28 l 667 0 l 147 0 m 510 379 b 488 389 501 379 494 382 b 478 415 481 395 478 404 b 488 440 478 425 481 434 b 510 450 494 447 501 450 b 532 440 518 450 525 447 b 542 415 538 434 542 425 b 531 389 542 404 538 395 b 510 379 524 382 517 379 "},"ŀ":{"ha":314,"x_min":0,"x_max":0,"o":"m 142 1050 l 172 1050 l 172 0 l 142 0 m 311 379 b 289 389 303 379 295 382 b 279 415 282 395 279 404 b 289 440 279 425 282 434 b 311 450 295 447 303 450 b 333 440 319 450 327 447 b 343 415 340 434 343 425 b 333 389 343 404 340 395 b 311 379 326 382 319 379 "},"Ł":{"ha":692,"x_min":0,"x_max":0,"o":"m 57 313 l 147 396 l 147 983 l 178 983 l 178 419 l 465 678 l 465 644 l 178 382 l 178 28 l 667 28 l 667 0 l 147 0 l 147 358 l 57 275 "},"ł":{"ha":314,"x_min":0,"x_max":0,"o":"m 57 457 l 147 540 l 147 1050 l 178 1050 l 178 564 l 279 651 l 279 618 l 178 526 l 178 0 l 147 0 l 147 503 l 57 419 "},"Ń":{"ha":1079,"x_min":0,"x_max":0,"o":"m 182 944 l 178 944 l 178 0 l 147 0 l 147 983 l 190 983 l 897 40 l 901 40 l 901 983 l 932 983 l 932 0 l 888 0 m 510 1061 l 653 1261 l 690 1261 l 536 1061 "},"ń":{"ha":794,"x_min":0,"x_max":0,"o":"m 178 471 b 218 550 187 500 200 527 b 278 609 236 573 256 593 b 350 646 300 625 324 638 b 431 658 376 654 403 658 b 542 635 475 658 512 650 b 613 572 571 619 595 598 b 650 485 630 546 643 517 b 661 386 657 452 661 419 l 661 0 l 631 0 l 631 383 b 622 467 631 409 628 437 b 591 547 617 496 606 523 b 529 608 576 571 555 591 b 431 632 503 624 470 632 b 331 610 395 632 362 625 b 251 549 300 596 273 575 b 197 451 228 522 210 489 b 176 319 183 412 176 369 l 176 0 l 146 0 l 146 478 b 145 515 146 488 146 500 b 144 560 145 530 144 545 b 142 604 143 576 143 590 b 139 639 141 618 140 630 l 169 639 b 172 604 170 630 171 618 b 173 559 172 590 172 575 b 174 512 173 543 174 527 b 175 471 175 497 175 483 l 178 471 m 368 783 l 511 983 l 549 983 l 394 783 "},"Ņ":{"ha":1079,"x_min":0,"x_max":0,"o":"m 182 944 l 178 944 l 178 0 l 147 0 l 147 983 l 190 983 l 897 40 l 901 40 l 901 983 l 932 983 l 932 0 l 888 0 m 454 -319 l 525 -62 l 558 -62 l 478 -319 "},"ņ":{"ha":794,"x_min":0,"x_max":0,"o":"m 178 471 b 218 550 187 500 200 527 b 278 609 236 573 256 593 b 350 646 300 625 324 638 b 431 658 376 654 403 658 b 542 635 475 658 512 650 b 613 572 571 619 595 598 b 650 485 630 546 643 517 b 661 386 657 452 661 419 l 661 0 l 631 0 l 631 383 b 622 467 631 409 628 437 b 591 547 617 496 606 523 b 529 608 576 571 555 591 b 431 632 503 624 470 632 b 331 610 395 632 362 625 b 251 549 300 596 273 575 b 197 451 228 522 210 489 b 176 319 183 412 176 369 l 176 0 l 146 0 l 146 478 b 145 515 146 488 146 500 b 144 560 145 530 144 545 b 142 604 143 576 143 590 b 139 639 141 618 140 630 l 169 639 b 172 604 170 630 171 618 b 173 559 172 590 172 575 b 174 512 173 543 174 527 b 175 471 175 497 175 483 l 178 471 m 333 -319 l 404 -62 l 438 -62 l 357 -319 "},"Ň":{"ha":1079,"x_min":0,"x_max":0,"o":"m 182 944 l 178 944 l 178 0 l 147 0 l 147 983 l 190 983 l 897 40 l 901 40 l 901 983 l 932 983 l 932 0 l 888 0 m 376 1261 l 408 1261 l 539 1078 l 669 1261 l 701 1261 l 558 1061 l 519 1061 "},"ň":{"ha":794,"x_min":0,"x_max":0,"o":"m 178 471 b 218 550 187 500 200 527 b 278 609 236 573 256 593 b 350 646 300 625 324 638 b 431 658 376 654 403 658 b 542 635 475 658 512 650 b 613 572 571 619 595 598 b 650 485 630 546 643 517 b 661 386 657 452 661 419 l 661 0 l 631 0 l 631 383 b 622 467 631 409 628 437 b 591 547 617 496 606 523 b 529 608 576 571 555 591 b 431 632 503 624 470 632 b 331 610 395 632 362 625 b 251 549 300 596 273 575 b 197 451 228 522 210 489 b 176 319 183 412 176 369 l 176 0 l 146 0 l 146 478 b 145 515 146 488 146 500 b 144 560 145 530 144 545 b 142 604 143 576 143 590 b 139 639 141 618 140 630 l 169 639 b 172 604 170 630 171 618 b 173 559 172 590 172 575 b 174 512 173 543 174 527 b 175 471 175 497 175 483 l 178 471 m 244 983 l 276 983 l 407 800 l 538 983 l 569 983 l 426 783 l 388 783 "},"ŉ":{"ha":794,"x_min":0,"x_max":0,"o":"m 178 471 b 218 550 187 500 200 527 b 278 609 236 573 256 593 b 350 646 300 625 324 638 b 431 658 376 654 403 658 b 542 635 475 658 512 650 b 613 572 571 619 595 598 b 650 485 630 546 643 517 b 661 386 657 452 661 419 l 661 0 l 631 0 l 631 383 b 622 467 631 409 628 437 b 591 547 617 496 606 523 b 529 608 576 571 555 591 b 431 632 503 624 470 632 b 331 610 395 632 362 625 b 251 549 300 596 273 575 b 197 451 228 522 210 489 b 176 319 183 412 176 369 l 176 0 l 146 0 l 146 478 b 145 515 146 488 146 500 b 144 560 145 530 144 545 b 142 604 143 576 143 590 b 139 639 141 618 140 630 l 169 639 b 172 604 170 630 171 618 b 173 559 172 590 172 575 b 174 512 173 543 174 527 b 175 471 175 497 175 483 l 178 471 m 81 726 l 151 983 l 185 983 l 104 726 "},"Ō":{"ha":1211,"x_min":0,"x_max":0,"o":"m 1111 492 b 1073 283 1111 416 1098 346 b 967 119 1047 219 1012 165 b 807 11 922 73 869 37 b 606 -28 745 -15 678 -28 b 404 11 533 -28 466 -15 b 244 119 342 37 289 73 b 138 283 199 165 164 219 b 100 492 113 346 100 416 b 138 701 100 568 113 637 b 244 865 164 764 199 819 b 403 972 289 910 342 946 b 606 1011 465 998 532 1011 b 808 972 679 1011 746 998 b 967 865 869 946 922 910 b 1073 701 1012 819 1047 764 b 1111 492 1098 637 1111 568 m 1081 492 b 1046 684 1081 560 1069 624 b 948 840 1023 744 990 796 b 797 945 906 885 856 920 b 606 983 739 971 675 983 b 414 945 536 983 472 971 b 263 840 356 920 305 885 b 165 684 221 796 188 744 b 131 492 142 624 131 560 b 165 299 131 423 142 359 b 261 143 187 240 219 188 b 411 38 303 99 353 64 b 606 0 469 13 534 0 b 800 38 677 0 742 13 b 950 143 858 64 908 99 b 1047 299 992 188 1024 240 b 1081 492 1069 359 1081 423 m 447 1168 l 769 1168 l 769 1140 l 447 1140 "},"ō":{"ha":840,"x_min":0,"x_max":0,"o":"m 754 321 b 730 183 754 271 746 225 b 661 76 714 142 691 106 b 555 6 631 46 596 22 b 419 -19 514 -11 469 -19 b 285 6 370 -19 325 -11 b 179 76 244 22 209 46 b 110 183 150 106 127 142 b 86 321 94 225 86 271 b 110 458 86 371 94 416 b 179 564 127 499 150 534 b 285 633 209 594 244 617 b 419 658 325 650 370 658 b 555 633 469 658 514 650 b 661 564 596 617 631 594 b 730 458 691 534 714 499 b 754 321 746 416 754 371 m 724 321 b 703 442 724 363 717 404 b 642 541 689 480 669 513 b 547 608 616 569 584 591 b 419 632 509 624 467 632 b 293 608 372 632 330 624 b 198 541 256 591 224 569 b 138 442 172 513 151 480 b 117 321 124 404 117 363 b 138 199 117 277 124 237 b 198 99 151 161 172 128 b 293 32 224 71 256 49 b 419 7 330 15 372 7 b 547 32 467 7 509 15 b 642 99 584 49 616 71 b 703 199 669 128 689 161 b 724 321 717 237 724 277 m 257 890 l 579 890 l 579 863 l 257 863 "},"Ŏ":{"ha":1211,"x_min":0,"x_max":0,"o":"m 1111 492 b 1073 283 1111 416 1098 346 b 967 119 1047 219 1012 165 b 807 11 922 73 869 37 b 606 -28 745 -15 678 -28 b 404 11 533 -28 466 -15 b 244 119 342 37 289 73 b 138 283 199 165 164 219 b 100 492 113 346 100 416 b 138 701 100 568 113 637 b 244 865 164 764 199 819 b 403 972 289 910 342 946 b 606 1011 465 998 532 1011 b 808 972 679 1011 746 998 b 967 865 869 946 922 910 b 1073 701 1012 819 1047 764 b 1111 492 1098 637 1111 568 m 1081 492 b 1046 684 1081 560 1069 624 b 948 840 1023 744 990 796 b 797 945 906 885 856 920 b 606 983 739 971 675 983 b 414 945 536 983 472 971 b 263 840 356 920 305 885 b 165 684 221 796 188 744 b 131 492 142 624 131 560 b 165 299 131 423 142 359 b 261 143 187 240 219 188 b 411 38 303 99 353 64 b 606 0 469 13 534 0 b 800 38 677 0 742 13 b 950 143 858 64 908 99 b 1047 299 992 188 1024 240 b 1081 492 1069 359 1081 423 m 779 1247 b 719 1117 770 1191 750 1147 b 603 1072 688 1087 649 1072 b 488 1117 557 1072 519 1087 b 431 1247 457 1147 438 1191 l 457 1247 b 510 1138 466 1199 484 1163 b 603 1100 536 1113 567 1100 b 701 1135 644 1100 677 1112 b 754 1247 725 1158 743 1195 l 779 1247 "},"ŏ":{"ha":840,"x_min":0,"x_max":0,"o":"m 754 321 b 730 183 754 271 746 225 b 661 76 714 142 691 106 b 555 6 631 46 596 22 b 419 -19 514 -11 469 -19 b 285 6 370 -19 325 -11 b 179 76 244 22 209 46 b 110 183 150 106 127 142 b 86 321 94 225 86 271 b 110 458 86 371 94 416 b 179 564 127 499 150 534 b 285 633 209 594 244 617 b 419 658 325 650 370 658 b 555 633 469 658 514 650 b 661 564 596 617 631 594 b 730 458 691 534 714 499 b 754 321 746 416 754 371 m 724 321 b 703 442 724 363 717 404 b 642 541 689 480 669 513 b 547 608 616 569 584 591 b 419 632 509 624 467 632 b 293 608 372 632 330 624 b 198 541 256 591 224 569 b 138 442 172 513 151 480 b 117 321 124 404 117 363 b 138 199 117 277 124 237 b 198 99 151 161 172 128 b 293 32 224 71 256 49 b 419 7 330 15 372 7 b 547 32 467 7 509 15 b 642 99 584 49 616 71 b 703 199 669 128 689 161 b 724 321 717 237 724 277 m 594 969 b 534 840 585 913 565 870 b 418 794 503 809 464 794 b 303 840 373 794 334 809 b 246 969 272 870 253 913 l 272 969 b 325 860 281 921 299 885 b 418 822 351 835 382 822 b 517 857 460 822 493 834 b 569 969 541 880 558 918 l 594 969 "},"Ő":{"ha":1211,"x_min":0,"x_max":0,"o":"m 1111 492 b 1073 283 1111 416 1098 346 b 967 119 1047 219 1012 165 b 807 11 922 73 869 37 b 606 -28 745 -15 678 -28 b 404 11 533 -28 466 -15 b 244 119 342 37 289 73 b 138 283 199 165 164 219 b 100 492 113 346 100 416 b 138 701 100 568 113 637 b 244 865 164 764 199 819 b 403 972 289 910 342 946 b 606 1011 465 998 532 1011 b 808 972 679 1011 746 998 b 967 865 869 946 922 910 b 1073 701 1012 819 1047 764 b 1111 492 1098 637 1111 568 m 1081 492 b 1046 684 1081 560 1069 624 b 948 840 1023 744 990 796 b 797 945 906 885 856 920 b 606 983 739 971 675 983 b 414 945 536 983 472 971 b 263 840 356 920 305 885 b 165 684 221 796 188 744 b 131 492 142 624 131 560 b 165 299 131 423 142 359 b 261 143 187 240 219 188 b 411 38 303 99 353 64 b 606 0 469 13 534 0 b 800 38 677 0 742 13 b 950 143 858 64 908 99 b 1047 299 992 188 1024 240 b 1081 492 1069 359 1081 423 m 507 1060 l 650 1261 l 688 1261 l 533 1060 m 669 1060 l 813 1261 l 850 1261 l 696 1060 "},"ő":{"ha":840,"x_min":0,"x_max":0,"o":"m 754 321 b 730 183 754 271 746 225 b 661 76 714 142 691 106 b 555 6 631 46 596 22 b 419 -19 514 -11 469 -19 b 285 6 370 -19 325 -11 b 179 76 244 22 209 46 b 110 183 150 106 127 142 b 86 321 94 225 86 271 b 110 458 86 371 94 416 b 179 564 127 499 150 534 b 285 633 209 594 244 617 b 419 658 325 650 370 658 b 555 633 469 658 514 650 b 661 564 596 617 631 594 b 730 458 691 534 714 499 b 754 321 746 416 754 371 m 724 321 b 703 442 724 363 717 404 b 642 541 689 480 669 513 b 547 608 616 569 584 591 b 419 632 509 624 467 632 b 293 608 372 632 330 624 b 198 541 256 591 224 569 b 138 442 172 513 151 480 b 117 321 124 404 117 363 b 138 199 117 277 124 237 b 198 99 151 161 172 128 b 293 32 224 71 256 49 b 419 7 330 15 372 7 b 547 32 467 7 509 15 b 642 99 584 49 616 71 b 703 199 669 128 689 161 b 724 321 717 237 724 277 m 318 782 l 461 983 l 499 983 l 344 782 m 481 782 l 624 983 l 661 983 l 507 782 "},"Ŕ":{"ha":825,"x_min":0,"x_max":0,"o":"m 408 496 l 178 496 l 178 0 l 147 0 l 147 983 l 419 983 b 529 974 456 983 492 980 b 628 937 566 967 599 955 b 700 863 658 919 681 894 b 728 740 719 831 728 790 b 701 625 728 694 719 656 b 633 551 684 594 661 570 b 541 510 606 532 575 518 b 442 497 507 501 474 497 l 740 0 l 706 0 m 697 740 b 672 847 697 783 689 818 b 606 913 656 875 634 897 b 512 947 579 929 547 941 b 403 957 476 954 440 957 l 178 957 l 178 522 l 418 522 b 626 579 509 522 578 541 b 697 740 673 617 697 671 m 332 1061 l 475 1261 l 513 1261 l 358 1061 "},"ŕ":{"ha":440,"x_min":0,"x_max":0,"o":"m 178 471 b 267 615 196 538 226 585 b 399 658 307 644 351 658 l 411 658 b 424 657 415 658 419 658 l 424 631 b 413 632 420 631 416 632 l 406 632 b 301 605 365 632 330 623 b 231 534 273 587 249 563 b 190 437 212 505 198 472 b 176 331 181 401 176 366 l 176 0 l 146 0 l 146 478 b 145 515 146 488 146 500 b 144 560 145 530 144 545 b 142 604 143 576 143 590 b 139 639 141 618 140 630 l 169 639 b 172 604 170 630 171 618 b 173 559 172 590 172 575 b 174 512 173 543 174 527 b 175 471 175 497 175 483 l 178 471 m 174 783 l 317 983 l 354 983 l 200 783 "},"Ŗ":{"ha":825,"x_min":0,"x_max":0,"o":"m 408 496 l 178 496 l 178 0 l 147 0 l 147 983 l 419 983 b 529 974 456 983 492 980 b 628 937 566 967 599 955 b 700 863 658 919 681 894 b 728 740 719 831 728 790 b 701 625 728 694 719 656 b 633 551 684 594 661 570 b 541 510 606 532 575 518 b 442 497 507 501 474 497 l 740 0 l 706 0 m 697 740 b 672 847 697 783 689 818 b 606 913 656 875 634 897 b 512 947 579 929 547 941 b 403 957 476 954 440 957 l 178 957 l 178 522 l 418 522 b 626 579 509 522 578 541 b 697 740 673 617 697 671 m 343 -319 l 414 -62 l 447 -62 l 367 -319 "},"ŗ":{"ha":440,"x_min":0,"x_max":0,"o":"m 178 471 b 267 615 196 538 226 585 b 399 658 307 644 351 658 l 411 658 b 424 657 415 658 419 658 l 424 631 b 413 632 420 631 416 632 l 406 632 b 301 605 365 632 330 623 b 231 534 273 587 249 563 b 190 437 212 505 198 472 b 176 331 181 401 176 366 l 176 0 l 146 0 l 146 478 b 145 515 146 488 146 500 b 144 560 145 530 144 545 b 142 604 143 576 143 590 b 139 639 141 618 140 630 l 169 639 b 172 604 170 630 171 618 b 173 559 172 590 172 575 b 174 512 173 543 174 527 b 175 471 175 497 175 483 l 178 471 m 94 -321 l 165 -64 l 199 -64 l 118 -321 "},"Ř":{"ha":825,"x_min":0,"x_max":0,"o":"m 408 496 l 178 496 l 178 0 l 147 0 l 147 983 l 419 983 b 529 974 456 983 492 980 b 628 937 566 967 599 955 b 700 863 658 919 681 894 b 728 740 719 831 728 790 b 701 625 728 694 719 656 b 633 551 684 594 661 570 b 541 510 606 532 575 518 b 442 497 507 501 474 497 l 740 0 l 706 0 m 697 740 b 672 847 697 783 689 818 b 606 913 656 875 634 897 b 512 947 579 929 547 941 b 403 957 476 954 440 957 l 178 957 l 178 522 l 418 522 b 626 579 509 522 578 541 b 697 740 673 617 697 671 m 211 1261 l 243 1261 l 374 1078 l 504 1261 l 536 1261 l 393 1061 l 354 1061 "},"ř":{"ha":440,"x_min":0,"x_max":0,"o":"m 178 471 b 267 615 196 538 226 585 b 399 658 307 644 351 658 l 411 658 b 424 657 415 658 419 658 l 424 631 b 413 632 420 631 416 632 l 406 632 b 301 605 365 632 330 623 b 231 534 273 587 249 563 b 190 437 212 505 198 472 b 176 331 181 401 176 366 l 176 0 l 146 0 l 146 478 b 145 515 146 488 146 500 b 144 560 145 530 144 545 b 142 604 143 576 143 590 b 139 639 141 618 140 630 l 169 639 b 172 604 170 630 171 618 b 173 559 172 590 172 575 b 174 512 173 543 174 527 b 175 471 175 497 175 483 l 178 471 m 107 983 l 139 983 l 269 800 l 400 983 l 432 983 l 289 783 l 250 783 "},"Ś":{"ha":792,"x_min":0,"x_max":0,"o":"m 692 236 b 667 124 692 194 684 157 b 603 41 651 91 630 64 b 508 -10 576 18 544 1 b 393 -28 471 -22 433 -28 b 226 5 332 -28 276 -17 b 100 93 175 27 133 56 l 124 114 b 247 28 159 76 200 47 b 392 0 293 9 342 0 b 494 16 428 0 462 5 b 581 62 527 27 556 42 b 640 135 606 82 625 106 b 661 236 654 165 661 198 b 638 332 661 274 653 306 b 576 399 622 358 601 380 b 491 445 551 417 523 433 b 394 479 459 458 427 469 b 283 520 354 492 316 506 b 195 573 249 534 220 552 b 138 648 171 594 152 619 b 118 754 125 677 118 713 b 142 863 118 795 126 831 b 208 944 159 895 181 922 b 305 994 236 966 268 982 b 421 1011 341 1005 380 1011 b 563 983 471 1011 518 1002 b 674 901 608 964 645 937 l 650 881 b 551 956 624 913 591 938 b 419 983 510 974 467 983 b 322 969 386 983 353 979 b 235 927 290 960 261 946 b 172 856 209 908 188 884 b 149 754 156 827 149 793 b 169 658 149 716 156 684 b 225 590 183 631 202 609 b 303 544 248 572 274 556 b 393 511 333 532 363 521 b 510 469 435 497 474 483 b 605 417 546 454 578 437 b 669 342 632 396 653 372 b 692 236 684 313 692 278 m 365 1061 l 508 1261 l 546 1261 l 392 1061 "},"ś":{"ha":576,"x_min":0,"x_max":0,"o":"m 501 167 b 485 90 501 138 496 112 b 440 32 474 67 459 48 b 374 -4 421 16 399 4 b 293 -17 349 -12 322 -17 b 165 10 246 -17 203 -8 b 69 90 126 28 94 55 l 94 107 b 294 10 141 42 207 10 b 356 19 315 10 335 13 b 413 49 377 26 396 36 b 455 97 430 62 444 78 b 471 164 466 117 471 139 b 451 236 471 194 464 218 b 400 281 437 255 420 269 b 333 308 380 292 357 301 b 264 326 308 315 285 321 b 199 348 241 333 219 340 b 145 378 178 356 160 366 b 109 425 130 391 118 406 b 96 494 100 444 96 467 b 113 567 96 522 101 546 b 157 617 124 587 138 604 b 220 648 175 631 197 641 b 292 658 244 655 268 658 b 488 565 379 658 444 627 l 461 550 b 389 612 440 578 416 598 b 292 632 362 625 330 632 b 236 625 274 632 256 630 b 183 602 217 620 199 613 b 142 560 166 591 153 577 b 126 496 132 542 126 521 b 140 429 126 468 131 446 b 176 389 148 413 161 399 b 233 363 192 379 211 370 b 307 343 256 356 280 350 b 380 320 332 337 356 329 b 442 288 403 311 424 300 b 485 239 460 275 475 258 b 501 167 496 219 501 195 m 247 783 l 390 983 l 428 983 l 274 783 "},"Ŝ":{"ha":792,"x_min":0,"x_max":0,"o":"m 692 236 b 667 124 692 194 684 157 b 603 41 651 91 630 64 b 508 -10 576 18 544 1 b 393 -28 471 -22 433 -28 b 226 5 332 -28 276 -17 b 100 93 175 27 133 56 l 124 114 b 247 28 159 76 200 47 b 392 0 293 9 342 0 b 494 16 428 0 462 5 b 581 62 527 27 556 42 b 640 135 606 82 625 106 b 661 236 654 165 661 198 b 638 332 661 274 653 306 b 576 399 622 358 601 380 b 491 445 551 417 523 433 b 394 479 459 458 427 469 b 283 520 354 492 316 506 b 195 573 249 534 220 552 b 138 648 171 594 152 619 b 118 754 125 677 118 713 b 142 863 118 795 126 831 b 208 944 159 895 181 922 b 305 994 236 966 268 982 b 421 1011 341 1005 380 1011 b 563 983 471 1011 518 1002 b 674 901 608 964 645 937 l 650 881 b 551 956 624 913 591 938 b 419 983 510 974 467 983 b 322 969 386 983 353 979 b 235 927 290 960 261 946 b 172 856 209 908 188 884 b 149 754 156 827 149 793 b 169 658 149 716 156 684 b 225 590 183 631 202 609 b 303 544 248 572 274 556 b 393 511 333 532 363 521 b 510 469 435 497 474 483 b 605 417 546 454 578 437 b 669 342 632 396 653 372 b 692 236 684 313 692 278 m 582 1061 l 550 1061 l 419 1244 l 289 1061 l 257 1061 l 400 1261 l 439 1261 "},"ŝ":{"ha":576,"x_min":0,"x_max":0,"o":"m 501 167 b 485 90 501 138 496 112 b 440 32 474 67 459 48 b 374 -4 421 16 399 4 b 293 -17 349 -12 322 -17 b 165 10 246 -17 203 -8 b 69 90 126 28 94 55 l 94 107 b 294 10 141 42 207 10 b 356 19 315 10 335 13 b 413 49 377 26 396 36 b 455 97 430 62 444 78 b 471 164 466 117 471 139 b 451 236 471 194 464 218 b 400 281 437 255 420 269 b 333 308 380 292 357 301 b 264 326 308 315 285 321 b 199 348 241 333 219 340 b 145 378 178 356 160 366 b 109 425 130 391 118 406 b 96 494 100 444 96 467 b 113 567 96 522 101 546 b 157 617 124 587 138 604 b 220 648 175 631 197 641 b 292 658 244 655 268 658 b 488 565 379 658 444 627 l 461 550 b 389 612 440 578 416 598 b 292 632 362 625 330 632 b 236 625 274 632 256 630 b 183 602 217 620 199 613 b 142 560 166 591 153 577 b 126 496 132 542 126 521 b 140 429 126 468 131 446 b 176 389 148 413 161 399 b 233 363 192 379 211 370 b 307 343 256 356 280 350 b 380 320 332 337 356 329 b 442 288 403 311 424 300 b 485 239 460 275 475 258 b 501 167 496 219 501 195 m 460 783 l 428 783 l 297 967 l 167 783 l 135 783 l 278 983 l 317 983 "},"Ş":{"ha":792,"x_min":0,"x_max":0,"o":"m 533 -203 b 517 -258 533 -225 528 -243 b 478 -292 507 -272 494 -283 b 427 -309 462 -300 445 -306 b 378 -314 409 -312 393 -314 b 317 -307 360 -314 340 -312 b 253 -286 295 -302 273 -295 l 260 -262 b 320 -282 277 -272 297 -278 b 379 -287 343 -286 363 -287 b 422 -284 393 -287 407 -286 b 462 -272 436 -282 449 -278 b 492 -246 474 -266 484 -257 b 504 -203 500 -235 504 -220 b 494 -167 504 -188 501 -176 b 470 -145 488 -157 480 -150 b 438 -135 460 -140 450 -137 b 404 -132 427 -133 415 -132 b 355 -137 391 -132 375 -134 b 308 -153 335 -141 319 -146 l 294 -140 l 371 -26 b 217 9 314 -24 263 -12 b 100 93 170 30 131 58 l 124 114 b 247 28 159 76 200 47 b 392 0 293 9 342 0 b 494 16 428 0 462 5 b 581 62 527 27 556 42 b 640 135 606 82 625 106 b 661 236 654 165 661 198 b 638 332 661 274 653 306 b 576 399 622 358 601 380 b 491 445 551 417 523 433 b 394 479 459 458 427 469 b 283 520 354 492 316 506 b 195 573 249 534 220 552 b 138 648 171 594 152 619 b 118 754 125 677 118 713 b 142 863 118 795 126 831 b 208 944 159 895 181 922 b 305 994 236 966 268 982 b 421 1011 341 1005 380 1011 b 563 983 471 1011 518 1002 b 674 901 608 964 645 937 l 650 881 b 551 956 624 913 591 938 b 419 983 510 974 467 983 b 322 969 386 983 353 979 b 235 927 290 960 261 946 b 172 856 209 908 188 884 b 149 754 156 827 149 793 b 169 658 149 716 156 684 b 225 590 183 631 202 609 b 303 544 248 572 274 556 b 393 511 333 532 363 521 b 510 469 435 497 474 483 b 605 417 546 454 578 437 b 669 342 632 396 653 372 b 692 236 684 313 692 278 b 668 125 692 194 684 157 b 605 43 652 93 631 65 b 513 -8 578 21 548 4 b 400 -28 477 -20 440 -27 l 338 -119 b 375 -110 350 -115 363 -112 b 413 -108 387 -109 400 -108 b 455 -113 426 -108 441 -110 b 494 -128 469 -116 482 -122 b 522 -158 505 -135 515 -145 b 533 -203 530 -170 533 -185 "},"ş":{"ha":576,"x_min":0,"x_max":0,"o":"m 431 -203 b 415 -258 431 -225 425 -243 b 375 -292 404 -272 391 -283 b 324 -309 359 -300 342 -306 b 275 -314 306 -312 290 -314 b 215 -307 257 -314 237 -312 b 150 -286 192 -302 170 -295 l 157 -262 b 217 -282 175 -272 195 -278 b 276 -287 240 -286 260 -287 b 319 -284 290 -287 304 -286 b 359 -272 333 -282 347 -278 b 390 -246 372 -266 382 -257 b 401 -203 397 -235 401 -220 b 392 -167 401 -188 398 -176 b 367 -145 385 -157 377 -150 b 335 -135 358 -140 347 -137 b 301 -132 324 -133 313 -132 b 252 -137 288 -132 272 -134 b 206 -153 232 -141 217 -146 l 192 -140 l 275 -17 b 158 14 231 -15 192 -5 b 69 90 123 32 94 58 l 94 107 b 294 10 141 42 207 10 b 356 19 315 10 335 13 b 413 49 377 26 396 36 b 455 97 430 62 444 78 b 471 164 466 117 471 139 b 451 236 471 194 464 218 b 400 281 437 255 420 269 b 333 308 380 292 357 301 b 264 326 308 315 285 321 b 199 348 241 333 219 340 b 145 378 178 356 160 366 b 109 425 130 391 118 406 b 96 494 100 444 96 467 b 113 567 96 522 101 546 b 157 617 124 587 138 604 b 220 648 175 631 197 641 b 292 658 244 655 268 658 b 488 565 379 658 444 627 l 461 550 b 389 612 440 578 416 598 b 292 632 362 625 330 632 b 236 625 274 632 256 630 b 183 602 217 620 199 613 b 142 560 166 591 153 577 b 126 496 132 542 126 521 b 140 429 126 468 131 446 b 176 389 148 413 161 399 b 233 363 192 379 211 370 b 307 343 256 356 280 350 b 380 320 332 337 356 329 b 442 288 403 311 424 300 b 485 239 460 275 475 258 b 501 167 496 219 501 195 b 486 92 501 139 496 114 b 444 36 476 71 462 52 b 381 -1 426 20 405 8 b 304 -17 356 -11 331 -16 l 235 -119 b 272 -110 248 -115 260 -112 b 310 -108 284 -109 297 -108 b 352 -113 324 -108 338 -110 b 391 -128 366 -116 379 -122 b 419 -158 403 -135 412 -145 b 431 -203 427 -170 431 -185 "},"Ţ":{"ha":750,"x_min":0,"x_max":0,"o":"m 390 0 l 360 0 l 360 956 l 25 956 l 25 983 l 725 983 l 725 956 l 390 956 m 503 -203 b 487 -258 503 -225 497 -243 b 447 -292 476 -272 463 -283 b 397 -309 431 -300 415 -306 b 347 -314 378 -312 362 -314 b 287 -307 330 -314 309 -312 b 222 -286 264 -302 243 -295 l 229 -262 b 290 -282 247 -272 267 -278 b 349 -287 312 -286 332 -287 b 391 -284 363 -287 377 -286 b 431 -272 405 -282 419 -278 b 462 -246 444 -266 454 -257 b 474 -203 470 -235 474 -220 b 464 -167 474 -188 470 -176 b 440 -145 457 -157 449 -150 b 408 -135 430 -140 419 -137 b 374 -132 396 -133 385 -132 b 324 -137 361 -132 344 -134 b 278 -153 304 -141 289 -146 l 264 -140 l 360 0 l 389 0 l 307 -119 b 344 -110 320 -115 332 -112 b 382 -108 356 -109 369 -108 b 424 -113 396 -108 410 -110 b 463 -128 439 -116 452 -122 b 492 -158 475 -135 484 -145 b 503 -203 499 -170 503 -185 "},"ţ":{"ha":422,"x_min":0,"x_max":0,"o":"m 389 -1 b 350 -12 378 -6 365 -10 b 307 -17 335 -15 321 -17 b 199 26 257 -17 221 -3 b 167 132 178 54 167 89 l 167 613 l 28 613 l 28 639 l 165 639 l 165 826 l 197 826 l 197 639 l 385 639 l 385 613 l 197 613 l 197 132 b 229 38 197 88 208 57 b 314 10 250 19 279 10 b 385 22 340 10 363 14 l 389 -1 m 425 -203 b 409 -258 425 -225 420 -243 b 369 -292 398 -272 385 -283 b 319 -309 354 -300 337 -306 b 269 -314 301 -312 284 -314 b 209 -307 252 -314 232 -312 b 144 -286 186 -302 165 -295 l 151 -262 b 212 -282 169 -272 189 -278 b 271 -287 234 -286 254 -287 b 313 -284 285 -287 299 -286 b 353 -272 328 -282 341 -278 b 384 -246 366 -266 376 -257 b 396 -203 392 -235 396 -220 b 386 -167 396 -188 393 -176 b 362 -145 380 -157 372 -150 b 330 -135 352 -140 341 -137 b 296 -132 318 -133 307 -132 b 247 -137 283 -132 266 -134 b 200 -153 227 -141 211 -146 l 186 -140 l 282 0 l 311 0 l 229 -119 b 267 -110 242 -115 255 -112 b 304 -108 279 -109 291 -108 b 347 -113 318 -108 332 -110 b 385 -128 361 -116 374 -122 b 414 -158 397 -135 406 -145 b 425 -203 421 -170 425 -185 "},"Ť":{"ha":750,"x_min":0,"x_max":0,"o":"m 390 0 l 360 0 l 360 956 l 25 956 l 25 983 l 725 983 l 725 956 l 390 956 m 213 1261 l 244 1261 l 375 1078 l 506 1261 l 538 1261 l 394 1061 l 356 1061 "},"ť":{"ha":422,"x_min":0,"x_max":0,"o":"m 389 -1 b 350 -12 378 -6 365 -10 b 307 -17 335 -15 321 -17 b 199 26 257 -17 221 -3 b 167 132 178 54 167 89 l 167 613 l 28 613 l 28 639 l 165 639 l 165 826 l 197 826 l 197 639 l 385 639 l 385 613 l 197 613 l 197 132 b 229 38 197 88 208 57 b 314 10 250 19 279 10 b 385 22 340 10 363 14 l 389 -1 m 319 758 l 390 1015 l 424 1015 l 343 758 "},"Ŧ":{"ha":750,"x_min":0,"x_max":0,"o":"m 390 0 l 360 0 l 360 732 l 83 732 l 83 757 l 360 757 l 360 956 l 25 956 l 25 983 l 725 983 l 725 956 l 390 956 l 390 757 l 667 757 l 667 732 l 390 732 "},"ŧ":{"ha":422,"x_min":0,"x_max":0,"o":"m 197 132 b 229 38 197 88 208 57 b 314 10 250 19 279 10 b 385 22 340 10 363 14 l 389 -1 b 350 -12 378 -6 365 -10 b 307 -17 335 -15 321 -17 b 199 26 257 -17 221 -3 b 167 132 178 54 167 89 l 167 360 l 39 360 l 39 385 l 167 385 l 167 613 l 28 613 l 28 639 l 165 639 l 165 826 l 197 826 l 197 639 l 385 639 l 385 613 l 197 613 l 197 385 l 364 385 l 364 360 l 197 360 "},"Ũ":{"ha":1017,"x_min":0,"x_max":0,"o":"m 883 372 b 864 216 883 317 877 265 b 800 89 851 167 830 125 b 684 3 770 53 732 24 b 508 -28 636 -17 578 -28 b 333 3 439 -28 380 -17 b 217 89 285 24 246 53 b 153 216 187 125 166 167 b 133 372 140 265 133 317 l 133 983 l 164 983 l 164 378 b 176 253 164 339 168 297 b 224 131 184 209 200 169 b 328 38 249 94 284 63 b 508 0 373 13 433 0 b 685 36 581 0 641 12 b 790 128 730 60 765 91 b 840 251 815 166 832 207 b 853 378 849 295 853 337 l 853 983 l 883 983 l 883 372 m 514 1164 b 544 1146 526 1156 536 1150 b 566 1135 553 1141 560 1138 b 581 1131 572 1133 577 1132 b 596 1131 585 1131 590 1131 b 651 1197 626 1131 645 1153 l 674 1197 b 646 1126 670 1164 661 1140 b 596 1104 631 1111 614 1104 b 556 1111 581 1104 568 1106 b 507 1138 545 1116 528 1125 b 456 1165 483 1152 466 1162 b 425 1171 445 1169 435 1171 b 369 1100 395 1171 377 1147 l 347 1100 b 375 1174 351 1133 360 1158 b 425 1197 390 1189 406 1197 b 465 1190 440 1197 453 1195 b 514 1164 477 1186 494 1177 "},"ũ":{"ha":794,"x_min":0,"x_max":0,"o":"m 614 168 b 573 88 604 138 590 112 b 514 29 556 65 536 45 b 442 -7 492 13 468 1 b 361 -19 416 -15 389 -19 b 250 4 317 -19 280 -12 b 179 67 220 20 197 41 b 142 154 162 93 149 122 b 131 253 134 187 131 219 l 131 639 l 161 639 l 161 256 b 169 172 161 229 164 201 b 201 92 175 142 185 116 b 262 31 216 68 236 47 b 361 7 287 15 320 7 b 460 28 396 7 429 14 b 541 90 491 43 518 63 b 595 188 564 117 582 150 b 615 319 609 227 615 270 l 615 639 l 646 639 l 646 161 b 647 124 646 151 646 138 b 648 78 647 109 647 94 b 650 35 648 63 649 49 b 653 0 651 21 652 9 l 622 0 b 620 35 621 9 621 21 b 619 80 620 49 619 64 b 617 127 618 96 618 112 b 617 168 617 142 617 156 l 614 168 m 396 886 b 426 868 408 879 418 873 b 448 858 435 863 442 860 b 463 853 454 855 459 854 b 478 853 467 853 472 853 b 533 919 508 853 527 875 l 556 919 b 528 848 552 886 543 862 b 478 826 513 834 496 826 b 438 833 463 826 450 829 b 389 860 427 838 410 847 b 338 888 365 875 348 884 b 307 893 327 891 317 893 b 251 822 277 893 259 869 l 229 822 b 257 896 233 856 242 880 b 307 919 272 912 288 919 b 347 913 322 919 335 917 b 396 886 359 908 375 899 "},"Ū":{"ha":1017,"x_min":0,"x_max":0,"o":"m 883 372 b 864 216 883 317 877 265 b 800 89 851 167 830 125 b 684 3 770 53 732 24 b 508 -28 636 -17 578 -28 b 333 3 439 -28 380 -17 b 217 89 285 24 246 53 b 153 216 187 125 166 167 b 133 372 140 265 133 317 l 133 983 l 164 983 l 164 378 b 176 253 164 339 168 297 b 224 131 184 209 200 169 b 328 38 249 94 284 63 b 508 0 373 13 433 0 b 685 36 581 0 641 12 b 790 128 730 60 765 91 b 840 251 815 166 832 207 b 853 378 849 295 853 337 l 853 983 l 883 983 l 883 372 m 349 1168 l 671 1168 l 671 1140 l 349 1140 "},"ū":{"ha":794,"x_min":0,"x_max":0,"o":"m 614 168 b 573 88 604 138 590 112 b 514 29 556 65 536 45 b 442 -7 492 13 468 1 b 361 -19 416 -15 389 -19 b 250 4 317 -19 280 -12 b 179 67 220 20 197 41 b 142 154 162 93 149 122 b 131 253 134 187 131 219 l 131 639 l 161 639 l 161 256 b 169 172 161 229 164 201 b 201 92 175 142 185 116 b 262 31 216 68 236 47 b 361 7 287 15 320 7 b 460 28 396 7 429 14 b 541 90 491 43 518 63 b 595 188 564 117 582 150 b 615 319 609 227 615 270 l 615 639 l 646 639 l 646 161 b 647 124 646 151 646 138 b 648 78 647 109 647 94 b 650 35 648 63 649 49 b 653 0 651 21 652 9 l 622 0 b 620 35 621 9 621 21 b 619 80 620 49 619 64 b 617 127 618 96 618 112 b 617 168 617 142 617 156 l 614 168 m 229 890 l 551 890 l 551 863 l 229 863 "},"Ŭ":{"ha":1017,"x_min":0,"x_max":0,"o":"m 883 372 b 864 216 883 317 877 265 b 800 89 851 167 830 125 b 684 3 770 53 732 24 b 508 -28 636 -17 578 -28 b 333 3 439 -28 380 -17 b 217 89 285 24 246 53 b 153 216 187 125 166 167 b 133 372 140 265 133 317 l 133 983 l 164 983 l 164 378 b 176 253 164 339 168 297 b 224 131 184 209 200 169 b 328 38 249 94 284 63 b 508 0 373 13 433 0 b 685 36 581 0 641 12 b 790 128 730 60 765 91 b 840 251 815 166 832 207 b 853 378 849 295 853 337 l 853 983 l 883 983 l 883 372 m 685 1247 b 624 1117 675 1191 655 1147 b 508 1072 593 1087 555 1072 b 394 1117 463 1072 425 1087 b 336 1247 363 1147 344 1191 l 363 1247 b 415 1138 372 1199 389 1163 b 508 1100 441 1113 472 1100 b 607 1135 550 1100 583 1112 b 660 1247 631 1158 649 1195 l 685 1247 "},"ŭ":{"ha":794,"x_min":0,"x_max":0,"o":"m 614 168 b 573 88 604 138 590 112 b 514 29 556 65 536 45 b 442 -7 492 13 468 1 b 361 -19 416 -15 389 -19 b 250 4 317 -19 280 -12 b 179 67 220 20 197 41 b 142 154 162 93 149 122 b 131 253 134 187 131 219 l 131 639 l 161 639 l 161 256 b 169 172 161 229 164 201 b 201 92 175 142 185 116 b 262 31 216 68 236 47 b 361 7 287 15 320 7 b 460 28 396 7 429 14 b 541 90 491 43 518 63 b 595 188 564 117 582 150 b 615 319 609 227 615 270 l 615 639 l 646 639 l 646 161 b 647 124 646 151 646 138 b 648 78 647 109 647 94 b 650 35 648 63 649 49 b 653 0 651 21 652 9 l 622 0 b 620 35 621 9 621 21 b 619 80 620 49 619 64 b 617 127 618 96 618 112 b 617 168 617 142 617 156 l 614 168 m 564 969 b 503 840 555 913 534 870 b 388 794 472 809 434 794 b 273 840 342 794 304 809 b 215 969 242 870 223 913 l 242 969 b 294 860 251 921 269 885 b 388 822 320 835 351 822 b 486 857 429 822 462 834 b 539 969 510 880 528 918 l 564 969 "},"Ů":{"ha":1017,"x_min":0,"x_max":0,"o":"m 883 372 b 864 216 883 317 877 265 b 800 89 851 167 830 125 b 684 3 770 53 732 24 b 508 -28 636 -17 578 -28 b 333 3 439 -28 380 -17 b 217 89 285 24 246 53 b 153 216 187 125 166 167 b 133 372 140 265 133 317 l 133 983 l 164 983 l 164 378 b 176 253 164 339 168 297 b 224 131 184 209 200 169 b 328 38 249 94 284 63 b 508 0 373 13 433 0 b 685 36 581 0 641 12 b 790 128 730 60 765 91 b 840 251 815 166 832 207 b 853 378 849 295 853 337 l 853 983 l 883 983 l 883 372 m 644 1181 b 634 1128 644 1162 641 1145 b 605 1086 627 1112 617 1098 b 562 1058 592 1074 578 1065 b 511 1049 546 1052 529 1049 b 460 1058 493 1049 475 1052 b 417 1086 444 1065 430 1074 b 388 1128 405 1098 395 1112 b 378 1181 381 1145 378 1162 b 388 1233 378 1199 381 1216 b 417 1274 395 1249 405 1263 b 460 1302 430 1286 444 1295 b 511 1313 475 1309 493 1313 b 562 1302 529 1313 546 1309 b 605 1274 578 1295 592 1286 b 634 1233 617 1263 627 1249 b 644 1181 641 1216 644 1199 m 618 1181 b 587 1257 618 1210 608 1236 b 511 1289 566 1278 541 1289 b 435 1257 481 1289 456 1278 b 404 1181 415 1236 404 1210 b 435 1104 404 1151 415 1125 b 511 1072 456 1083 481 1072 b 587 1104 541 1072 566 1083 b 618 1181 608 1125 618 1151 "},"ů":{"ha":794,"x_min":0,"x_max":0,"o":"m 614 168 b 573 88 604 138 590 112 b 514 29 556 65 536 45 b 442 -7 492 13 468 1 b 361 -19 416 -15 389 -19 b 250 4 317 -19 280 -12 b 179 67 220 20 197 41 b 142 154 162 93 149 122 b 131 253 134 187 131 219 l 131 639 l 161 639 l 161 256 b 169 172 161 229 164 201 b 201 92 175 142 185 116 b 262 31 216 68 236 47 b 361 7 287 15 320 7 b 460 28 396 7 429 14 b 541 90 491 43 518 63 b 595 188 564 117 582 150 b 615 319 609 227 615 270 l 615 639 l 646 639 l 646 161 b 647 124 646 151 646 138 b 648 78 647 109 647 94 b 650 35 648 63 649 49 b 653 0 651 21 652 9 l 622 0 b 620 35 621 9 621 21 b 619 80 620 49 619 64 b 617 127 618 96 618 112 b 617 168 617 142 617 156 l 614 168 m 524 903 b 513 851 524 884 520 867 b 484 808 506 834 497 820 b 441 781 472 796 457 787 b 390 771 425 774 408 771 b 339 781 372 771 355 774 b 297 808 323 787 309 796 b 267 851 284 820 274 834 b 257 903 260 867 257 884 b 267 955 257 921 260 939 b 297 997 274 971 284 985 b 339 1024 309 1008 323 1017 b 390 1035 355 1031 372 1035 b 441 1024 408 1035 425 1031 b 484 997 457 1017 472 1008 b 513 955 497 985 506 971 b 524 903 520 939 524 921 m 497 903 b 466 979 497 932 487 958 b 390 1011 445 1000 420 1011 b 315 979 361 1011 335 1000 b 283 903 294 958 283 932 b 315 826 283 873 294 848 b 390 794 335 805 361 794 b 466 826 420 794 445 805 b 497 903 487 848 497 873 "},"Ű":{"ha":1017,"x_min":0,"x_max":0,"o":"m 883 372 b 864 216 883 317 877 265 b 800 89 851 167 830 125 b 684 3 770 53 732 24 b 508 -28 636 -17 578 -28 b 333 3 439 -28 380 -17 b 217 89 285 24 246 53 b 153 216 187 125 166 167 b 133 372 140 265 133 317 l 133 983 l 164 983 l 164 378 b 176 253 164 339 168 297 b 224 131 184 209 200 169 b 328 38 249 94 284 63 b 508 0 373 13 433 0 b 685 36 581 0 641 12 b 790 128 730 60 765 91 b 840 251 815 166 832 207 b 853 378 849 295 853 337 l 853 983 l 883 983 l 883 372 m 408 1060 l 551 1261 l 589 1261 l 435 1060 m 571 1060 l 714 1261 l 751 1261 l 597 1060 "},"ű":{"ha":794,"x_min":0,"x_max":0,"o":"m 614 168 b 573 88 604 138 590 112 b 514 29 556 65 536 45 b 442 -7 492 13 468 1 b 361 -19 416 -15 389 -19 b 250 4 317 -19 280 -12 b 179 67 220 20 197 41 b 142 154 162 93 149 122 b 131 253 134 187 131 219 l 131 639 l 161 639 l 161 256 b 169 172 161 229 164 201 b 201 92 175 142 185 116 b 262 31 216 68 236 47 b 361 7 287 15 320 7 b 460 28 396 7 429 14 b 541 90 491 43 518 63 b 595 188 564 117 582 150 b 615 319 609 227 615 270 l 615 639 l 646 639 l 646 161 b 647 124 646 151 646 138 b 648 78 647 109 647 94 b 650 35 648 63 649 49 b 653 0 651 21 652 9 l 622 0 b 620 35 621 9 621 21 b 619 80 620 49 619 64 b 617 127 618 96 618 112 b 617 168 617 142 617 156 l 614 168 m 289 782 l 432 983 l 469 983 l 315 782 m 451 782 l 594 983 l 632 983 l 478 782 "},"Ų":{"ha":1017,"x_min":0,"x_max":0,"o":"m 665 -267 b 613 -298 650 -280 633 -290 b 551 -310 593 -306 573 -310 b 469 -281 519 -310 491 -300 b 435 -199 446 -261 435 -234 b 465 -109 435 -167 445 -137 b 535 -26 484 -81 508 -53 b 522 -28 530 -27 526 -28 l 508 -28 b 333 3 439 -28 380 -17 b 217 89 285 24 246 53 b 153 216 187 125 166 167 b 133 372 140 265 133 317 l 133 983 l 164 983 l 164 378 b 176 253 164 339 168 297 b 224 131 184 209 200 169 b 328 38 249 94 284 63 b 508 0 373 13 433 0 b 685 36 581 0 641 12 b 790 128 730 60 765 91 b 840 251 815 166 832 207 b 853 378 849 295 853 337 l 853 983 l 883 983 l 883 372 b 867 228 883 321 878 273 b 813 107 856 182 838 142 b 717 19 789 72 756 43 b 571 -24 677 -4 628 -18 b 492 -115 536 -59 509 -89 b 465 -196 474 -140 465 -167 b 490 -261 465 -224 474 -245 b 556 -285 507 -277 529 -285 b 609 -274 574 -285 592 -281 b 651 -244 626 -266 640 -256 l 665 -267 "},"ų":{"ha":794,"x_min":0,"x_max":0,"o":"m 724 -267 b 672 -298 709 -280 691 -290 b 610 -310 652 -306 631 -310 b 527 -281 577 -310 550 -300 b 493 -199 504 -261 493 -234 b 532 -97 493 -162 506 -128 b 621 0 558 -65 588 -32 l 622 0 b 620 35 621 9 621 21 b 619 80 620 49 619 64 b 617 127 618 96 618 112 b 617 168 617 142 617 156 l 614 168 b 573 88 604 138 590 112 b 514 29 556 65 536 45 b 442 -7 492 13 468 1 b 361 -19 416 -15 389 -19 b 250 4 317 -19 280 -12 b 179 67 220 20 197 41 b 142 154 162 93 149 122 b 131 253 134 187 131 219 l 131 639 l 161 639 l 161 256 b 169 172 161 229 164 201 b 201 92 175 142 185 116 b 262 31 216 68 236 47 b 361 7 287 15 320 7 b 460 28 396 7 429 14 b 541 90 491 43 518 63 b 595 188 564 117 582 150 b 615 319 609 227 615 270 l 615 639 l 646 639 l 646 161 b 647 124 646 151 646 138 b 648 78 647 109 647 94 b 650 35 648 63 649 49 b 653 0 651 21 652 9 b 556 -106 610 -43 578 -78 b 524 -196 534 -134 524 -164 b 549 -261 524 -224 532 -245 b 614 -285 565 -277 587 -285 b 667 -274 632 -285 650 -281 b 710 -244 684 -266 699 -256 l 724 -267 "},"Ŵ":{"ha":1328,"x_min":0,"x_max":0,"o":"m 947 0 l 663 954 l 660 954 l 381 0 l 333 0 l 39 983 l 71 983 l 354 28 l 358 28 l 638 983 l 685 983 l 969 28 l 974 28 l 1257 983 l 1289 983 l 994 0 m 824 1061 l 792 1061 l 661 1244 l 531 1061 l 499 1061 l 642 1261 l 681 1261 "},"ŵ":{"ha":969,"x_min":0,"x_max":0,"o":"m 693 0 l 485 606 l 482 606 l 275 0 l 233 0 l 47 639 l 79 639 l 254 31 l 257 31 l 463 639 l 506 639 l 713 31 l 715 31 l 890 639 l 922 639 l 735 0 m 646 783 l 614 783 l 483 967 l 353 783 l 321 783 l 464 983 l 503 983 "},"Ŷ":{"ha":747,"x_min":0,"x_max":0,"o":"m 389 0 l 358 0 l 358 431 l 21 983 l 57 983 l 375 461 l 692 983 l 726 983 l 389 431 m 538 1061 l 506 1061 l 375 1244 l 244 1061 l 213 1061 l 356 1261 l 394 1261 "},"ŷ":{"ha":594,"x_min":0,"x_max":0,"o":"m 244 -211 b 185 -303 230 -251 210 -282 b 90 -336 161 -325 129 -336 b 61 -333 82 -336 72 -335 b 33 -326 50 -331 41 -329 l 42 -300 b 65 -306 47 -302 55 -304 b 93 -308 74 -307 84 -308 b 144 -297 113 -308 129 -305 b 181 -269 158 -290 170 -280 b 206 -229 191 -257 199 -244 b 225 -185 213 -214 219 -200 l 286 -18 l 33 639 l 67 639 l 301 17 l 528 639 l 561 639 l 244 -211 m 465 783 l 433 783 l 303 967 l 172 783 l 140 783 l 283 983 l 322 983 "},"Ź":{"ha":825,"x_min":0,"x_max":0,"o":"m 75 38 l 722 956 l 93 956 l 93 983 l 750 983 l 750 943 l 104 28 l 767 28 l 767 0 l 75 0 m 388 1061 l 531 1261 l 568 1261 l 414 1061 "},"ź":{"ha":608,"x_min":0,"x_max":0,"o":"m 68 29 l 490 613 l 90 613 l 90 639 l 521 639 l 521 608 l 103 26 l 538 26 l 538 0 l 68 0 m 274 783 l 417 983 l 454 983 l 300 783 "},"Ż":{"ha":825,"x_min":0,"x_max":0,"o":"m 75 38 l 722 956 l 93 956 l 93 983 l 750 983 l 750 943 l 104 28 l 767 28 l 767 0 l 75 0 m 424 1157 b 401 1167 415 1157 408 1160 b 392 1193 395 1173 392 1182 b 401 1218 392 1203 395 1212 b 424 1228 408 1225 415 1228 b 446 1218 432 1228 439 1225 b 456 1193 452 1212 456 1203 b 445 1167 456 1182 452 1173 b 424 1157 438 1160 431 1157 "},"ż":{"ha":608,"x_min":0,"x_max":0,"o":"m 68 29 l 490 613 l 90 613 l 90 639 l 521 639 l 521 608 l 103 26 l 538 26 l 538 0 l 68 0 m 310 879 b 288 889 301 879 294 882 b 278 915 281 895 278 904 b 288 940 278 925 281 934 b 310 950 294 947 301 950 b 332 940 318 950 325 947 b 342 915 338 934 342 925 b 331 889 342 904 338 895 b 310 879 324 882 317 879 "},"ƒ":{"ha":778,"x_min":0,"x_max":0,"o":"m 656 949 b 621 967 646 956 635 962 b 581 974 607 971 594 974 b 519 960 556 974 536 969 b 476 924 502 950 488 938 b 450 874 465 909 456 892 b 435 818 444 855 438 837 l 389 567 l 553 567 l 553 540 l 385 540 l 282 -28 b 263 -98 277 -54 271 -77 b 233 -152 255 -119 245 -137 b 185 -187 220 -167 204 -179 b 117 -200 166 -196 144 -200 b 74 -197 102 -200 88 -199 b 36 -182 60 -194 47 -189 l 50 -156 b 117 -172 72 -167 94 -172 b 177 -159 141 -172 161 -168 b 217 -122 193 -150 207 -138 b 243 -65 228 -105 237 -86 b 260 7 250 -43 255 -19 l 354 540 l 200 540 l 200 567 l 358 567 l 401 807 b 420 879 406 832 412 856 b 452 941 428 902 439 923 b 503 984 466 959 483 973 b 579 1000 524 995 550 1000 b 672 974 619 1000 650 991 l 656 949 "},"Ș":{"ha":792,"x_min":0,"x_max":0,"o":"m 692 236 b 667 124 692 194 684 157 b 603 41 651 91 630 64 b 508 -10 576 18 544 1 b 393 -28 471 -22 433 -28 b 226 5 332 -28 276 -17 b 100 93 175 27 133 56 l 124 114 b 247 28 159 76 200 47 b 392 0 293 9 342 0 b 494 16 428 0 462 5 b 581 62 527 27 556 42 b 640 135 606 82 625 106 b 661 236 654 165 661 198 b 638 332 661 274 653 306 b 576 399 622 358 601 380 b 491 445 551 417 523 433 b 394 479 459 458 427 469 b 283 520 354 492 316 506 b 195 573 249 534 220 552 b 138 648 171 594 152 619 b 118 754 125 677 118 713 b 142 863 118 795 126 831 b 208 944 159 895 181 922 b 305 994 236 966 268 982 b 421 1011 341 1005 380 1011 b 563 983 471 1011 518 1002 b 674 901 608 964 645 937 l 650 881 b 551 956 624 913 591 938 b 419 983 510 974 467 983 b 322 969 386 983 353 979 b 235 927 290 960 261 946 b 172 856 209 908 188 884 b 149 754 156 827 149 793 b 169 658 149 716 156 684 b 225 590 183 631 202 609 b 303 544 248 572 274 556 b 393 511 333 532 363 521 b 510 469 435 497 474 483 b 605 417 546 454 578 437 b 669 342 632 396 653 372 b 692 236 684 313 692 278 m 332 -319 l 403 -62 l 436 -62 l 356 -319 "}}}
